<?xml version="1.0" encoding="utf-8"?>
<!-- Generator: Adobe Illustrator 24.0.1, SVG Export Plug-In . SVG Version: 6.00 Build 0)  -->
<svg version="1.1" id="eed9bbac-8433-4041-b27b-b9dabe773e72"
	 xmlns="http://www.w3.org/2000/svg" xmlns:xlink="http://www.w3.org/1999/xlink" x="0px" y="0px" viewBox="0 0 1097 727.1"
	 style="enable-background:new 0 0 1097 727.1;" xml:space="preserve">
<polygon style="fill:#2F2E41;" points="507.4,62.9 712.3,62.9 712.3,99.7 518.1,99.7 "/>
<path style="fill:#3F3D56;" d="M402.6,644.1c0,11.1-68.5,20-153.1,20.1h-0.7c-41.3,0-78.8-2.1-106.4-5.5c-1.2-0.2-2.3-0.3-3.5-0.5
	c-4.7-0.7-9.1-1.3-13.1-2c-19.3-3.4-30.8-7.5-30.8-12.1c0-3.6,7.5-7.1,20.6-10.1c6.9-1.6,15.4-3,25.1-4.2c1.8-0.2,3.6-0.5,5.5-0.7
	c27.2-3.1,63.2-5.1,102.5-5.1c7.7,0,15.2,0.1,22.6,0.2C345.6,625.6,402.6,634,402.6,644.1z"/>
<path style="fill:#A0616A;" d="M218.9,468.2l3.9,30.2c0,0,1.6,10.1,3.1,15.5c0,0-1.6,28.6,10.8,48.7l7.7,14.7L246,599l19.3,2.3
	l-3.9-32.5c0,0-1.6-15.5,0-21.7s-7.7-34.8-7.7-34.8s12.4-40.2,3.1-50.3C247.4,451.9,218.9,468.2,218.9,468.2z"/>
<path style="fill:#2F2E41;" d="M253,592.6c0,0-8.5,0-9.3,2.3s-13.1,23.2-13.1,23.2s-10.8,17,4.6,17.8s20.1-6.2,20.1-6.2
	s13.9-22.4,14.7-26.3c0.8-3.9-5.8-12.2-5.8-12.2S255.3,597.3,253,592.6z"/>
<ellipse transform="matrix(0.1602 -0.9871 0.9871 0.1602 36.2823 417.8448)" style="fill:#A0616A;" cx="263.7" cy="187.6" rx="26.3" ry="26.3"/>
<path style="fill:#A0616A;" d="M242.5,195.8c0,0,0,28.6-10.1,30.9s13.9,28.6,27,25.5s18.5-24,18.5-24s-11.6-14.7-6.9-22.4
	C275.6,198.1,242.5,195.8,242.5,195.8z"/>
<path style="fill:#D0CDE1;" d="M253.7,235.6c-7.5-0.2-14.4-4.1-18.5-10.3c0,0-10.8,1.8-12.4,2.6c-1.6,0.7-28.6,9.3-34.8,27
	l24.7,31.7c0,0-5.4,44.8,0,64.9c3.2,12.1,2.4,24.8-2.3,36.3c0,0-2.3,0.7,1.6,2.3c3.9,1.6,92.8-16.2,94.3-20.8
	c1.5-4.6-1.6-4.6,0.7-6.9c2.3-2.3,8.5-16.2,2.3-20.8c-6.2-4.6-10.1-55.6-10.1-55.6l16.2-40.9c0,0-29.7-23.7-40.4-20.8
	C275.2,224.1,273.1,235.6,253.7,235.6z"/>
<path style="fill:#A0616A;" d="M263.7,452.7c0,0-1.6,34,1.6,47.1c3.1,13.1,3.1,18.5,3.1,18.5s-4.6,22.4-2.3,43.2
	c2.3,20.8-2.7,54.5-2.7,54.5l18.9,5.8l11.6-58.7c0,0,9.3-36.3,3.9-53.3c0,0,3.1-51.8,5.4-57.2C305.4,447.2,263.7,452.7,263.7,452.7z
	"/>
<path style="fill:#2F2E41;" d="M243.1,192.3c0.3-2.5,1.1-5.1,3.2-6.4c2.1-1.4,5-0.8,7.6-0.7c2.6,0.1,5.7-0.5,6.6-2.9
	c0.5-1.5-0.1-3.3,0.7-4.7c1.3-2.2,5.3-2,6-4.4c0.2-0.7,0-1.7,0.3-2.4c0.4-1,1.7-1.4,2.7-1.7c3.9-0.9,7.9-1.2,11.9-1.1
	c0.4,0.1,0.8,0,1.2-0.2c0.2-0.2,0.3-0.4,0.3-0.7c0.9-2.7-0.1-5.8-1.8-8c-1.9-2.1-4.3-3.8-6.9-5c-5.9-2.8-12.2-4.5-18.6-5
	c-5-0.3-10.1,0.2-14.3,2.8c-1.2,0.8-2.4,1.7-3.5,2.7c-4.5,4.5-7.5,10.5-8.5,16.9c-0.9,6.4-0.2,12.9,2.1,18.9
	c1.3,3.6,3.5,7.4,6.7,9.6c1.7,1.2,3.2,2.3,4,0.2C243.5,198.5,242.7,194.7,243.1,192.3z"/>
<path style="fill:#2F2E41;" d="M214.3,383.2c0,0-11.6,15.5-9.3,26.3s10.8,28.6,10.8,28.6s-4.6,34.8,3.1,34.8
	c7.7,0,40.9-1.6,41.8-5.4c0.8-3.8-2.3-42.5-2.3-42.5s3.9,34,6.2,34c2.3,0,42.5,3.9,44.1,1.6s4.6-61.9,4.6-61.9s4.2-28-9.1-31.8
	C290.8,363,214.3,383.2,214.3,383.2z"/>
<path style="fill:#2F2E41;" d="M276.1,615.9c0,0-13.9-7.7-14.7-1.6c-0.8,6.1-9.3,28.6-9.3,28.6s-8.5,17.8,10.1,18.5
	s23.2-7.7,23.2-11.6c0-3.9-2.1-30.3-2.1-30.3L276.1,615.9z"/>
<path style="fill:#A0616A;" d="M324,286.6l3.9,34c0,0,4.6,18.5,1.6,26.3c-3.1,7.8-14.7,43.2-14.7,43.2s-3.1-19.3-10.8-21.7l4.6-44.1
	c0,0-11.1-27.5-8.6-31.2C302.4,289.5,324,286.6,324,286.6z"/>
<path style="fill:#A0616A;" d="M186.5,288.9l1.6,30.9c0,0-5.4,27,5.4,55.6l1.6,12.4l10.1,19.3c0,0,2.3-18.5,6.9-18.5
	c0,0-4.6-12.4-3.1-19.3c1.6-6.9-0.7-44.1-0.7-44.1l3.9-30L186.5,288.9z"/>
<path style="fill:#D0CDE1;" d="M307.1,244.1h8.5c0,0,20.1,46.4,12.4,47.1s-32.5,6.9-33.2,3.9C294,292.1,307.1,244.1,307.1,244.1z"/>
<path style="fill:#D0CDE1;" d="M195,248l-6.9,6.9c0,0-9.3,34.8-2.3,38.6c6.9,3.8,33.2,8.5,34.8,5.4C222.1,295.8,195,248,195,248z"/>
<path style="fill:#3F3D56;" d="M749.1,87v536c0,13.3-10.8,24.1-24.1,24.1H507.4c-13.3,0-24.1-10.7-24.1-24V623V87
	c0-13.3,10.7-24.1,24.1-24.1l0,0H540v4.2c0,10.9,8.8,19.8,19.8,19.8h110.6c4.2,0,8.4-1.3,11.7-3.9c0.7-0.5,1.3-1.1,2-1.7
	c3.9-3.7,6.1-8.9,6.1-14.3v-4.2H725C738.3,62.9,749.1,73.7,749.1,87L749.1,87z"/>
<ellipse style="opacity:0.1;enable-background:new    ;" cx="646.5" cy="278.4" rx="62" ry="12.4"/>
<ellipse style="opacity:0.1;enable-background:new    ;" cx="556.4" cy="342.1" rx="62" ry="12.4"/>
<ellipse style="opacity:0.1;enable-background:new    ;" cx="607.6" cy="458.7" rx="62" ry="12.4"/>
<polygon style="fill:#818080;" points="805.7,396.6 617.1,396.6 617.1,415 617.1,443.1 617.1,458.8 632.9,443.1 805.7,443.1 "/>
<polygon style="fill:#818080;" points="356.3,277.9 544.8,277.9 544.8,296.4 544.8,324.4 544.8,340.2 529,324.4 356.3,324.4 "/>
<rect x="659.2" y="407.8" style="fill:#FFFFFF;" width="106.1" height="8.6"/>
<rect x="659.2" y="420.7" style="fill:#FFFFFF;" width="106.1" height="8.6"/>
<rect x="388.4" y="290" style="fill:#FFFFFF;" width="106.1" height="8.6"/>
<rect x="388.4" y="302.9" style="fill:#FFFFFF;" width="106.1" height="8.6"/>
<polygon style="fill:#818080;" points="1002,161 646.5,161 646.5,195.8 646.5,248.7 646.5,278.4 676.3,248.7 1002,248.7 "/>
<rect x="701.9" y="180.9" style="fill:#FFFFFF;" width="244.8" height="19.8"/>
<rect x="701.9" y="210.6" style="fill:#FFFFFF;" width="244.8" height="19.8"/>
<ellipse style="opacity:0.1;enable-background:new    ;" cx="556.4" cy="577.1" rx="62" ry="12.4"/>
<polygon style="fill:#818080;" points="356.3,512.9 544.8,512.9 544.8,531.4 544.8,559.4 544.8,575.2 529,559.4 356.3,559.4 "/>
<rect x="388.4" y="525" style="fill:#FFFFFF;" width="106.1" height="8.6"/>
<rect x="388.4" y="537.9" style="fill:#FFFFFF;" width="106.1" height="8.6"/>
</svg>
