<?xml version="1.0" encoding="utf-8"?>
<!-- Generator: Adobe Illustrator 24.0.1, SVG Export Plug-In . SVG Version: 6.00 Build 0)  -->
<svg version="1.1" id="aaafdec0-95c8-49a3-a8f8-64216c6da511"
	 xmlns="http://www.w3.org/2000/svg" xmlns:xlink="http://www.w3.org/1999/xlink" x="0px" y="0px" viewBox="0 0 1013.4 610.3"
	 style="enable-background:new 0 0 1013.4 610.3;" xml:space="preserve">
<path style="fill:#3F3D56;" d="M642.2,574.1H309.3c-22.7,0-41.2-18.4-41.2-41.2l0,0V380.5c0-4.5,1.8-8.7,5.1-11.8l176.3-167.2
	c14.6-13.8,37.6-13.8,52.2,0l168.1,159.4c8.5,8,13.3,19.2,13.3,31V533C683.3,555.7,664.9,574.1,642.2,574.1L642.2,574.1z"/>
<path style="opacity:0.1;enable-background:new    ;" d="M268.2,383h411.6l0,0v166.3c0,13.8-11.2,24.8-24.8,24.8l0,0H293
	c-13.8,0-24.8-11.2-24.8-24.8l0,0L268.2,383L268.2,383L268.2,383z"/>
<path style="fill:#969696;" d="M344.9,252h260.8c12.5,0,22.7,10.1,22.7,22.7v260.8c0,12.5-10.1,22.7-22.7,22.7H344.9
	c-12.5,0-22.7-10.1-22.7-22.7V274.6C322.3,262.1,332.4,252,344.9,252z"/>
<polygon style="opacity:0.1;enable-background:new    ;" points="628.4,389.8 628.4,558.1 322.3,558.1 322.3,389.8 475.4,463.9 "/>
<path style="fill:#3F3D56;" d="M475.4,473.4l-196.1-94.8c-4-1.9-8.7-0.3-10.6,3.7c-0.5,1-0.8,2.2-0.8,3.5v163.1
	c0,13.8,11.2,24.8,24.8,24.8l0,0H658c13.8,0,24.8-11.2,24.8-24.8l0,0V388.5c0-5.4-4.3-9.7-9.7-9.7c-1.5,0-2.9,0.3-4.2,1L475.4,473.4
	z"/>
<rect x="348.7" y="280.1" style="fill:#F2F2F2;" width="85.6" height="12.1"/>
<rect x="341.7" y="324.2" style="fill:#F2F2F2;" width="254.3" height="6.9"/>
<rect x="341.7" y="347.6" style="fill:#F2F2F2;" width="254.3" height="6.9"/>
<rect x="341.7" y="370.9" style="fill:#F2F2F2;" width="254.3" height="6.9"/>
<line style="fill:none;stroke:#3F3D56;stroke-width:0.8648;stroke-miterlimit:10;" x1="112.6" y1="573.7" x2="825.2" y2="573.7"/>
<path style="fill:#46455B;" d="M59.8,467.2c0,50.9,32,92.2,71.5,92.2"/>
<path style="fill:#969696;" d="M131.3,559.4c0-51.5,35.7-93.3,79.8-93.3"/>
<path style="fill:#969696;" d="M85.8,471.8c0,48.4,20.4,87.6,45.6,87.6"/>
<path style="fill:#46455B;" d="M131.3,559.4c0-65.9,41.3-119.2,92.3-119.2"/>
<path style="fill:#A8A8A8;" d="M116.3,560.1c0,0,10.1-0.3,13.2-2.5c3.1-2.2,15.6-4.8,16.3-1.3c0.8,3.5,15.2,17.4,3.8,17.5
	s-26.6-1.8-29.7-3.6C117,568.3,116.3,560.1,116.3,560.1z"/>
<path style="opacity:0.2;enable-background:new    ;" d="M149.8,572.6c-11.4,0.1-26.6-1.8-29.7-3.6c-2.3-1.4-3.3-6.5-3.5-8.8
	c-0.2,0-0.3,0-0.3,0s0.6,8.2,3.7,10s18.2,3.7,29.7,3.6c3.3,0,4.4-1.2,4.4-2.9C153.6,571.9,152.3,572.6,149.8,572.6z"/>
<path style="fill:#A0616A;" d="M682.2,188.3c-0.5,4.7-4.1,8.4-5.4,12.8c-2,6.7,1.5,13.9,6.1,19.2c7.6,8.5,18.2,13.5,29.6,14.1
	c1.6,0.2,3.3,0,4.9-0.5c1.4-0.6,2.7-1.5,3.7-2.5c3.5-3.5,5.4-8.4,6.1-13.3c0.8-4.9,0.4-9.9,0.2-14.9c0-1-0.2-2.1-0.5-3
	c-0.5-1-1.1-1.7-1.9-2.3c-2.5-2.3-5.3-4.3-8.3-6.1c-1.4-0.6-2.5-1.6-3.5-2.7c-0.6-1-1-2.1-1-3.2l-1-4.7c-0.2-1.4-0.6-2.7-1.4-3.8
	c-1.6-2.2-4.8-2.5-7.4-2.6l-9.9-0.4c-3.1-0.1-7.2-1-10.2-0.4c-2.9,0.6-1.9,3.2-1.4,5.5C681.7,182.4,682.1,185.3,682.2,188.3z"/>
<path style="opacity:0.1;enable-background:new    ;" d="M682.2,188.3c-0.5,4.7-4.1,8.4-5.4,12.8c-2,6.7,1.5,13.9,6.1,19.2
	c7.6,8.5,18.2,13.5,29.6,14.1c1.6,0.2,3.3,0,4.9-0.5c1.4-0.6,2.7-1.5,3.7-2.5c3.5-3.5,5.4-8.4,6.1-13.3c0.8-4.9,0.4-9.9,0.2-14.9
	c0-1-0.2-2.1-0.5-3c-0.5-1-1.1-1.7-1.9-2.3c-2.5-2.3-5.3-4.3-8.3-6.1c-1.4-0.6-2.5-1.6-3.5-2.7c-0.6-1-1-2.1-1-3.2l-1-4.7
	c-0.2-1.4-0.6-2.7-1.4-3.8c-1.6-2.2-4.8-2.5-7.4-2.6l-9.9-0.4c-3.1-0.1-7.2-1-10.2-0.4c-2.9,0.6-1.9,3.2-1.4,5.5
	C681.7,182.4,682.1,185.3,682.2,188.3z"/>
<path style="fill:#605D82;" d="M745.5,396.7c-1.4,15.5-2.9,30.9-4.2,46.4c-1.1,12.2-2.2,24.4-4.4,36.4c-0.8,4.2-1.6,8.2-2.7,12.4
	c-2.9,11.3-7.1,22.4-8.5,34c0,0.3-0.1,0.7-0.1,1c-0.2,2.6-0.6,5.1-1.5,7.5c-0.7,1.7-1.7,3.4-2.4,5.1c-1.5,3.5-1.6,7.4-1.8,11.2
	c-5.1-2.9-10.7-4.8-16.6-5.7c-2.9-0.4-6-0.7-7.9-2.9c-2.2-2.3-1.9-5.9-1.6-9c1.1-9.7,2.2-19.4,3.4-29.1c0.3-4.2,1-8.3,2.1-12.4
	c0.3-1.4,0.9-2.7,1.3-4c0.6-1.8,1.3-3.6,1.8-5.5c0.7-3,1.2-6.1,1.5-9.2c1.1-9.8,2.5-19.5,3.7-29.2l0.1-0.5
	c1.8-14.8,3.2-29.6,2.8-44.5c-0.1-2.2-0.2-4.4-0.3-6.6c-0.2-3.2-0.5-4.9,2.2-6.9c2.9-2.2,6.7-3.7,10.1-5.2
	c1.8-0.8,21.6-7.8,22.1-6.3c1,3.3,1.4,6.7,1.5,10.1C746.2,388.3,746,392.5,745.5,396.7z"/>
<path style="opacity:0.1;enable-background:new    ;" d="M736.9,479.3c-0.8,4.2-1.6,8.2-2.7,12.4c-2.9,11.3-7.1,22.4-8.5,34
	c0,0.3-0.1,0.7-0.1,1c-8.8-12.6-16.3-26.2-24.9-39c0.6-1.8,1.3-3.6,1.8-5.5c0.7-3,1.2-6.1,1.5-9.2c1.1-9.8,2.5-19.5,3.7-29.2
	l0.1-0.5c0.5,2.1,1.2,4.1,2.2,6c5.8,11.8,19.5,17.7,26.3,29C736.5,478.7,736.7,479,736.9,479.3z"/>
<path style="fill:#605D82;" d="M665.2,375.8c0.3,9.4,1.8,18.8,3.3,28.1l3.1,19.3c1.7,10.6,3.5,21.3,8.5,30.7
	c3.7,7.1,9.1,13.1,13.9,19.4c11.9,15.6,20.9,33.2,32.3,49.2c3.3,4.7,8,9.7,13.6,8.7c3.7-0.6,6.4-3.7,9.3-6.1
	c3.5-2.8,7.5-4.8,10.2-8.3s3.2-9.3-0.4-11.8c-1.3-0.7-2.7-1.3-4.2-1.7c-5.6-2.2-9.3-7.7-11.6-13.2s-3.7-11.6-6.8-16.8
	c-6.7-11.2-20.5-17.2-26.3-29c-3.3-6.6-3.5-14.2-3.8-21.5l-0.6-18.8c-0.1-2.1-0.1-4.2,0.7-6.1c2.2-5,8.9-5.4,14.4-6.1
	c6.1-0.7,12.1-2.6,17.6-5.5c3.1-1.6,6.1-3.8,7.9-7c1.6-2.9,1.7-6.2,1.9-9.4l1.9-34c0.2-2.9,0.3-6-0.7-8.6
	c-2.6-6.9-11.2-9.1-18.6-8.8c-13.7,0.6-26.3,6.5-39.2,10.5c-3.2,1-6.4,1.8-9.7,2.5c-2.9,0.6-6.4,0.3-9.2,1.3
	c-4.9,1.6-4.8,12.4-5.4,16.8C665.6,358.3,664.9,367.1,665.2,375.8z"/>
<path style="fill:#535070;" d="M738,532.7c1.2,1.2,1.6,3,1.9,4.7c1.7,9.3,2.7,18.8,2.7,28.3c-0.1,0.9,0.1,1.8,0.5,2.6
	c0.3,0.4,0.8,0.9,1.3,1c3.5,1.6,7.5-0.7,10.4-3.2c5.4-4.7,9.9-11.1,10.2-18.2c-0.1-1.8,0-3.7,0.2-5.5c0.4-2.7,2.1-5,3.5-7.4
	c2.3-4,4.2-8.3,5.6-12.7c0.5-1.6,0.9-3.7-0.4-4.9c-0.4-0.3-1-0.6-1.6-0.8l-15.7-5.8c-1.4-0.5-4.8,8.2-5.3,9.2
	c-1.3,2.3-2.6,3.6-5.3,4.2c-2.7,0.5-5.9-0.3-8.4,1.1C733.5,527.5,735.6,530.3,738,532.7z"/>
<path style="fill:#535070;" d="M713.8,538.1c-0.3-0.6-0.7-1.1-1.2-1.6c-0.7-0.4-1.6-0.8-2.4-0.8c-3-0.5-6.6-0.9-8.6,1.4
	c-1.9,2.1-1.6,5.4-3.2,7.8c-0.5,0.8-1.2,1.4-1.6,2.2c-0.5,1.2-0.8,2.5-0.7,3.8c-0.1,3.6-0.2,7.3,0.1,10.9c0.2,3,0.7,6.2,2.6,8.6
	c3,3.8,8.6,4.3,13.4,4.6l4,0.2c1.1,0.2,2.2,0,3.2-0.3c1.3-0.6,2.3-1.7,2.8-3.1c2.1-5.1-1.2-10.6-3.2-15.7
	C716.6,550.2,716.9,543.7,713.8,538.1z"/>
<path style="fill:#3F3D56;" d="M681.1,162.1c-0.1-0.5,0-1,0.3-1.6c0.6-1,2.1-0.8,3.2-0.4c4.6,1.1,9.4,0.1,14.1,0.3s10,2.6,11,7.3
	c3.5-2.4,6.4-5.4,8.7-8.9c1.3-2,2.4-4.2,2.2-6.6c-0.3-3.4-3.1-5.9-5.7-8l-7.9-6.4c-1-1-2.2-1.7-3.5-2.2c-1.8-0.6-3.8-0.3-5.7-0.3
	c-5.7,0-11.8-2.6-16.9,0c-2.2,1.1-3.7,2.9-5.3,4.8l-7,8.3c-0.5,0.5-1,1.2-1.1,1.9c-0.2,1,0.3,2,0.5,3c0.3,1.8-0.4,3.8,0.2,5.6
	c1,2.9,4.6,3.4,6.8,5.1c0.8,0.6,2.1,2.8,3.1,2.8C679.8,166.6,681,163.5,681.1,162.1z"/>
<circle style="fill:#A0616A;" cx="692.9" cy="164.1" r="22.4"/>
<path style="fill:#3F3D56;" d="M698.2,213.2c-1.6-4.5-5.9-7.4-10.6-7.3c-0.7,0.1-1.4,0-2-0.3c-0.3-0.3-0.6-0.6-0.8-1
	c-1.4-2.4-2.4-5-3.3-7.7c-0.3-1.2-0.9-2.6-2.1-2.9c-1-0.2-2,0.3-2.6,1.1s-1.2,1.6-1.9,2.3c-2.9,2.5-7.8,0.3-10.8,2.5
	c-0.5,0.3-0.9,0.9-1.4,1.2s-1,0.5-1.6,0.7c-5.8,1.9-11.4,4.1-17,6.7c2,12,4.1,24.2,8.7,35.5c2.2,5.4,4.8,10.6,6.5,16.1
	c4,12.2,4.2,25.3,4.2,38.1c0,8.7,0,17.7-2.9,26c-0.8,1.8-1.3,3.7-1.6,5.7c-0.2,2,0.4,4.2,2,5.4c1,0.6,2,1,3.1,1.1
	c4.9,0.7,9.9-0.6,14.7-1.7c13-3,26.2-4.8,39.4-6.4l22.1-2.9c1.6-0.1,3.1-0.5,4.6-1.2c4.1-2.2,4.4-8.3,1.9-12.2
	c-1.2-1.8-2.9-3.4-3.9-5.4s-1.1-4.8,0.6-6.1c3.5-2.8,2.5-8,2.7-12.5c0.4-12.6,0.4-25.2-0.2-37.8c-0.2-2.6-0.3-5.2-0.1-7.9
	c0.4-4.4,1.2-8.8,2.4-13.1l6.7-26.5c-1.7-2.8-5.1-4.5-8.3-5.4s-6.5-1-9.7-2c-6.4-2-12.2-7.1-18.9-6.6c-0.5,0-1,0.2-1.5,0.3
	c-1.6,0.9-1.3,3-1.4,4.8c-0.2,3.8-3,7.1-6.1,9.3s-6.7,3.9-9.6,6.5C698.9,210.7,698.3,211.9,698.2,213.2z"/>
<path style="fill:#A0616A;" d="M609.4,238.3c-1.5,1-3,1.8-4.8,2.4c-1.6,0.5-3.1,1.2-4.5,2.2c-0.6,0.5-1.1,1.2-1.6,1.9
	c-2.3,4.2-0.9,9.4,3.3,11.8c1.4,0.8,3,1.2,4.7,1.1c2.1-0.3,4.1-0.9,5.9-1.7l15.8-6.8c2.7-1.1,5.5-2.5,6.8-5.2
	c0.2-0.3,0.2-0.5,0.2-0.8c-0.1-0.3-0.3-0.5-0.7-0.7c-3.5-2.3-6.7-5.3-9.2-8.6c-0.7-0.9-1.5-2.9-2.3-3.5
	C619.6,228.4,612.1,236.6,609.4,238.3z"/>
<path style="fill:#A0616A;" d="M778.5,232.7l5.8,6.7c1.2,1.5,2.5,2.9,3.6,4.4c2.8,3.9,5,8.1,6.7,12.5c1.3,3.3,2.3,6.8,1.9,10.4
	c-0.3,1.8-0.8,3.5-1.5,5.3c-1,3.3-2.4,6.5-4,9.5c-1.3,2.3-2.8,4.6-4.5,6.7c-4.5,6-9.4,11.7-14.8,17c-2,2-2.9,5.2-3.7,7.9
	c-1.6,4.9-5.4,8.7-9.1,12.4c-1.2,1.2-2.5,2.3-3.9,3.4c-2.1,1.4-4.6,2.1-7.1,2c-1.1,0-2.2-0.3-3.2-0.7c-2.5-1.2-3.8-4.2-4.1-6.9
	c-0.3-2.5,0.2-5.1,1.2-7.4c3.4-7.4,11.9-10.6,18-16c3.5-3.2,6.3-7.2,9-11.1c1.8-2.4,3.4-5.1,4.5-8c1.4-3.6,0.9-7.9,2-11.6
	c0.5-1.6,1.4-2.9,1.9-4.5s0.7-3.4-0.3-4.7c-0.7-0.9-1.6-1.5-2.7-1.9c-3.9-2-8.2-4.5-9-8.8c-0.3-2.3,0.3-4.8,1.7-6.7s3-3.6,4.9-5.1
	C773.9,235.9,776.7,234.3,778.5,232.7z"/>
<path style="fill:#A0616A;" d="M605.6,247.7c-1-2.1-2.3-4.2-4.4-5.3c-2.1-0.9-4.3-0.9-6.4,0c-2,0.9-3.9,2-5.6,3.4l-5,3.7
	c-1.1,0.8-2.2,1.6-3,2.8c-0.8,1.3-1.3,2.8-1.6,4.2c-0.9,3.5-1.1,7-0.8,10.6c0.8,5.7,4.2,10.6,8,15c2.3,2.7,5.3,5.4,8.8,5.5
	c1.6,0.1,3.3-0.5,3.9-2c0.3-0.5,0.3-1.1,0.3-1.7c0.3-6.3-1.9-12.5-4.5-18.2c-0.9-1.5-1.3-3.2-1.5-4.9c0-0.3,0.1-0.6,0.2-0.9
	c0.3-0.3,0.5-0.3,0.9-0.4c3.6-0.7,9.9,2.1,12.4-1.9C609.1,254.8,606.8,250,605.6,247.7z"/>
<path style="fill:#3F3D56;" d="M679.9,155c-0.1-0.5,0-1,0.3-1.6c0.6-1,2.1-0.8,3.2-0.4c4.6,1.1,9.4,0.1,14.1,0.3s10,2.6,11,7.3
	c3.5-2.4,6.4-5.4,8.7-8.9c1.3-2,2.4-4.2,2.2-6.6c-0.3-3.4-3.1-5.9-5.7-8l-7.9-6.4c-1-1-2.2-1.7-3.5-2.2c-1.8-0.6-3.8-0.3-5.7-0.3
	c-5.7,0-11.8-2.6-16.9,0c-2.2,1.1-3.7,2.9-5.3,4.8l-7,8.3c-0.5,0.5-1,1.2-1.1,1.9c-0.2,1,0.3,2,0.5,3c0.3,1.8-0.4,3.8,0.2,5.6
	c1,2.9,4.6,3.4,6.8,5.1c0.8,0.6,2.1,2.8,3.1,2.8C678.7,159.5,679.9,156.4,679.9,155z"/>
<path style="fill:#3F3D56;" d="M632.3,216.5c-0.9,0.6-1.7,1.3-2.3,2.2c-0.9,1.2-1,2.9-1.7,4.2c-1.5,2.8-5,3.8-7.3,6.1
	c-0.3,0.3-0.6,0.7-0.7,1.2c0,0.6,0.2,1.2,0.6,1.7l10.6,16.7c3.5,0.3,6.9-1.9,10.5-1.6c1.3,0.1,2.7,0.6,4,0.2c0.9-0.4,1.7-1,2.5-1.6
	c2.1-1.3,4.9-1.5,6.7-3.3c1.7-1.7,1.9-4.3,1.9-6.7c0-2.1-0.2-4.2-0.6-6.2c-1.6-6.4-6.5-11.3-9.5-17c-1.5-2.8-2.3-4.4-5.4-2.5
	C638.2,211.8,635.3,214.4,632.3,216.5z"/>
<path style="fill:#3F3D56;" d="M761.4,208.1c2,1.3,3.8,2.9,5.4,4.7c1.6,2.1,2.5,4.7,4.1,6.7c1.5,2.1,3.5,3.6,5.3,5.6
	c2.6,2.9,4.3,6.4,6.1,9.9c-4.2,5.5-8.8,10.7-13.8,15.6c-0.5,0.6-1.3,1.1-2.1,1.4c-1.1,0.1-2.2-0.3-2.9-1.2c-0.8-0.8-1.3-1.8-2.1-2.6
	c-1.7-1.8-4.1-2.9-6.5-3.1s-4.9-0.3-7.4-0.1c-0.5,0.1-1.1,0-1.6-0.3c-0.3-0.3-0.7-0.6-0.9-1c-2.9-4.9-2-11.1-1-16.6l2.3-12.8
	c0.3-2.4,1-4.8,1.9-7.1c0.9-1.9,2.9-5.1,5.3-4.5C756.2,203,759.4,206.6,761.4,208.1z"/>
<ellipse style="fill:#FFFFFF;" cx="334.8" cy="256.8" rx="35.5" ry="35.5"/>
<path style="fill:#57B894;" d="M334.8,215.2c-23.4,0-42.4,18.9-42.4,42.4s18.9,42.4,42.4,42.4s42.4-18.9,42.4-42.4
	C377.1,234.3,358.2,215.3,334.8,215.2z M326.1,280.2l-21.7-21.7l6.1-6.1l15.7,15.7l33-33l6.1,6.1L326.1,280.2L326.1,280.2z"/>
</svg>
