<?xml version="1.0" encoding="utf-8"?>
<!-- Generator: Adobe Illustrator 24.0.1, SVG Export Plug-In . SVG Version: 6.00 Build 0)  -->
<svg version="1.1" id="e1b1e002-d924-4d22-bacb-5c9d93bf569d"
	 xmlns="http://www.w3.org/2000/svg" xmlns:xlink="http://www.w3.org/1999/xlink" x="0px" y="0px" viewBox="0 0 1119 732.1"
	 style="enable-background:new 0 0 1119 732.1;" xml:space="preserve">
<ellipse style="opacity:0.1;fill:#BBBABA;enable-background:new    ;" cx="559.5" cy="644.1" rx="559.5" ry="88"/>
<polygon style="fill:#F86D70;" points="927.3,473 927.3,534 911.2,566.5 911.2,566.5 910.7,567.5 868,564.7 851.6,563.6 
	813.5,561.1 813.5,488.2 851.6,489.2 868.6,489.7 911.7,490.9 "/>
<polygon style="opacity:0.1;enable-background:new    ;" points="927.3,476.6 927.3,534 923.4,541.9 923.4,541.9 919.3,550.1 
	919.3,550.1 911.2,566.5 912.1,505.5 912.3,493.2 920,484.6 920,484.6 923.4,480.9 "/>
<polygon style="fill:#F86D70;" points="929.5,456.8 929.5,478.1 927.3,481.6 923.4,487.8 920,493.3 912.3,505.5 912.1,505.5 
	810.1,500.3 810.1,479.3 810.4,479 822.6,465.8 827,461 835,452.4 "/>
<polygon style="opacity:0.1;enable-background:new    ;" points="912.3,484.5 912.3,505.5 810.1,500.3 810.1,479.3 810.4,479 "/>
<polygon style="opacity:0.15;enable-background:new    ;" points="929.5,456.8 929.5,478.1 912.3,505.5 912.3,484.5 "/>
<polygon style="fill:#3F3D56;" points="923.4,466.6 923.4,480.9 923.4,487.8 923.4,541.9 923.4,541.9 919.3,550.1 920,493.3 
	920,484.6 920,484.6 920.2,471.8 822.6,465.8 827,461 "/>
<polygon style="fill:#3F3D56;" points="875.5,467.3 868.7,482.1 868.6,489.7 868,564.7 851.6,563.6 851.6,481.2 860.3,467.3 "/>
<path style="fill:#3F3D56;" d="M853,468.3c-4,1.3-8.2,1.5-12.2,0.4c-0.8-0.2-1.5-0.5-2.1-1c-0.7-0.7-1.1-1.6-1.3-2.6
	c-0.7-2-1.1-4.1-1.2-6.3c0-2.2,0.9-4.3,2.6-5.6c0.4-0.2,0.7-0.5,1-0.8c0.4-0.5,0.6-1,0.8-1.6c1.2-3.6,3.5-7.3,7.2-7.9
	c3.4-0.5,6.5,1.9,9.2,4.1l5.8,4.9c1.8-4.7,7-7.2,11.8-5.4c2.4,0.9,4.3,2.8,5.3,5.2c3.5-4,7.9-7,12.9-8.9c1.1-0.5,2.3-0.6,3.4-0.1
	c0.6,0.5,1.1,1.1,1.3,1.8c1.6,3.5,2.4,7.2,2.5,11c0.8-0.3,1.8,0,2.2,0.8c0.4,0.7,0.7,1.6,0.7,2.4c0.2,1.3,0.2,2.7,0.2,4
	c0.1,1.4-0.2,2.8-1,4c-1.2,1.4-3.2,1.5-5,1.6c0.9,0.8,0.5,2.3-0.5,3c-1,0.6-2.2,0.8-3.4,0.7c-4.5,0-9.3-0.2-13.1-2.7
	c-1.5-1-2.7-2.3-4.2-3.3c-3.6-2.4-8.2-2.5-12.4-2.3C859.6,463.9,856.6,467.1,853,468.3z"/>
<path style="fill:#3F3D56;" d="M852.2,467.3c0,0-37.7,5.2-42.9,28l7.9-1.2l5.5,9.9c0,0,5.8-22.2,23.1-27.4s23.3-6.1,23.3-6.1
	s12,2.9,22.8,37.7l6.1-8.5l10.8,2.3c0,0-7.9-27.2-29.2-34.7L852.2,467.3z"/>
<polygon style="fill:#BBBABA;" points="874.7,496.8 874.7,579.2 852.9,623.2 852.9,623.2 852.2,624.6 794.6,620.8 772.4,619.3 
	721,615.9 721,517.3 772.4,518.8 795.4,519.4 853.6,521.1 "/>
<polygon style="opacity:0.1;enable-background:new    ;" points="874.7,501.7 874.7,579.2 869.4,590 869.4,590 863.9,601 863.9,601 
	852.9,623.2 854.2,540.8 854.4,524.2 864.9,512.6 864.9,512.6 869.4,507.5 "/>
<polygon style="fill:#BBBABA;" points="877.7,475 877.7,503.7 874.7,508.5 869.4,516.9 864.8,524.3 854.4,540.8 854.2,540.8 
	716.4,533.7 716.4,505.3 716.8,504.9 733.2,487.1 739.2,480.7 749.9,469 "/>
<polygon style="opacity:0.1;enable-background:new    ;" points="854.4,512.4 854.4,540.8 716.4,533.7 716.4,505.3 716.8,504.9 "/>
<polygon style="opacity:0.15;enable-background:new    ;" points="877.7,475 877.7,503.7 854.4,540.8 854.4,512.4 "/>
<polygon style="fill:#3F3D56;" points="869.5,488.2 869.4,507.5 869.4,516.9 869.4,590 869.4,590 863.9,601 864.8,524.3 
	864.9,512.6 864.9,512.6 865.1,495.3 733.2,487.1 739.2,480.7 "/>
<polygon style="fill:#3F3D56;" points="804.7,489.2 795.5,509.2 795.4,519.4 794.6,620.8 772.4,619.3 772.4,507.9 784.2,489.2 "/>
<path style="fill:#3F3D56;" d="M774.3,490.5c-5.3,1.8-11.1,2-16.5,0.6c-1.1-0.2-2.1-0.7-2.9-1.3c-0.9-1-1.5-2.2-1.8-3.5
	c-1-2.7-1.5-5.6-1.6-8.5c0.1-2.9,1.2-5.9,3.5-7.6c0.5-0.3,0.9-0.6,1.3-1c0.5-0.6,0.8-1.3,1-2.1c1.6-4.8,4.7-9.9,9.8-10.7
	c4.6-0.7,8.8,2.5,12.4,5.6l7.8,6.7c2.4-6.4,9.5-9.7,15.9-7.3c3.3,1.2,5.8,3.7,7.1,7c4.7-5.4,10.7-9.5,17.4-12c1.5-0.6,3.2-1,4.6-0.2
	c0.8,0.6,1.5,1.5,1.8,2.4c2.1,4.7,3.3,9.7,3.4,14.9c1.1-0.4,2.3,0,3,1c0.6,1,0.9,2.1,1,3.3c0.2,1.8,0.3,3.6,0.3,5.4
	c0,1.9-0.2,4-1.4,5.4c-1.6,1.9-4.4,2.1-6.8,2.1c1.2,1,0.6,3.2-0.7,4c-1.4,0.8-3,1.1-4.6,0.9c-6.1-0.1-12.6-0.2-17.7-3.6
	c-2-1.3-3.7-3.1-5.7-4.4c-4.9-3.3-11.1-3.4-16.8-3.1C783.3,484.6,779.2,488.9,774.3,490.5z"/>
<path style="fill:#3F3D56;" d="M773.2,489.2c0,0-50.9,7.1-58,37.8l10.7-1.6l7.5,13.4c0,0,7.9-30,31.2-37.1s31.5-8.3,31.5-8.3
	s16.2,3.9,30.8,50.9l8.3-11.4l14.6,3.2c0,0-10.7-36.7-39.4-46.9L773.2,489.2L773.2,489.2z"/>
<polygon style="fill:#3F3D56;" points="957.2,537.8 957.2,588.8 943.8,616 943.8,616 943.3,616.8 907.7,614.5 893.9,613.6 
	862.1,611.5 862.1,550.5 893.9,551.3 908.2,551.8 944.2,552.8 "/>
<polygon style="opacity:0.1;enable-background:new    ;" points="957.2,540.8 957.2,588.8 954,595.4 954,595.4 950.6,602.2 
	950.6,602.2 943.8,616 944.5,565 944.7,554.7 951.2,547.5 951.2,547.5 954,544.4 "/>
<polygon style="fill:#3F3D56;" points="959.1,524.2 959.1,542 957.2,545 954,550.2 951.1,554.8 944.7,565 944.5,565 859.3,560.6 
	859.3,543 859.5,542.8 869.7,531.8 873.4,527.8 880,520.6 "/>
<polygon style="opacity:0.1;enable-background:new    ;" points="944.7,547.4 944.7,565 859.3,560.6 859.3,543 859.5,542.8 "/>
<polygon style="opacity:0.15;enable-background:new    ;" points="959.1,524.2 959.1,542 944.7,565 944.7,547.4 "/>
<polygon style="fill:#BBBABA;" points="954,532.4 954,544.4 954,550.2 954,595.4 954,595.4 950.6,602.2 951.1,554.8 951.2,547.5 
	951.2,547.5 951.3,536.8 869.7,531.8 873.4,527.8 "/>
<polygon style="fill:#BBBABA;" points="913.9,533 908.2,545.4 908.2,551.8 907.7,614.5 893.9,613.6 893.9,544.6 901.2,533 "/>
<path style="fill:#BBBABA;" d="M895.1,533.9c-3.3,1.1-6.9,1.2-10.2,0.4c-0.7-0.1-1.3-0.4-1.8-0.8c-0.6-0.6-0.9-1.4-1.1-2.2
	c-0.6-1.7-0.9-3.5-1-5.3c0-1.8,0.8-3.6,2.2-4.7c0.3-0.2,0.6-0.4,0.8-0.6c0.3-0.4,0.5-0.8,0.6-1.3c1-3,2.9-6.1,6-6.6
	c2.9-0.4,5.5,1.6,7.7,3.4l4.8,4.1c1.5-4,5.9-6,9.8-4.5c2,0.8,3.6,2.3,4.4,4.3c2.9-3.3,6.6-5.8,10.8-7.4c0.9-0.5,1.9-0.5,2.8-0.1
	c0.5,0.4,0.9,0.9,1.1,1.5c1.3,2.9,2,6,2.1,9.2c0.7-0.2,1.5,0,1.9,0.6s0.6,1.3,0.6,2c0.1,1.1,0.2,2.2,0.2,3.3
	c0.1,1.2-0.2,2.4-0.9,3.3c-1,1.2-2.7,1.3-4.2,1.3c0.6,0.7,0.5,1.8-0.3,2.4c-0.1,0-0.1,0.1-0.2,0.1c-0.9,0.5-1.9,0.7-2.8,0.5
	c-3.8,0-7.8-0.1-10.9-2.2c-1.2-0.8-2.3-1.9-3.5-2.8c-3-2-6.9-2.1-10.4-1.9C900.7,530.2,898.1,532.8,895.1,533.9z"/>
<path style="fill:#BBBABA;" d="M894.4,533c0,0-31.5,4.4-35.9,23.4l6.6-1l4.6,8.3c0,0,4.9-18.5,19.3-22.9s19.5-5.1,19.5-5.1
	s10,2.4,19,31.5l5.1-7.1l9,2c0,0-6.6-22.7-24.4-29L894.4,533z"/>
<linearGradient id="SVGID_1_" gradientUnits="userSpaceOnUse" x1="728.9263" y1="108.8206" x2="728.9263" y2="745.0372" gradientTransform="matrix(1 0 0 -1 -40.5 783.3456)">
	<stop  offset="0" style="stop-color:#808080;stop-opacity:0.25"/>
	<stop  offset="0.54" style="stop-color:#808080;stop-opacity:0.12"/>
	<stop  offset="1" style="stop-color:#808080;stop-opacity:0.1"/>
</linearGradient>
<path style="fill:url(#SVGID_1_);" d="M831.1,165.9c-1.1-6.7-21.9-21.2-21.9-21.2s-9.2-5-14-10.8c-3.1-3.7-4.1-3.6-4.4-3.1
	c-0.2-0.1-0.4-0.2-0.7-0.2c-0.2-0.1-0.4-0.3-0.6-0.4l0,0c0.1-0.6-0.2-1.1-0.8-1.4c-0.2-0.2-0.5-0.3-0.7-0.5
	c-1.6-2.7-2.1-6.5-2.3-9.8c-0.2-4.2-5-3.1-6.5-2.7c-1.1-2.1-2.2-4.3-3.2-6.5c0.4-0.7,0.8-1.5,1-2.3c2.9-6.4,2.3-13.7,3.5-20.5
	c0.9-4.9,2.8-10,2.4-14.8c0-0.1,0-0.2,0-0.4c0,0,0,0,0,0.1c-0.1-1.2-0.4-2.4-0.8-3.5c-0.8-2.1-2.3-4-3-6.2c-1-3.2-0.4-6.8-1.2-10.1
	c-1.1-4.1-4.5-7.4-8.4-9.2s-8.2-2.5-12.5-3c-10.7-1.4-22-2.2-31.8,2.4c-0.9,0.5-1.9,0.8-3,0.8c-1-0.3-1.9-0.7-2.7-1.3
	c-2.6-1.3-5.9-0.5-8.2,1.3s-3.9,4.3-5.5,6.8s-3.2,5-5.7,6.6c-2.8,1.9-6.6,2.6-8.8,5.2c-1,1.2-1.7,2.7-1.8,4.3c0,0,0,0,0-0.1
	c0,0.2,0,0.4,0,0.6s0,0.3,0,0.5s0,0.2,0,0.4c0,0.4,0,0.8,0,1.3c0.3,2.4,0.9,4.8,1.9,7.1c0.5,1.7,1.3,3.2,2.6,4.5
	c3.4,2.8,8.8,0.2,13,1.7c0.3,0.1,0.7,0.3,1,0.5l-0.2,0.5c-5.2,18,5.2,36.9,23.2,42.1c3.2,0.9,6.4,1.4,9.7,1.3c0.7,0,1.4,0,2.1-0.1
	c0.1,0.4,0.2,0.7,0.3,1.1c1.1,4.2,1.4,8.5,1,12.7l-0.2-1.9c-0.5-0.2-0.9-0.4-1.4-0.6c-1.4-0.5-2.8-0.7-4.2-0.6
	c-4.7-0.1-11.7,1.8-19.1,11.1c0,0-9.5,5.4-12.3,6.7c-0.2,0.1-0.4,0.4-0.5,0.6l0,0c0,0-12.6,19.6-13.9,27l-0.2,1l-21.4-1
	c-0.1-5.3-1.4-10.6-3.6-15.4c-0.4-1-1.1-1.9-1.9-2.6c-1.4-0.9-3.3-0.4-4.9,0.2c-7.1,2.6-13.5,7-18.5,12.6
	c-2.8-6.7-10.5-9.9-17.2-7.2c-3.4,1.4-6,4.1-7.3,7.5l-8.3-7c-3.8-3.2-8.3-6.6-13.2-5.9c-5.3,0.8-8.7,6.2-10.4,11.3
	c-0.2,0.8-0.6,1.6-1.1,2.2c-0.1,0.1-0.2,0.2-0.3,0.3l-6.6-0.3L566,190.1l-6.3,6.8l-17.5,18.8l-0.4,0.4v18.8
	c-0.5,1.4-0.9,2.8-1.3,4.2l1.3-0.2v7.3l4.8,0.2V333l54.7,3.6l23.6,1.5l41.7,2.7c0,3.9,1.6,9.5,5.1,11.6c0.9,0.6,1.7,1.3,2.3,2.1
	c-0.2,0.4-0.4,0.7-0.5,1.1c-1.7,3.5-3.2,7.3-2.9,9.7c0.3,3-0.4,6.1-2,8.6c0,0-12.6,39.7-12.3,51.2c0.3,11.4-4.5,36.5-4.5,36.5
	s-5.2,16.2-2.1,20.8s6.6,24.7,6.6,24.7s2.4,4.6,2.2,8.5c-0.2,3.9,2.2,11,2.2,11l7.9,28.9c0,0-0.8,7.7,2.1,13.1s2.7,3.8,1.3,13.2
	s1.7,18.3,6.7,21.1c2,1.1,2.1,2.7,1.5,4.3l0,0c-1.3-0.5-2.4,2.2-3,4.4c-0.4,0.4-0.7,0.6-0.7,0.6l0.4,0.1c-0.3,1-0.4,1.8-0.4,1.8
	s-13.2,11.2-14,15.2s-10.1,6.1-10.1,6.1s-14,3.9-17.7,5.9c-2.2,1-3.6,3.1-3.9,5.4c-0.2,1.8,0,3.7,0.5,5.5c1.4,5.7,21.1,6.3,30.5,4.8
	s28.9-7.1,28.9-7.1s20.5-2,26.5-4.5s1.3-8.9,1.3-8.9s0-0.2,0-0.6c0.2-2.3,0.6-10.8-0.9-13.1c-1.1-1.7-1.1-6-0.9-8.7
	c4.1-7.5-4.7-30-4.7-30s1.7-22,0.6-25.2s-5.9-30.5-5.9-30.5s-3-12.4-1.8-14.5s-0.7-8.1-0.7-8.1s-4.8-6.7-4.3-8.8s-1.4-5.9-1.4-5.9
	s14.3-21.8,13-25.8s0.6-10.6,0.6-10.6l4-6.8c2.7-4.5,5.9-10,7-11.6c1.4-2.2,4.7-11.3,6.5-16.6c0.8-2.2,1.3-3.8,1.3-3.8
	s2.2,41,4.2,45.2s4.9,37.2,4.9,37.2c1.1,2.9,1.6,6.1,1.4,9.2c-0.3,5.2,4.5,27.6,4.5,27.6s2.1,15.9,0.7,20.1s-0.3,35-0.3,35
	s-7.7,6-9.7,10.6s0.3,17.2,0.3,17.2l0.9,0.4c-0.7,1.7-1.3,3.6-1.6,5.4c-0.3,2.7-4.5,14.7-4.1,16.3s-1.8,6.8-2.1,9.5s-3.8,6.6-4.1,8
	c-0.4,1.3-1,2.5-1.5,3.7c-0.8,1.8-1.4,3.7-1.8,5.7c-1.4,5.8,15.3,6.8,15.3,6.8c24.7,4.6,29.2-14.2,29.2-14.2s3.1-16.7,4.2-18
	c0.3-0.5,0.3-1.1,0.2-1.6l0,0c-0.6-2.8-1.9-5.5-3.6-7.9c-0.8-0.9-0.8-3.3-0.7-5.5c0.7-0.1,1.4-0.2,2.1-0.4c10-2.9,5.9-19.8,5.9-19.8
	s6.7-11.2,6.7-15.5s2.4-17.6,2.4-17.6c8.6-15.6,5.2-53.5,6.6-56.6s-3-14.5-6.5-19.7s-2.1-19.1,0-23.2s-2.1-18-2.1-18
	s4.1-27.1,3.9-31.2s3.5-16.6,3.5-16.6s3.7-6.4,2.8-8.4s2.8-7,1.8-9.2s0.8-9.1,2.7-13.1c0.9-2.1,2.1-7.8,3-12.9l0.3-1.7
	c4.1,2.6,7.8,4.6,9.2,4.1c2.5-1-1.5-14-4.2-22.1c0.5-0.4,0.7-0.6,0.5-0.8c-1.7-1.1,0.2-6.1,0.2-6.1c9.9-6,6.5-10.4,3.4-13
	s-1.1-10-2.1-13s1.1-16.5,2.8-26.4c0.3-2.1,0.3-4.3-0.1-6.5c1.8-2.8,3.7-5.7,5.3-8.4c5.6-9.3,17.6-53.5,17.6-53.5l-0.1-0.2
	c1.2-2.4,2-4.3,2.5-5.5C838.9,201.6,832.2,172.6,831.1,165.9z M743.9,140.5l0.3-0.1c0,0.1,0,0.1,0,0.2L743.9,140.5z M689.4,615.2
	c-0.6,0-1.2-0.1-1.8-0.3L689.4,615.2z"/>
<path style="fill:#FEC2BE;" d="M580.6,293.4c8.2,3.1,27.4,3.5,35.9,3.5c2.6,0,4.2,0,4.2,0l5.5-11.1l-5.5-9.2c0,0-5-1.4-11.6-2.6
	c-9.8-1.8-23.2-3.1-29.6,0.8C568.6,281.4,569.8,289.3,580.6,293.4z"/>
<path style="opacity:0.1;enable-background:new    ;" d="M616.4,296.8c2.6,0,4.2,0,4.2,0l5.5-11.1l-5.5-9.2c0,0-5-1.4-11.6-2.6
	C614.3,277.9,627.3,286.4,616.4,296.8z"/>
<path style="fill:#616160;" d="M706.7,160.6l-2.4-2.8c0,0-12.4,19.6-13.7,27s-3,15.9-3,15.9s-3.1,9.6-5.1,13.9s-3.9,8.3-4.1,10.2
	s0.7,5.9-3.2,8.5s-4.8,9.6-4.8,9.6s-14,13.7-21.5,14s-28.7,4.1-27.9,7.8s-8.9,5.9-12.8,6.8s25,12,8.1,26.3c0,0,10.7,2.2,11.8,4.8
	s12.4-1.5,12.4-1.5s2.4-5.7,10.7-6.1s12.6-4.1,12.6-4.6s8.3-5.2,13-6.5s10.7-1.9,10.9-3.1s27.7-120.2,27.7-120.2L706.7,160.6z"/>
<path style="opacity:5.000000e-02;enable-background:new    ;" d="M706.7,160.6l-2.4-2.8c0,0-12.4,19.6-13.7,27s-3,15.9-3,15.9
	s-3.1,9.6-5.1,13.9s-3.9,8.3-4.1,10.2s0.7,5.9-3.2,8.5s-4.8,9.6-4.8,9.6s-14,13.7-21.5,14s-28.7,4.1-27.9,7.8s-8.9,5.9-12.8,6.8
	s25,12,8.1,26.3c0,0,10.7,2.2,11.8,4.8s12.4-1.5,12.4-1.5s2.4-5.7,10.7-6.1s12.6-4.1,12.6-4.6s8.3-5.2,13-6.5s10.7-1.9,10.9-3.1
	s27.7-120.2,27.7-120.2L706.7,160.6z"/>
<path style="fill:#CA8496;" d="M735.5,673.7c24.4,4.6,28.8-14.1,28.8-14.1s3-16.6,4.2-17.9c0.3-0.5,0.3-1.1,0.2-1.6l0,0
	c-0.6-2.8-1.8-5.5-3.5-7.8c-1.5-1.8-0.3-9.3-0.3-9.3l-28.3-7.2c0,0-2.5,5.7-2.8,8.3s-4.4,14.6-4,16.2s-1.8,6.8-2.1,9.4
	s-3.7,6.5-4,7.9c-0.4,1.2-0.9,2.5-1.5,3.7c-0.8,1.8-1.4,3.7-1.8,5.6C719,672.8,735.5,673.7,735.5,673.7z"/>
<path style="opacity:0.1;enable-background:new    ;" d="M735.5,673.7c24.4,4.6,28.8-14.1,28.8-14.1s3-16.6,4.2-17.9
	c0.3-0.5,0.3-1.1,0.2-1.6l-5.9,16.8c0,0-4.8,10.1-22.9,8.6c-10.3-0.9-15.3-2.8-17.8-4.2c-0.8,1.8-1.4,3.7-1.8,5.6
	C719,672.8,735.5,673.7,735.5,673.7z"/>
<path style="opacity:0.1;enable-background:new    ;" d="M754.5,647.4c0,0-6.1,0.1-6.5-4.8L754.5,647.4z"/>
<path style="fill:#616160;" d="M648.4,483.5c3,4.6,6.5,24.5,6.5,24.5s2.4,4.6,2.2,8.5s2.2,11,2.2,11l7.8,28.7c0,0-0.8,7.6,2.1,13
	s2.6,3.8,1.2,13.2s1.7,18.2,6.7,20.9s-2.2,9.3-2.2,9.3s31.9,8.6,38.6,3.3s-3.5-31.3-3.5-31.3s1.7-21.9,0.6-25.1s-5.8-30.4-5.8-30.4
	s-2.9-12.3-1.8-14.4s-0.7-8-0.7-8s-4.7-6.7-4.3-8.7s-1.4-5.8-1.4-5.8s14.1-21.6,12.9-25.7S710,456,710,456s1.8-3.1,3.9-6.7
	c2.6-4.5,5.8-9.9,6.9-11.6c1.4-2.2,4.6-11.2,6.5-16.5l1.3-3.8c0,0,2.2,40.8,4.2,44.9s4.8,37,4.8,37c1.1,2.9,1.5,6,1.4,9.2
	c-0.3,5.1,4.4,27.5,4.4,27.5s2.1,15.8,0.7,20s-0.3,34.8-0.3,34.8s-7.6,6-9.6,10.5s0.3,17.1,0.3,17.1s22.2,11.1,32,8.2
	s5.8-19.7,5.8-19.7s6.7-11.1,6.7-15.4s2.4-17.5,2.4-17.5c8.5-15.5,5.1-53.3,6.5-56.3s-2.9-14.4-6.3-19.5s-2.1-19,0-23
	s-2.1-18-2.1-18s4-26.9,3.9-31.1s3.5-16.5,3.5-16.5s3.6-6.4,2.8-8.3s2.8-6.9,1.8-9.2s0.8-9,2.6-13c0.9-2.1,2.1-7.7,3-12.8
	c0.8-4.8,1.5-9,1.5-9l-22.9-18.4l-57.1-15l-21.5-6.9l-20.9,33c0,0-2.2,3.5-4.1,7.4c-1.6,3.4-3.1,7.3-2.8,9.6c0.3,3-0.3,6-1.9,8.6
	c0,0-12.5,39.6-12.2,50.9s-4.4,36.3-4.4,36.3S645.3,478.9,648.4,483.5z"/>
<polygon style="fill:#BBBABA;" points="708.1,209.8 708.1,296.3 685.2,342.5 685.2,342.5 684.5,343.9 623.9,339.9 600.7,338.4 
	546.6,334.8 546.6,231.3 600.7,232.8 624.8,233.5 686,235.2 "/>
<polygon style="opacity:0.1;enable-background:new    ;" points="708.1,214.9 708.1,296.3 702.5,307.6 702.5,307.6 696.8,319.1 
	696.8,319.2 685.2,342.5 686.5,255.9 686.8,238.5 697.8,226.3 697.8,226.3 702.6,221 "/>
<polygon style="fill:#BBBABA;" points="711.2,186.8 711.2,217 708.1,222 702.6,230.8 697.6,238.6 686.8,255.9 686.5,255.9 
	541.8,248.5 541.8,218.7 542.2,218.3 559.5,199.6 565.7,192.8 577,180.6 "/>
<polygon style="opacity:0.1;enable-background:new    ;" points="686.8,226.1 686.8,255.9 541.8,248.5 541.8,218.7 542.2,218.3 "/>
<polygon style="opacity:0.15;enable-background:new    ;" points="711.2,186.8 711.2,217 686.8,255.9 686.8,226.1 "/>
<polygon style="fill:#3F3D56;" points="702.6,200.7 702.6,221 702.6,230.8 702.5,307.6 702.5,307.6 696.8,319.1 697.6,238.6 
	697.8,226.3 697.8,226.3 698,208.1 559.5,199.6 565.7,192.8 "/>
<polygon style="fill:#3F3D56;" points="634.6,201.7 624.9,222.8 624.8,233.5 623.9,339.9 600.7,338.4 600.7,221.4 613.1,201.7 "/>
<path style="fill:#3F3D56;" d="M602.7,203.1c-5.6,1.9-11.6,2.1-17.3,0.6c-1.1-0.2-2.1-0.7-3-1.4c-0.9-1.1-1.6-2.3-1.9-3.7
	c-1-2.9-1.6-5.9-1.7-8.9c0.1-3,1.2-6.2,3.7-8c0.5-0.3,1-0.7,1.4-1.1c0.5-0.6,0.9-1.4,1.1-2.2c1.7-5.1,5-10.4,10.3-11.2
	c4.9-0.7,9.3,2.7,13,5.9l8.2,7c2.5-6.7,10-10.1,16.7-7.6c3.4,1.3,6.1,3.9,7.5,7.3c5-5.6,11.3-9.9,18.3-12.6c1.6-0.6,3.4-1.1,4.8-0.2
	c0.9,0.6,1.5,1.5,1.9,2.6c2.2,4.9,3.5,10.2,3.6,15.6c1.2-0.4,2.5,0.1,3.2,1.1c0.6,1,1,2.2,1.1,3.4c0.2,1.9,0.3,3.8,0.3,5.7
	c0,2-0.2,4.1-1.5,5.7c-1.7,2-4.6,2.2-7.2,2.2c1.2,1.1,0.6,3.3-0.7,4.3c-1.5,0.8-3.2,1.1-4.8,0.9c-6.4-0.1-13.2-0.2-18.5-3.8
	c-2.1-1.4-3.9-3.3-6-4.7c-5.2-3.4-11.7-3.6-17.6-3.3C612.1,196.9,607.8,201.4,602.7,203.1z"/>
<path style="fill:#3F3D56;" d="M601.5,201.7c0,0-53.4,7.5-60.9,39.8l11.2-1.6l7.9,14.1c0,0,8.3-31.5,32.7-38.9s33.1-8.7,33.1-8.7
	s17,4.1,32.3,53.4l8.7-12l15.3,3.3c0,0-11.2-38.5-41.4-49.3L601.5,201.7z"/>
<path style="fill:#B28787;" d="M732.9,162c0.9-0.4,61.2-25.3,52.9-30.2c-4.9-2.9-11-15.4-15.2-25.1c-2.9-6.8-4.9-12.3-4.9-12.3
	s-48.4-8.6-31.1,21.1c2.7,4.6,4.8,9.5,6.1,14.6C745.7,150.2,733.3,161.6,732.9,162z"/>
<path style="opacity:0.1;enable-background:new    ;" d="M734.7,115.4c2.7,4.6,4.8,9.5,6.1,14.6c12.5-0.9,23.5-8.6,28.6-20.1
	c0.5-1.1,0.9-2.2,1.3-3.3c-2.9-6.8-4.9-12.3-4.9-12.3S717.3,85.7,734.7,115.4z"/>
<path style="fill:#D3A09F;" d="M704.5,95.1c0,18.7,15.2,33.8,33.8,33.8c13.4,0,25.5-7.9,31-20.2c1.9-4.3,2.9-9,2.9-13.7
	c0-18.7-15.1-33.8-33.8-33.9C719.7,61.3,704.6,76.4,704.5,95.1L704.5,95.1z"/>
<path style="opacity:0.1;enable-background:new    ;" d="M671.9,357.3c3.5,3.2,4.9,9.4,4.9,9.4s16.7,11.4,15.5,4.2
	s8.6-36.3,8.6-36.3l-1.1,39.7c0,0,53.2-2.5,57.1-6.4s26.6-11.4,26.6-11.4s7,5.6,13.4,9.8c0.8-4.8,1.5-9,1.5-9l-22.9-18.4l-57.1-15
	l-21.5-6.9L676,350C676,349.9,673.8,353.4,671.9,357.3z"/>
<path style="fill:#FFFFFF;" d="M670.2,354.2c4.4,2.8,6.1,10.3,6.1,10.3s16.6,11.4,15.5,4.2s8.6-36.3,8.6-36.3l-1.1,39.7
	c0,0,53.3-2.5,57.1-6.4s26.6-11.4,26.6-11.4s19.7,15.8,23.3,14.4s-6.4-28.3-6.4-28.3l-10.3-157.6c0,0,2.8-46.9-1.4-48.5
	c-0.6-0.3-1.2-0.6-1.8-1.1c-2.7-2.5-3.6-7.5-3.8-11.7c-0.3-5-6.9-2.5-6.9-2.5l3.9,5l-34.4,20.9l-0.3,0.2c-1.3-0.7-2.7-1.3-4.1-1.9
	c-3-1.2-7.1-2.3-9.7-1.2c-1.5,0.7-2.7,1.9-3.6,3.3c-2,2.9-3.5,6.1-4.7,9.5l-12.5,21.1c0,0-6.4,28-6.4,29.1s-1.9,26.6-4.2,29.4
	s-4.4,16.6-3.6,20.8c0.8,4.2-1.4,19.7-1.4,19.7c-9.2,7.5-13.9,33-13.9,33s-14.4,28.6-15.5,31.9S665.7,351.4,670.2,354.2z"/>
<path style="opacity:0.1;enable-background:new    ;" d="M745.3,146c3.4,5,13.1,12,13.1,12l28.1-23.7c-2.7-2.5-3.6-7.5-3.8-11.7
	c-0.3-5-6.9-2.5-6.9-2.5l0.8,1c1.5,1.9,1.2,4.8-0.8,6.3c-0.1,0.1-0.3,0.2-0.4,0.3L745.3,146z"/>
<path style="fill:#FFFFFF;" d="M745.3,144.9c3.4,5,13.1,12,13.1,12l28.1-23.7c-2.7-2.5-3.6-7.5-3.8-11.7c-0.3-5-6.9-2.5-6.9-2.5
	l0.8,1c1.5,1.9,1.2,4.8-0.8,6.3c-0.1,0.1-0.3,0.2-0.4,0.3L745.3,144.9z"/>
<path style="opacity:0.1;enable-background:new    ;" d="M732.3,148.6c3.6,4.4,8.8,9.3,8.5,6.8s3.1-7.9,5.2-10.4
	c-3.3-1-6.8-1-10.1,0.3C734.5,146.1,733.3,147.2,732.3,148.6z"/>
<path style="fill:#FFFFFF;" d="M731.8,147c3.6,4.3,8.8,9.3,8.5,6.8s2.7-6.5,4.8-8.9c-3-1.2-7.1-2.3-9.7-1.2
	C733.9,144.4,732.7,145.6,731.8,147z"/>
<circle style="fill:#FF718D;" cx="740.9" cy="167.8" r="2.2"/>
<circle style="fill:#FF718D;" cx="724.1" cy="227.7" r="2.2"/>
<circle style="fill:#FF718D;" cx="705" cy="288.4" r="2.2"/>
<circle style="fill:#FF718D;" cx="704.5" cy="354.4" r="2.2"/>
<circle style="fill:#FF718D;" cx="731.1" cy="196.1" r="2.2"/>
<circle style="fill:#FF718D;" cx="716.1" cy="257.7" r="2.2"/>
<circle style="fill:#FF718D;" cx="701.5" cy="318.1" r="2.2"/>
<circle style="fill:#FF718D;" cx="704.8" cy="361.8" r="2.2"/>
<path style="opacity:0.1;enable-background:new    ;" d="M786.6,134.5c0,0-0.4-3.3,4.4,2.4s13.9,10.7,13.9,10.7s20.5,14.4,21.6,21.1
	s7.8,35.5,4.2,45.1s-30.3,55.7-30.3,55.7s7,8.3,5.4,18.1s-3.7,23.3-2.8,26.3s-1.1,10.4,2,12.9s6.5,7-3.3,13c0,0-1.8,5-0.2,6.1
	s-24.6,12.6-35,6.5s-29-54.9-29.4-65.8s5.7-47,9.1-55.5s13.3-41.6,17.6-49S786.6,134.5,786.6,134.5z"/>
<path style="fill:#616160;" d="M787.7,134.5c0,0-0.4-3.3,4.4,2.4s13.9,10.7,13.9,10.7s20.5,14.4,21.6,21.1s7.8,35.5,4.2,45.1
	s-30.4,55.7-30.4,55.7s7,8.3,5.4,18.1s-3.7,23.3-2.8,26.3s-1.1,10.4,2,12.9s6.5,7-3.3,13c0,0-1.8,5-0.2,6.1s-24.6,12.6-35,6.5
	s-29-54.9-29.4-65.8s5.7-47,9.1-55.5s13.3-41.6,17.6-49S787.7,134.5,787.7,134.5z"/>
<path style="opacity:0.1;enable-background:new    ;" d="M795.1,166c0,0-15.9,17.6-15.3,29.2C779.7,195.2,779.5,176.3,795.1,166z"/>
<path style="opacity:0.1;enable-background:new    ;" d="M773.1,194.8c0,0.6-10.7,40.5-10.2,45.5s-3.1,19.8-3.1,19.8l-5-1.3
	c0,0,3.9-20.5,4.6-28.1S773.1,194.8,773.1,194.8z"/>
<path style="opacity:0.1;enable-background:new    ;" d="M768.8,308.7c0.4,0.6,25.3,28.9,18.3,30.9S768.8,308.7,768.8,308.7z"/>
<path style="opacity:0.1;enable-background:new    ;" d="M789.3,301.5c0.5,0.4,10,20.3,11.1,15s-8.1,14.6-9.6-0.2L789.3,301.5z"/>
<path style="opacity:0.1;enable-background:new    ;" d="M741.4,140.8c0,0-10.3-6.3-23.3,9.8c0,0-9.4,5.4-12.2,6.7S700,193,700,193
	s-6.1,14.8-4.4,23.3s-4.8,37.7-4.8,37.7s-10.7,52.5-10.4,54s10.9-16.5,10.7-25.3s8.9-36.6,10.2-38.3s10.2-49.2,10.2-49.2
	s7.2-20.2,11.8-26.8s10.4-19.2,12.8-21.4c1.7-1.5,3.7-2.7,5.7-3.7L741.4,140.8z"/>
<path style="fill:#616160;" d="M741.5,140.8c0,0-11.6-6.3-24.5,9.8c0,0-9.4,5.4-12.2,6.7s-5.9,35.7-5.9,35.7s-6.1,14.8-4.4,23.3
	s-4.8,37.7-4.8,37.7s-10.7,52.5-10.4,54s10.9-16.5,10.7-25.3s8.9-36.6,10.2-38.3s10.2-49.2,10.2-49.2s7.2-20.2,11.8-26.8
	s10.4-19.2,12.8-21.4s6.8-3.7,6.8-3.7L741.5,140.8z"/>
<path style="fill:#D3A09F;" d="M690.8,256.4c0,0-22-14.4-32.6-7.3c-10.6,7.1-28,17.2-10.9,24.5s40.8,5.9,40.8,5.9L690.8,256.4z"/>
<path style="opacity:0.1;enable-background:new    ;" d="M706.1,395.5c3.3,7,6,42.4,7.8,53.6c2.6-4.5,5.8-9.9,6.9-11.6
	c1.4-2.2,4.6-11.2,6.5-16.5c-2.1-5.1-7.9-19.6-7.9-25c0-6.5-10.5-14.7-10.5-14.7S702.2,387.2,706.1,395.5z"/>
<path style="opacity:0.1;enable-background:new    ;" d="M776.8,504.1c0,0-24.4-10.4-31.6-3S776.8,504.1,776.8,504.1z"/>
<path style="opacity:0.1;enable-background:new    ;" d="M763.1,508.3c0,0,24.7,13.9,16.2,16.2S763.1,508.3,763.1,508.3z"/>
<path style="opacity:0.1;enable-background:new    ;" d="M689.3,496.2c0,0,10.5,0.7,6.5,2.8S689.3,496.2,689.3,496.2z"/>
<path style="opacity:0.1;enable-background:new    ;" d="M676.1,499.4c0.1,0.7,30.7,10.5,24.7,15S676.1,499.4,676.1,499.4z"/>
<path style="opacity:0.1;enable-background:new    ;" d="M773.2,584.3c-4.6-0.7-30.1-12.5-20.1-4S773.2,584.3,773.2,584.3z"/>
<path style="opacity:0.1;enable-background:new    ;" d="M760.6,593.6c0,0-2.2,8.6-10.7,7.5S760.6,593.6,760.6,593.6z"/>
<path style="opacity:0.1;enable-background:new    ;" d="M767.7,611.1c-1.5-0.4-19.7-8.7-20.1-4.9s17.3,10.7,18.7,8.6
	C767.1,613.7,767.5,612.4,767.7,611.1z"/>
<path style="opacity:0.1;enable-background:new    ;" d="M708.8,601.1c-2.2-0.1-23-6.8-27.2-0.8L708.8,601.1z"/>
<path style="opacity:0.1;enable-background:new    ;" d="M690,605c0,0-3.6-3.2-7.2-1.5S690,605,690,605z"/>
<path style="opacity:0.1;enable-background:new    ;" d="M736,639.4c-0.5,2.4-2.3,4.3-4.7,4.8L736,639.4z"/>
<path style="fill:#CA8496;" d="M630.2,652.4c1.4,5.7,20.8,6.2,30.1,4.7s28.6-7,28.6-7s20.2-1.9,26.2-4.4s1.2-8.9,1.2-8.9
	s0-0.2,0-0.6c0.1-2.3,0.6-10.7-0.9-13c-1.7-2.6-0.7-11.2-0.7-11.2s-28.7,5.5-29.3,2.9s-5-6.4-7.1-7.2s-3.6,6.9-3.6,6.9
	s-13,11.1-13.9,15.1s-10,6.1-10,6.1s-13.9,3.9-17.5,5.8c-2.1,1-3.6,3-3.8,5.4C629.5,648.8,629.7,650.6,630.2,652.4z"/>
<path style="opacity:0.1;enable-background:new    ;" d="M630.2,652.4c1.4,5.7,20.8,6.2,30.1,4.7s28.6-7,28.6-7s20.2-1.9,26.2-4.4
	s1.2-8.9,1.2-8.9s0-0.2,0-0.6l-29,6.4c0,0-14.3,6.1-23.4,6.1c-8,0-25.9,3.3-34.2-1.7C629.5,648.8,629.7,650.6,630.2,652.4z"/>
<path style="opacity:0.1;enable-background:new    ;" d="M669.5,630.5c0,0,1.4,9.2,6.9,12.2L669.5,630.5z"/>
<path style="opacity:0.1;enable-background:new    ;" d="M705.9,85.8c0.5,0.3,1.1,0.5,1.6,0.7c2.6,0.7,5.2-1.1,7.5-2.4
	s5.5-2.4,7.5-0.6c2.6,2.4,0.7,7.4,3.4,9.7c1.7,1.4,4.4,1,6.3,2.1s2.5,3.8,2.9,6.1s1.4,4.8,3.6,5.5s4.2-0.8,6.4-0.7
	c0.5,0,1,0.1,1.3-0.3c0.2-0.3,0.3-0.7,0.2-1c-0.3-2.7,0-5.4,0.7-8c0.9-2.6,3-4.9,5.6-5.3c3.9-0.6,7.2,2.8,9.5,6
	c2.4,3.4,4.6,6.9,6.6,10.6c0.1,0.2,0.2,0.5,0.3,0.7c1.9-4.3,2.9-9,2.9-13.7c0-18.7-15.1-33.8-33.8-33.9
	C723.3,61.3,710,71.3,705.9,85.8L705.9,85.8z"/>
<path style="fill:#464353;" d="M762.5,97c-2.3-3.2-5.6-6.6-9.5-6c-2.7,0.4-4.7,2.7-5.6,5.3c-0.7,2.6-1,5.3-0.7,8
	c0.1,0.4,0,0.7-0.2,1c-0.3,0.3-0.8,0.3-1.3,0.3c-2.2-0.1-4.3,1.3-6.4,0.7s-3.2-3.2-3.6-5.5s-1-4.8-2.9-6s-4.6-0.7-6.3-2.1
	c-2.7-2.3-0.8-7.4-3.4-9.7c-2-1.8-5.2-0.8-7.5,0.6s-4.8,3.1-7.5,2.5c-0.9-0.2-1.7-0.8-2.5-1.1c-4.1-1.6-9.4,1.1-12.8-1.7
	c-1.2-1.2-2.1-2.8-2.6-4.4c-0.9-2.3-1.6-4.6-1.9-7.1c-0.3-2.5,0.4-4.9,1.9-6.9c2.2-2.6,5.9-3.2,8.7-5.2c2.4-1.6,4-4.1,5.6-6.6
	s3.1-5,5.4-6.7s5.6-2.6,8.1-1.3c0.8,0.6,1.7,1,2.7,1.3c1.1,0,2.1-0.3,3-0.8c9.6-4.5,20.8-3.7,31.4-2.4c4.2,0.5,8.5,1.2,12.3,3
	s7.2,5,8.3,9.1c0.9,3.3,0.2,6.8,1.2,10c0.7,2.2,2.1,4,3,6.2c2.2,5.8-0.4,12.3-1.6,18.4c-1.2,6.7-0.6,14-3.5,20.4
	c-0.6,1.2-1.2,3.4-2.6,2.6c-1-0.6-2.1-4.2-2.7-5.3C767.2,103.9,764.9,100.3,762.5,97z"/>
<path style="opacity:0.1;enable-background:new    ;" d="M823.4,205.3l5,14.2c0,0-11.8,44-17.4,53.3s-13.7,21.1-13.7,21.1
	s-13.7,6.8-29.6,3.7s-62.3-11.5-62.3-11.5s-3.9,0.7-5.9-2.2s-12.6-4.4-12.6-4.4s-12.2-17.8,2.8-25.1c0,0,1.8,4.1,9.8,1.3
	c8-2.8,10.3,2.2,10.3,2.2s13,2.6,20.2,1.7s25.2-1.3,27-2.8c1-0.9,2.5-0.8,3.3,0.2c0,0,4.4-1.7,5.9-3.3s3.5,1.8,3.5,1.8
	s2.6-1.5,1.8-3.3s2.4-8.9,2.4-8.9s1.5-4.6,0.5-8.3s4.6-17,4.6-17c0.1-2.2-0.2-4.5-0.7-6.7c-0.9-3.3,7-10,7-10s7.8-37.7,24.2-25.3
	S823.4,205.3,823.4,205.3z"/>
<path style="fill:#616160;" d="M824.5,205.3l5,14.2c0,0-11.8,44-17.4,53.3s-13.7,21.1-13.7,21.1s-13.7,6.8-29.6,3.7
	s-62.3-11.5-62.3-11.5s-3.9,0.7-5.9-2.2s-12.6-4.4-12.6-4.4s-12.2-17.8,2.8-25.1c0,0,1.8,4.1,9.8,1.3c8-2.8,10.3,2.2,10.3,2.2
	s13,2.6,20.2,1.7s25.2-1.3,27-2.8c1-0.9,2.5-0.8,3.3,0.2c0,0,4.4-1.7,5.9-3.3s3.5,1.8,3.5,1.8s2.6-1.5,1.8-3.3s2.4-8.9,2.4-8.9
	s1.5-4.6,0.5-8.3s4.6-17,4.6-17c0.1-2.2-0.2-4.5-0.7-6.7c-0.9-3.3,7-10,7-10s7.8-37.7,24.2-25.3S824.5,205.3,824.5,205.3z"/>
<path style="opacity:0.1;enable-background:new    ;" d="M704.3,264.9c0.2,1.3,4.3,6.5,2.8,7.4s-3.9,0.4-1.7,3.3s2,7.4,0.6,6.8
	s-3.9-7.2-3.9-9.8S704.3,264.9,704.3,264.9z"/>
<path style="opacity:0.1;enable-background:new    ;" d="M759.2,261.9c0,0,1.1,12.9,10.2,16.6S759.2,261.9,759.2,261.9z"/>
<path style="opacity:0.1;enable-background:new    ;" d="M778.1,257.5c0.5,0.2,12.9,6.8,7.4,10.7S778.1,257.5,778.1,257.5z"/>
<path style="opacity:0.1;enable-background:new    ;" d="M778.8,248.2c0,0,18.1,3.7,12,6.8C784.7,258.2,778.8,248.2,778.8,248.2z"/>
<g style="opacity:0.1;">
	<path d="M747.4,93.1c0.9-2.6,3-4.9,5.6-5.3c3.9-0.6,7.2,2.8,9.5,6c2.4,3.4,4.6,6.9,6.6,10.6c0.6,1.1,1.6,4.7,2.7,5.3
		c1.4,0.8,2-1.4,2.6-2.6c2.9-6.4,2.2-13.6,3.5-20.4c0.7-3.9,2.1-8,2.4-11.9c0.4,4.8-1.5,9.9-2.4,14.9c-1.2,6.7-0.6,14-3.5,20.4
		c-0.6,1.2-1.2,3.4-2.6,2.6c-1-0.6-2.1-4.2-2.7-5.3c-1.9-3.6-4.1-7.2-6.5-10.5c-2.3-3.2-5.6-6.6-9.5-6c-2.7,0.4-4.7,2.7-5.6,5.3
		c-0.4,1.3-0.7,2.7-0.7,4.2C746.5,97.8,746.7,95.4,747.4,93.1z"/>
	<path d="M689.6,75.5c0.5,1.7,1.3,3.2,2.6,4.4c3.4,2.8,8.7,0.2,12.8,1.7c0.8,0.4,1.7,0.8,2.5,1.1c2.6,0.7,5.2-1,7.5-2.4
		s5.5-2.4,7.5-0.6c2.6,2.4,0.7,7.4,3.4,9.7c1.7,1.5,4.4,1,6.3,2.1s2.5,3.8,2.9,6s1.4,4.8,3.6,5.5s4.2-0.8,6.4-0.7
		c0.5,0,1,0.1,1.3-0.3c0.1-0.1,0.1-0.2,0.2-0.3c0,0.7,0,1.5,0.1,2.2c0.1,0.4,0,0.7-0.2,1c-0.3,0.3-0.8,0.3-1.3,0.3
		c-2.2-0.1-4.3,1.3-6.4,0.7s-3.2-3.2-3.6-5.5s-1-4.8-2.9-6.1s-4.6-0.7-6.3-2.1c-2.7-2.3-0.8-7.4-3.4-9.7c-2-1.8-5.2-0.8-7.5,0.6
		s-4.8,3.1-7.5,2.4c-0.9-0.2-1.7-0.7-2.5-1.1c-4.1-1.6-9.4,1.1-12.8-1.7c-1.2-1.2-2.1-2.8-2.6-4.4c-0.9-2.3-1.6-4.6-1.9-7.1
		c-0.1-0.8,0-1.7,0.1-2.5C688.1,71.1,688.7,73.4,689.6,75.5z"/>
</g>
<path style="fill:#35323E;" d="M233.6,563.2c0,62.4,36.2,113,80.9,113s80.9-50.6,80.9-113s-36.2-113-80.9-113
	S233.6,500.8,233.6,563.2z M239.1,561.7c0-54.6,31.9-98.9,71.1-98.9s71.2,44.3,71.2,98.9s-31.9,98.9-71.2,98.9
	S239.1,616.3,239.1,561.7L239.1,561.7z"/>
<path style="fill:#464353;" d="M304.7,316.2l5.6,94.9H420c9.5-0.1,18.7,3.4,25.8,9.8c6.4,5.8,10.3,13.8,11.1,22.3v142.3h-14l0.1-9.8
	H304.7v-14h138.4l1.1-114.2c0-1.4-0.1-2.9-0.4-4.3c-0.9-3.8-3.3-10.6-9.7-14.5c-2.8-1.6-6-2.5-9.3-2.4H300.5l-7-99.1h-41.8v-11.1h53
	V316.2z"/>
<path style="opacity:0.1;enable-background:new    ;" d="M304.7,316.2l5.6,94.9H420c9.5-0.1,18.7,3.4,25.8,9.8
	c6.4,5.8,10.3,13.8,11.1,22.3v142.3h-14l0.1-9.8H304.7v-14h138.4l1.1-114.2c0-1.4-0.1-2.9-0.4-4.3c-0.9-3.8-3.3-10.6-9.7-14.5
	c-2.8-1.6-6-2.5-9.3-2.4H300.5l-7-99.1h-41.8v-11.1h53V316.2z"/>
<polygon style="fill:#35323E;" points="301.2,367.2 195.9,363.7 201.5,510.2 454,513 447.7,453.7 310.3,476.7 "/>
<rect x="205.6" y="561.8" style="fill:#464353;" width="139.5" height="14"/>
<path style="fill:#464353;" d="M300.5,551.2v-41h11.2v41c4.1,3.1,7,9.5,7,16.9c0,10.4-5.6,18.8-12.6,18.8s-12.6-8.4-12.6-18.8
	C293.5,560.7,296.4,554.3,300.5,551.2z"/>
<path style="fill:#464353;" d="M355.4,586.1c-4.8-4.4-12.1-4.7-17.1-0.6l0,0c0,0-16.7,11.2-1.4,58.6c0,0,11.2,7,5.6-15.3
	s-2.8-36.3,2.8-36.3s12.6,15.3,12.6,15.3l9.8-4.2C367.5,603.7,363.1,593.4,355.4,586.1z"/>
<path style="fill:#464353;" d="M460,586.1c-4.8-4.4-12.1-4.7-17.1-0.6l0,0c0,0-16.7,11.2-1.4,58.6c0,0,11.2,7,5.6-15.3
	s-2.8-36.3,2.8-36.3s12.5,15.3,12.5,15.3l9.8-4.2C472.1,603.7,467.7,593.4,460,586.1z"/>
<ellipse style="fill:#35323E;" cx="458.9" cy="639.9" rx="31.4" ry="41.9"/>
<ellipse style="fill:#35323E;" cx="354.2" cy="639.9" rx="31.4" ry="41.9"/>
<linearGradient id="SVGID_2_" gradientUnits="userSpaceOnUse" x1="-861.7482" y1="130.2933" x2="-861.7482" y2="576.5359" gradientTransform="matrix(1 0 0 -1 1199.58 783.3456)">
	<stop  offset="0" style="stop-color:#808080;stop-opacity:0.25"/>
	<stop  offset="0.54" style="stop-color:#808080;stop-opacity:0.12"/>
	<stop  offset="1" style="stop-color:#808080;stop-opacity:0.1"/>
</linearGradient>
<path style="fill:url(#SVGID_2_);" d="M541.5,637.1c-3.2-3.3-8.2-5.7-11.1-5.7c-6.2,0-30.9-29.2-32.5-33.4c-0.6-1.5-1.6-1-2.6,0.3
	c-2-4.7-4.6-11.4-5.3-16.2c2.6-0.7,4.3-1.2,4.3-1.2s0.3-9.4-2-10.4h-0.1c-2.2-1.3-2.2-20.8-2.2-20.8s-5.2-17.2-4.6-23.4
	s-13.1-53.4-13.1-53.4s-3.6-28.4-10.2-31.2c-5.5-2.4-52.3-15.8-66.7-19.9c-0.3-0.7-2.5-5.1-9.8-5.1c-7.9,0-31.5,0.3-39.4-8.8
	c-1-1.2-1.8-2.5-2.4-3.9c3.9-7.2,4.1-19,2.8-21.7c-2-3.9-3.3-11.7-3.3-11.7s-1-18.8-2.3-23.7s-6.9-44.8-6.9-44.8s-11.2-10.6-19.1-13
	c-3.4-1.1-6.7-2.8-9.5-5c0.1-0.6,0.2-1.2,0.3-1.7c5.1-4.3,8.7-10.2,10-16.7c0.2-0.4,0.3-0.7,0.3-1.1c0.1-0.5,0.1-1,0.1-1.5
	c0.1-0.9,0.2-1.9,0.2-2.9v-0.3c0-0.1,0-0.2,0-0.3c0.1-0.5,0.3-0.9,0.5-1.3c1.1-1.6,3.5-2,5.4-2.8c0.3-0.1,0.6-0.3,0.8-0.4l0.2-0.2
	c0.2-0.1,0.4-0.2,0.5-0.3l0.3-0.2l0.4-0.4l0.3-0.3c0.1-0.1,0.2-0.2,0.4-0.4l0.3-0.3c0.1-0.1,0.2-0.2,0.3-0.4l0.2-0.4
	c0.1-0.1,0.2-0.2,0.2-0.4c0.1-0.1,0.2-0.3,0.2-0.4s0.1-0.2,0.2-0.4s0.1-0.3,0.2-0.5c0.1-0.1,0.1-0.2,0.1-0.3
	c0.1-0.2,0.1-0.3,0.2-0.5l0.1-0.3c0.1-0.2,0.1-0.4,0.2-0.6c0,0,0,0,0-0.1c0.4-1.7,0.6-3.4,0.5-5.2l0,0c0-0.4-0.1-0.9-0.1-1.3
	c-0.5-3-1.6-6.1-1.2-9l0,0c0-0.3,0.1-0.5,0.1-0.8v-0.1c0.1-0.3,0.1-0.5,0.2-0.8c0.4-1.2,1.1-2.3,1.5-3.5l0,0
	c0.1-0.2,0.1-0.5,0.2-0.8V227c0-0.2,0.1-0.4,0.1-0.6v-0.1c0-0.5,0-1.1-0.1-1.6l0,0c-0.5-2.3-1.7-4.5-3.6-6c-2.7-2.4-6.3-3.7-9.8-4.8
	c-9-3-18.4-5.8-27.9-6.5c-4.2-0.3-9.6-1.6-13,1c-3.9,3-6.4,5.2-11.2,7.3c-3.5,1.5-7.2,3.7-8,7.3c-0.2,1.6-0.2,3.2-0.2,4.8
	c-0.2,3.2-1.7,6.2-2.7,9.2c-0.6,1.8-0.9,3.7-0.7,5.6v0.1c0,0.2,0.1,0.4,0.1,0.6v0.1c0.1,0.5,0.2,0.9,0.4,1.4c0,0.1,0,0.1,0.1,0.2
	s0.2,0.3,0.2,0.5l0.1,0.2c0.1,0.2,0.3,0.4,0.4,0.6c0.6,0.8,1.4,1.5,2,2.3c0.7,1.3,1.1,2.8,1.1,4.3c0.2,1.5,0.3,3,0.5,4.6
	c0,0.1,0,0.2,0,0.3c0,0.7-0.1,1.4-0.1,2c0,1.6,0.1,3.1,0.4,4.7c-3.3,2.5-6.8,5.5-7.5,7.7c-0.5,0.6-0.8,1.4-0.8,2.2l0,0
	c-3.1,2.5-16.4,1-16.4,1s-10.8,5.9-14.8,3.6s-27.6,15.9-27.6,15.9s-6.2,0.3-6.6,2.9c0,0-7.9,5.9-13.8,5.9s-9.5,7.5-9.5,7.5
	s-9.9,4.5-13.1,5.2s-8.9,3.9-7.2,5.2s-0.3,4.2-3.3,6.5s-7.6,14-3.6,15.6s14.8,4.9,17.7,6.5c1.1,0.6,2.4,0.8,3.7,0.7
	c1.4,0.1,2.9-0.1,4.2-0.7l0.5-0.6c3.9,2.9,8.9,5.9,13.7,6.4c7.6,0.8,24,3.9,30.9,5.2c0,0.4,0,0.9,0,1.3c-0.1,12.1,0.5,24.7,2.9,28.6
	c4.9,8.1,5.6,71.8,5.6,71.8s15.4,2.3,20.7,7.2c5,4.6,30.2,13,35.1,2.1l1.6,0.7c12.8,5.5,29.8,13.5,31.7,17
	c3.1,5.8,25.8,15.6,25.8,15.6s14.8,0.3,10.5,14c-4.3,13.7,28.4,46.4,28.4,46.4c-0.1,2.1,0.6,4.1,1.9,5.7c0.4,0.5,0.9,1,1.4,1.4
	c1.3,1,5.4,2.8,10.1,3.6c1.2,2.7,2.2,5.1,2,5.5s1.4,1.8,3.5,3.6l0,0c1.6,3.6,3.5,7,5.6,10.3l0,0c0.7,1.2,1.7,2.2,2.9,3
	c3.2,1.3,36.5,21.1,42.8,21.8c5.8,0.6,17.6,3.5,28.2-4.8l-1.7,13.9l-0.6,4.6c0,0,16.8,6.8,23.7,6.8s30.2,11,30.2,11
	s15.4,3.2,25.6-3.6C546.6,645.3,545.1,640.6,541.5,637.1z M435.5,486.4c-1.6,3.6-0.6,10.1,0.2,10.1s4.4,5.2,2.4,11
	c-2,5.8,12.8,59.1,19.4,66.3c0,0,0,0.2-0.1,0.5c-0.5,2.2-1.9,11,7.4,11.5h1c0.7,5.6,1.8,14.3,2.4,21.6c-1.5-4.3-7.2-8.7-12.9-12.1
	c-4.3-2.5-8.7-4.8-13.2-6.7c0,0-18.4-4.4-22.3-8S404,570.4,404,570.4l0,0c-1.9-1.7-3.9-3.5-5.9-5.3c0.1-0.8,0.2-1.6,0.2-2.4
	c-0.5-1.7-1-3.4-1.7-5c-0.8-1.8-1.8-3.5-2.9-4.1c-2.6-1.6-11.5-35.1-11.5-39c0-3.9-5.6-22.4-7.5-25.7s-4.3-11.4-4.3-11.4
	s29.9,4.6,57.8,2C428.2,479.6,437.1,482.8,435.5,486.4z M204.2,336.3v0.4l-1.7-0.4C203.5,336.3,204.2,336.3,204.2,336.3z M299,286.7
	c0,0.6,0,1.2,0,1.8l-0.3-0.4c-0.3-0.3-0.5-0.6-0.8-1C298.2,287.1,298.6,286.9,299,286.7L299,286.7z M331.1,355.1
	c-0.3-1.9-0.5-3-0.5-3l0.1-1.8L331.1,355.1z M179.1,332c0.7-0.2,1.4-0.4,2.1-0.5c0.6,0.1,1.3,0.2,1.8,0.5c0.8,0.4,1.6,0.7,2.4,1
	l-5.7-1C179.6,332,179.4,332,179.1,332L179.1,332z"/>
<path style="fill:#A1616A;" d="M373.7,566.7c0,0,6.6,13.7,6.3,14.6s14.2,12.6,14.2,12.6l15.8-11.3l-1.6-7.7c0,0-17.7-16-19-17.8
	S373.7,566.7,373.7,566.7z"/>
<path style="fill:#67647E;" d="M463.8,612.9c-11,10.6-23.9,7.4-30,6.8s-38.9-20.3-42-21.6c-1.2-0.7-2.2-1.7-2.9-2.9l0,0
	c-2.1-3.3-4-6.7-5.5-10.2c0.2,0.1,11,3.1,13.7,0c0,0,4.5-5.5,5.5-5.5s0.1-9.7,0.1-9.7s11.5,6.5,15.4,10s21.9,7.9,21.9,7.9
	c4.5,1.9,8.8,4.2,13,6.7C461.5,599.5,470,606.8,463.8,612.9z"/>
<path style="opacity:0.1;enable-background:new    ;" d="M463.8,612.9c-11,10.6-23.9,7.4-30,6.8s-38.9-20.3-42-21.6
	c-1.2-0.7-2.2-1.7-2.9-2.9c3.8-2.3,28.7,13.6,35.7,16.5s24.6,1.3,34.6-2.9c5-2.1-0.1-8.5-6.4-14.4
	C461.5,599.5,470,606.8,463.8,612.9z"/>
<path style="fill:#A1616A;" d="M462.5,579.4c0,0,4.6,34.5,3.4,39s28.8-15.5,28.8-15.5s-10.5-21.6-7.4-26.6S462.5,579.4,462.5,579.4z
	"/>
<path style="fill:#616160;" d="M491.2,580c0,0-18.7,5.5-29,4.8c-9-0.6-7.7-9.3-7.2-11.4c0.1-0.3,0.1-0.5,0.1-0.5
	c-6.5-7.1-21-60-19-65.8c2-5.8-1.6-11-2.4-11s-1.8-6.5-0.2-10s-7.1-6.8-7.1-6.8c-27.4,2.6-56.8-2-56.8-2s2.2,8.1,4.2,11.3
	s7.4,21.6,7.4,25.5c0,3.9,8.7,37.1,11.3,38.7c1.1,0.7,2,2.4,2.8,4.1c0.7,1.6,1.3,3.3,1.7,4.9c-1,21.6-25.5,13.2-29,10.3
	c-2.1-1.7-3.3-4.4-3.2-7.1c0,0-32-32.5-27.8-46c4.2-13.5-10.3-13.9-10.3-13.9s-22.2-9.7-25.3-15.5c-1.9-3.6-18.6-11.4-31.2-16.9
	c-7.9-3.5-14.1-6-14.1-6l5.2-18.7l4.1-14.8l7.8-2.9L298,421l44.5-6.1l4.1,0.5l43.3,5.6c0,0,63.2,18,69.6,20.9s10,31,10,31
	s13.5,46.8,12.9,52.9s4.5,23.2,4.5,23.2s0,19.3,2.2,20.6h0.1C491.5,570.7,491.2,580,491.2,580z"/>
<path style="opacity:0.1;enable-background:new    ;" d="M426.4,479.4c-27.4,2.6-56.8-2-56.8-2c-1.9-6.1-29-22.9-29-22.9
	C362.8,449.1,426.4,479.4,426.4,479.4z"/>
<path style="fill:#444053;" d="M397,561.9c-1,21.6-25.5,13.2-29,10.3c-0.5-0.4-1-0.9-1.4-1.4c8.6,3.2,23.8,5.6,28.7-13.8
	C396,558.6,396.6,560.3,397,561.9z"/>
<path style="fill:#444053;" d="M491.2,580c0,0-18.7,5.5-29,4.8c-9-0.6-7.7-9.3-7.2-11.4c9.5-0.3,25.8-1.2,34.2-3.8h0.1
	C491.5,570.7,491.2,580,491.2,580z"/>
<path style="opacity:0.1;enable-background:new    ;" d="M397,561.9c-1,21.6-25.5,13.2-29,10.3c-0.5-0.4-1-0.9-1.4-1.4
	c8.6,3.2,23.8,5.6,28.7-13.8C396,558.6,396.6,560.3,397,561.9z"/>
<path style="opacity:0.1;enable-background:new    ;" d="M491.2,580c0,0-18.7,5.5-29,4.8c-9-0.6-7.7-9.3-7.2-11.4
	c9.5-0.3,25.8-1.2,34.2-3.8h0.1C491.5,570.7,491.2,580,491.2,580z"/>
<path style="fill:#67647E;" d="M537.3,647.4c-10,6.8-25.2,3.5-25.2,3.5s-22.9-11-29.7-11s-23.2-6.8-23.2-6.8l0.5-4.6l2.7-21.8
	c0,0,25.1-0.6,26.1-2.9c0,0,4.5-11.1,6.1-7s25.8,33.1,31.9,33.1c2.9,0,7.8,2.4,10.9,5.7C541.1,639.2,542.5,643.9,537.3,647.4z"/>
<path style="opacity:0.1;enable-background:new    ;" d="M450.6,456.8c0,0-21,13.2-15.1,16.1S450.6,456.8,450.6,456.8z"/>
<path style="opacity:0.1;enable-background:new    ;" d="M459.3,482.3c0,0-18.1,17.2-11.3,17.6S459.3,482.3,459.3,482.3z"/>
<path style="opacity:0.1;enable-background:new    ;" d="M478.6,536.8c0,0-9.1,17.3-5.7,20.2S478.6,536.8,478.6,536.8z"/>
<path style="opacity:0.1;enable-background:new    ;" d="M377.7,554.2c3.2,3.2-30.6-10.6-22.9-11.3S377.7,554.2,377.7,554.2z"/>
<path style="fill:#A1616A;" d="M310,312.4l-1.1-0.2c-4-0.6-18.5-2.9-31.6-5.7c-3.2-0.7-6.3-1.4-9.1-2.1c-10-2.6-16.7-5.5-12.4-7.8
	c5.7-3.1,8.6-8.6,10.2-13.5c0.2-0.5,0.3-0.9,0.4-1.4c0.7-2.4,1.1-4.9,1.3-7.4c0,0,36.4-12.9,29.3,0c-3.5,6.3-1.1,11.5,2.1,15.1
	c2.3,2.4,4.9,4.4,7.9,5.9L310,312.4z"/>
<path style="opacity:0.1;enable-background:new    ;" d="M271,302.4c0,0,13,9.4,26.3,1.6s30.7,68.4,30.7,68.4l18.1,44.5
	c0,0,11.7,9.7-2.9,13.9c-14.6,4.2-46.9-4.2-55,8.1S264.5,453,262.9,453s-7.7-46.1-7.7-46.1l-1.6-66.8L271,302.4z"/>
<path style="fill:#F3F5F9;" d="M342.6,428.1c-14.6,4.2-46.9-4.2-55,8.1c-3.5,5-8.3,8.9-13.9,11.2c-3.6,1.6-7.5,2.6-11.4,3
	c-0.2,0-0.5-0.8-0.9-2.3c-2.3-9.3-6.9-43.8-6.9-43.8l-1.6-66.8l15.3-33.2l2.1-4.5c2.1,1.4,4.3,2.5,6.6,3.2
	c6.5,2.4,13.7,1.8,19.7-1.6c3.9-2.3,8.2,2.7,12.2,10.8c9.8,19.6,18.5,57.6,18.5,57.6l18.1,44.5c0.4,0.4,0.8,0.8,1.2,1.2
	C349.2,418.1,354,424.8,342.6,428.1z"/>
<path style="opacity:0.1;enable-background:new    ;" d="M273.2,430.4c0.7,5.6,0.9,11.3,0.4,17c-0.5,8.1-1.5,16.1-3,24
	c-0.1,0.5-0.2,1-0.4,1.5c-7.9-3.5-14.1-6-14.1-6l5.2-18.8c-2.3-9.3-6.9-43.8-6.9-43.8l-1.6-66.8l15.3-33.2
	c-10-2.6-16.7-5.5-12.4-7.8c6.2-3.4,9.2-9.8,10.6-14.8c2.6,3.7,5.7,7,9.2,9.9l0.2,0.2L277,303l0.4,3.5l0.7,7.2
	c0,0-3.5,84.8-6.1,89.6s-1.3,14.2,1,25.2C273,429.1,273.1,429.7,273.2,430.4z"/>
<path style="fill:#BBBABA;" d="M271.6,427.1c2.3,11,0.3,29-2.3,42.9s-30,4.8-35.1,0s-20.3-7.1-20.3-7.1s-0.6-63.2-5.5-71.3
	c-2.3-3.8-2.9-16.3-2.8-28.4c0-10.8,0.6-21.3,0.8-24.9c0.1-0.8,0.1-1.3,0.1-1.3s-21-35.5-20.6-38s6.4-2.9,6.4-2.9
	s23.2-18.1,27.1-15.8s14.5-3.5,14.5-3.5s13.5,1.5,16.3-1.1c0.3-0.3,0.5-0.7,0.5-1.2c-0.3-4.1,13.7-12.9,14.2-13.2
	c-11.9,10.7,7.3,27.1,9.5,28.9l0.2,0.2l2.3,21.9c0,0-3.5,84.8-6.1,89.6S269.3,416.2,271.6,427.1z"/>
<circle style="fill:#444053;" cx="270.4" cy="335" r="1.6"/>
<path style="opacity:0.1;enable-background:new    ;" d="M273.7,291.6l-9.8,9.5l-14.4-24c0.3-0.3,0.5-0.7,0.5-1.2
	c-0.3-4.1,13.7-12.9,14.2-13.2C252.3,273.4,271.5,289.8,273.7,291.6z"/>
<circle style="opacity:0.1;enable-background:new    ;" cx="267.1" cy="386.6" r="1.6"/>
<circle style="fill:#444053;" cx="267.1" cy="386" r="1.6"/>
<path style="fill:#BBBABA;" d="M274.3,290.3l-9.8,9.5l-14.4-24c0.3-0.3,0.5-0.7,0.5-1.2c-0.3-4.1,13.7-12.9,14.2-13.2
	C253,272.1,272.1,288.5,274.3,290.3z"/>
<path style="opacity:0.1;enable-background:new    ;" d="M393.5,424.2c-8.1,3.5-61-5.8-68.7-8.1s-19-19.7-13.5-32.2
	s-1.9-24.9-1.9-24.9s-11.6-24.8-14.2-29.7s-8-18.9-8.7-21.3c-0.1-0.5,0.1-1.1,0.5-1.5c2.1-3.2,10.2-8.8,10.2-8.8
	c2.3,0.8,2.6-5.7,2.5-10.5c0-2.7-0.2-4.8-0.2-4.8s1.1,1.1,2.8,2.6c0.6,0.5,1.4,1.1,2.2,1.7c3,2.4,6.5,4.3,10.2,5.6
	c7.7,2.3,18.7,12.9,18.7,12.9l-3.2,49.5c0,0,7.4,46.6,15.2,55.6s31,8.7,38.7,8.7S393.5,424.2,393.5,424.2z"/>
<path style="fill:#BBBABA;" d="M394.1,422.3c-8.1,3.5-60.9-5.8-68.7-8.1s-19-19.7-13.5-32.2s-1.9-24.8-1.9-24.8
	s-11.6-24.8-14.2-29.7s-8-18.9-8.7-21.3c-0.1-0.5,0.1-1.1,0.5-1.5c2.1-3.2,10.2-8.9,10.2-8.9c2.3,0.8,2.6-5.7,2.5-10.5
	c0-2.7-0.2-4.8-0.2-4.8s1.1,1.1,2.8,2.6c0.6,0.5,1.4,1.1,2.2,1.7c3,2.4,6.5,4.3,10.2,5.5c7.7,2.3,18.7,12.9,18.7,12.9l-3.2,49.5
	c0,0,7.4,46.6,15.1,55.6s31,8.7,38.7,8.7S394.1,422.3,394.1,422.3z"/>
<path style="opacity:0.1;enable-background:new    ;" d="M306.4,281.9c0,0-0.3,1.7-0.8,4.3c-1.7,8.9-5.9,28.2-8.9,27.4
	c-2.1-0.5-5.8-4.3-8.6-7.6c2.1-3.2,10.2-8.9,10.2-8.9c2.3,0.8,2.6-5.7,2.5-10.5l2.6-2.2L306.4,281.9z"/>
<path style="fill:#BBBABA;" d="M305.8,280.6c0,0-0.3,1.7-0.8,4.3c-1.7,8.9-5.9,28.2-8.9,27.4c-2.1-0.5-5.8-4.3-8.6-7.6
	c2.1-3.2,10.2-8.9,10.2-8.9c2.3,0.8,2.6-5.7,2.5-10.5l2.6-2.2L305.8,280.6z"/>
<polygon style="fill:#F86D70;" points="304.5,329.8 304.5,362.6 295.8,380 295.8,380 295.5,380.6 272.6,379 263.8,378.5 
	243.4,377.1 243.4,338 263.8,338.6 273,338.8 296.1,339.5 "/>
<polygon style="opacity:0.1;enable-background:new    ;" points="304.5,331.8 304.5,362.6 302.4,366.8 302.4,366.8 300.2,371.2 
	300.2,371.2 295.8,380 296.3,347.3 296.4,340.7 300.5,336.1 300.5,336.1 302.4,334.1 "/>
<polygon style="fill:#F86D70;" points="305.6,321.2 305.6,332.6 304.5,334.4 302.4,337.8 300.5,340.8 296.4,347.3 296.3,347.3 
	241.6,344.5 241.6,333.2 241.8,333.1 248.3,326 250.6,323.4 254.9,318.8 "/>
<polygon style="opacity:0.1;enable-background:new    ;" points="296.4,336 296.4,347.3 241.6,344.5 241.6,333.2 241.8,333.1 "/>
<polygon style="opacity:0.15;enable-background:new    ;" points="305.6,321.2 305.6,332.6 296.4,347.3 296.4,336 "/>
<polygon style="fill:#3F3D56;" points="302.4,326.4 302.4,334.1 302.4,337.8 302.4,366.8 302.4,366.8 300.2,371.2 300.5,340.8 
	300.5,336.1 300.5,336.1 300.6,329.2 248.3,326 250.6,323.4 "/>
<polygon style="fill:#3F3D56;" points="276.7,326.8 273,334.8 273,338.8 272.6,379 263.8,378.5 263.8,334.2 268.5,326.8 "/>
<path style="fill:#3F3D56;" d="M264.6,327.3c-2.1,0.7-4.4,0.8-6.6,0.2c-0.4-0.1-0.8-0.3-1.1-0.5c-0.4-0.4-0.6-0.9-0.7-1.4
	c-0.4-1.1-0.6-2.2-0.6-3.4c0-1.2,0.5-2.3,1.4-3c0.2-0.1,0.4-0.3,0.5-0.4c0.2-0.2,0.3-0.5,0.4-0.8c0.6-1.9,1.9-3.9,3.9-4.2
	s3.5,1,4.9,2.2l3.1,2.6c0.9-2.5,3.8-3.8,6.3-2.9c1.3,0.5,2.3,1.5,2.8,2.8c1.9-2.1,4.3-3.8,6.9-4.7c0.6-0.3,1.2-0.3,1.8-0.1
	c0.3,0.3,0.6,0.6,0.7,1c0.8,1.9,1.3,3.9,1.3,5.9c0.4-0.2,1,0,1.2,0.4s0.4,0.8,0.4,1.3c0.1,0.7,0.1,1.4,0.1,2.1
	c0.1,0.8-0.1,1.5-0.6,2.1c-0.7,0.6-1.7,0.9-2.7,0.8c0.4,0.5,0.3,1.2-0.2,1.5l-0.1,0.1c-0.6,0.3-1.2,0.4-1.8,0.4c-2.4,0-5-0.1-7-1.4
	c-0.8-0.5-1.5-1.2-2.3-1.8c-2-1.3-4.4-1.4-6.7-1.2C268.2,325,266.5,326.7,264.6,327.3z"/>
<path style="fill:#3F3D56;" d="M264.1,326.8c0,0-20.2,2.8-23,15l4.2-0.6l3,5.3c0,0,3.1-11.9,12.4-14.7c9.3-2.8,12.5-3.3,12.5-3.3
	s6.4,1.6,12.2,20.2l3.3-4.5l5.8,1.2c0,0-4.2-14.6-15.6-18.6H264.1z"/>
<path style="fill:#A1616A;" d="M326.4,375.6c0,0-16.1-3.2-20.6-10.3s-35.2-13.2-31.5-5.8s31.5,31.7,31.5,31.7l12,17.2l16-4.1
	l6.8-13.1L326.4,375.6z"/>
<path style="opacity:0.1;enable-background:new    ;" d="M288.3,394c0,0,15.6,5.8,18,13.5S288.3,394,288.3,394z"/>
<path style="opacity:0.1;enable-background:new    ;" d="M278.7,403c0,0-1.4,8.1,18.2,7.4L278.7,403z"/>
<path style="opacity:0.1;enable-background:new    ;" d="M194.2,299.8l-7.1-0.6c0,0-7.7,5.8-13.6,5.8s-9.4,7.4-9.4,7.4
	s-9.7,4.5-12.9,5.2s-8.7,3.9-7.1,5.2s-0.3,4.2-3.2,6.5s-7.4,13.9-3.6,15.5s14.5,4.8,17.4,6.5s6.4,0,6.4,0s17.1-22.2,25.8-18
	s20.6,4.2,20.6,4.2l9.4-19.7L194.2,299.8z"/>
<path style="fill:#BBBABA;" d="M342.6,405.9c-1.3,2.2-3.5,3.7-6,4.2c-6.3,0.7-12.7,0.1-18.8-1.7c0,0,32.5-10.3,1.2-35.4h8.4l2.8-1.1
	l-1.3-6.7l-1.8-60.2l6.8-1.6c0,0,5.5,39.7,6.8,44.5s2.3,23.5,2.3,23.5s1.3,7.7,3.2,11.6C347.5,385.9,347.2,399,342.6,405.9z"/>
<path style="opacity:0.1;enable-background:new    ;" d="M341.3,405.9c-1.3,2.2-3.5,3.7-6,4.2c-6.3,0.7-12.7,0.2-18.8-1.7
	c0,0,32.5-10.3,1.2-35.4h8.4l2.8-1.1C333.5,380,340.7,394.5,341.3,405.9z"/>
<path style="fill:none;" d="M342.6,405.9c-1.3,2.2-3.5,3.7-6,4.2c-6.3,0.7-12.7,0.1-18.8-1.7c0,0,32.5-10.3,1.2-35.4h8.4l2.8-1.1
	C334.8,380,342,394.5,342.6,405.9z"/>
<path style="fill:#BBBABA;" d="M342.6,405.9c-1.3,2.2-3.5,3.7-6,4.2c-6.3,0.7-12.7,0.1-18.8-1.7c0,0,32.5-10.3,1.2-35.4h8.4l2.8-1.1
	C334.8,380,342,394.5,342.6,405.9z"/>
<path style="opacity:0.1;enable-background:new    ;" d="M299.2,289.4c-11.3,5.1-24.6,2.6-33.2-6.4c0.2-0.5,0.3-0.9,0.4-1.4
	c0.7-2.4,1.1-4.9,1.3-7.4c0,0,36.4-12.9,29.3,0C293.6,280.6,295.9,285.8,299.2,289.4z"/>
<path style="fill:#A1616A;" d="M316.4,261.4v0.3c0,1-0.1,1.9-0.2,2.8s-0.2,1.8-0.4,2.6c-3.2,15.9-18.7,26.2-34.6,23
	c-10.2-2.1-18.6-9.4-22-19.2c-0.2-0.6-0.4-1.1-0.5-1.7c-0.7-2.5-1.1-5.2-1.1-7.8c0-0.7,0-1.4,0.1-2c1.1-16.2,15.1-28.4,31.3-27.2
	C304.5,233.2,316.4,246,316.4,261.4L316.4,261.4z"/>
<path style="opacity:0.1;enable-background:new    ;" d="M316.4,261.7c-0.2,0.9-0.2,1.9-0.2,2.8c0,0.5,0,1-0.1,1.5
	c-0.1,0.4-0.2,0.8-0.3,1.1c-1.2,2.8-5.1,4.6-7.6,2.8c-1-0.8-1.8-1.8-2.3-3c-2.7-5-6.5-10.8-12.4-10.9c-2.5,0-4.9,1-7.4,1.6
	s-5.3,0.7-7.2-1c-1.4-1.3-2.1-3.5-3.9-3.9s-3.6,1.3-4.5,3c-0.9,1.7-1.5,3.7-3.3,4.5c-0.8,0.4-1.7,0.5-2.5,0.9
	c-3.5,1.9-1.9,8.7-5.5,9.8L259,271l-0.2-1.8c-0.3-3.3-0.7-6.6-1-9.8c1.1-16.2,15.1-28.4,31.3-27.2c15.4,1.1,27.3,13.8,27.3,29.2
	L316.4,261.7z"/>
<path style="fill:#464353;" d="M264.3,217.6c-3.4,1.5-7,3.7-7.8,7.2c-0.2,1.6-0.2,3.1-0.2,4.7c-0.2,3.2-1.7,6.1-2.6,9.2
	s-1.3,6.6,0.6,9.2c0.6,0.8,1.4,1.5,2,2.3c0.7,1.3,1.1,2.8,1.1,4.3l1.6,15.9c4.1-0.8,2.3-7.9,5.9-9.8c0.8-0.4,1.7-0.5,2.5-0.9
	c1.7-0.9,2.4-2.9,3.3-4.5c0.9-1.7,2.6-3.4,4.5-3s2.5,2.6,3.9,3.9c1.8,1.7,4.7,1.6,7.2,1s4.8-1.7,7.4-1.6c5.9,0.1,9.7,5.9,12.4,10.9
	c0.5,1.2,1.3,2.2,2.3,3c2.9,2,7.4-0.5,7.9-3.9c0.3-1.9-0.3-4,0.8-5.6s3.5-2,5.3-2.8c4.7-2.2,6.2-8,5.4-13c-0.6-3.5-2-7.2-0.8-10.6
	c0.4-1.2,1.1-2.3,1.5-3.4c1-3.3-0.7-7-3.3-9.3s-6.1-3.7-9.6-4.8c-8.8-2.9-18-5.8-27.4-6.4c-4.1-0.3-9.5-1.5-12.7,1
	C271.5,213.4,269.1,215.6,264.3,217.6z"/>
<circle style="opacity:0.1;enable-background:new    ;" cx="272" cy="309.6" r="1.6"/>
<circle style="fill:#444053;" cx="272" cy="308.9" r="1.6"/>
<circle style="opacity:0.1;enable-background:new    ;" cx="261.6" cy="410.8" r="1.6"/>
<circle style="fill:#444053;" cx="261.6" cy="410.2" r="1.6"/>
<circle style="opacity:0.1;enable-background:new    ;" cx="267.1" cy="437.6" r="1.6"/>
<circle style="fill:#444053;" cx="267.1" cy="436.9" r="1.6"/>
<path style="opacity:0.1;enable-background:new    ;" d="M322.5,335.1c0,0,3.5,24.1,0,28.3S322.5,335.1,322.5,335.1z"/>
<path style="opacity:0.1;enable-background:new    ;" d="M217.1,379.8c0,0-6.8,14.6,0,28.6s11,19.7,8.7,28.6
	S217.1,379.8,217.1,379.8z"/>
<path style="opacity:0.1;enable-background:new    ;" d="M537.3,647.4c-10,6.8-25.2,3.5-25.2,3.5s-22.9-11-29.7-11
	s-23.2-6.8-23.2-6.8l0.5-4.6c6.7,1.3,21.9,4.3,23.6,5.8c2.3,1.9,30,11.3,30,11.3s18.9-2.4,24.1-10.1
	C541.1,639.2,542.5,643.9,537.3,647.4z"/>
<g style="opacity:0.1;">
	<path d="M322.3,254.4c-1.9,0.9-4.2,1.2-5.3,2.8c-1.1,1.6-0.5,3.7-0.8,5.6c-0.5,3.4-5,5.9-7.9,3.9c-1-0.8-1.8-1.8-2.3-3
		c-2.7-5-6.5-10.8-12.4-10.9c-2.5,0-4.9,1-7.4,1.6s-5.4,0.7-7.2-1c-1.4-1.3-2.1-3.5-3.9-3.9s-3.6,1.3-4.5,3s-1.5,3.7-3.3,4.5
		c-0.8,0.4-1.7,0.5-2.5,0.9c-3.6,2-1.8,9.1-5.9,9.8l-1.6-15.9c0-1.5-0.4-3-1.1-4.3c-0.5-0.9-1.3-1.5-2-2.3c-0.7-1-1.2-2.2-1.3-3.4
		c-0.3,2.1,0.1,4.2,1.3,6c0.6,0.8,1.4,1.5,2,2.3c0.7,1.3,1.1,2.8,1.1,4.3l1.6,15.9c4.1-0.8,2.3-7.9,5.9-9.8c0.8-0.4,1.7-0.5,2.5-0.9
		c1.7-0.9,2.4-2.9,3.3-4.5c0.9-1.7,2.6-3.4,4.5-3s2.5,2.6,3.9,3.9c1.8,1.7,4.7,1.6,7.2,1s4.8-1.7,7.4-1.6c5.9,0.1,9.7,5.9,12.4,10.9
		c0.5,1.2,1.3,2.2,2.3,3c2.9,2,7.4-0.5,7.9-3.9c0.3-1.9-0.3-4,0.8-5.6s3.5-2,5.3-2.8c4.3-2,5.9-7.1,5.5-11.7
		C327.5,249.1,325.8,252.8,322.3,254.4z"/>
	<path d="M328.3,227.3c-0.4,1.2-1.1,2.3-1.5,3.4c-0.4,1.4-0.5,2.9-0.3,4.3c0.1-0.6,0.2-1.1,0.4-1.7c0.4-1.2,1.1-2.3,1.5-3.4
		c0.3-1.1,0.4-2.2,0.2-3.4C328.5,226.9,328.4,227.1,328.3,227.3z"/>
</g>
<path style="opacity:0.1;enable-background:new    ;" d="M233.5,370.7c-7.4-1.6-24.8-6.8-24.8-6.8l-3.1-0.6
	c0-10.8,0.6-21.3,0.8-24.9h0.1c0,0,14.8,4.8,18.4,7.4s14.5,1.9,14.5,1.9s17.1,1,31.3,16.8S241,372.3,233.5,370.7z"/>
<path style="fill:#A1616A;" d="M161.1,341.9c-2.2,1-3.1,3.5-2.2,5.7c0.3,0.6,0.7,1.1,1.2,1.6c3.9,3.2,9.7,7.1,15.1,7.7
	c9.1,0.9,31.1,5.3,33.3,5.8l0.3,0.1c1.8,0.5,17.7,5.2,24.7,6.7c7.4,1.6,51.3,9.7,37.1-6.1c-13.1-14.5-28.6-16.5-31-16.8
	c-0.2,0-0.4,0-0.6,0c-1.7,0.1-11,0.4-14.3-2c-1.7-1.1-3.5-1.9-5.3-2.6c-7-2.9-14.3-5-21.8-6.3l-15.1-2.5c-0.9-0.2-1.8,0-2.6,0.3
	L161.1,341.9z"/>
<path style="fill:#BBBABA;" d="M192.9,299.8l-7.1-0.6c0,0-7.7,5.8-13.6,5.8s-9.4,7.4-9.4,7.4s-9.7,4.5-12.9,5.2s-8.7,3.9-7.1,5.2
	s-0.3,4.2-3.2,6.5s-7.4,13.9-3.6,15.5s14.5,4.8,17.4,6.5s6.4,0,6.4,0s17.1-22.2,25.8-18s20.7,4.2,20.7,4.2l9.4-19.7L192.9,299.8z"/>
<path style="fill:#464353;" d="M208.4,418.1v83.7h133.9v14H209.8v60h-14V418.1H208.4z"/>
<path style="fill:#464353;" d="M147.1,316.2h53l5.6,94.9h109.7c9.5-0.1,18.7,3.4,25.8,9.8c6.4,5.8,10.3,13.8,11.1,22.3v142.3h-13.9
	l1.4-137.9c0-1.4-0.1-2.9-0.4-4.3c-0.9-3.8-3.3-10.6-9.7-14.5c-2.8-1.6-6-2.5-9.3-2.4H195.9l-7-99.1h-41.8L147.1,316.2L147.1,316.2z
	"/>
<path style="fill:#35323E;" d="M128.9,563.2c0,62.4,36.2,113,80.9,113s80.9-50.6,80.9-113s-36.2-113-80.9-113
	S128.9,500.8,128.9,563.2z M134.5,561.7c0-54.6,31.9-98.9,71.1-98.9s71.2,44.3,71.2,98.9s-31.9,98.9-71.2,98.9
	S134.5,616.3,134.5,561.7z"/>
<ellipse style="fill:#35323E;" cx="201.5" cy="566.7" rx="12.6" ry="18.8"/>
<ellipse style="fill:#464353;" cx="198.7" cy="567.4" rx="2.8" ry="5.6"/>
<path style="fill:#464353;" d="M349.4,539.5v15.3c4.4-2.7,9.2-2,13.4-0.2c6.8,3.1,12,9.1,13.9,16.4c3.4,11.7,10,34.7,15.9,56.4
	C401,658,416.3,651,416.3,651l106.7,7.7l45.3-23v-14H454c0,0-26.5,9.8-37.7,14s-7-4.2-21.7-56.8S349.4,539.5,349.4,539.5z"/>
<polygon style="opacity:0.1;enable-background:new    ;" points="416.3,651.1 523.1,658.8 568.4,635.8 456.8,634.4 "/>
<ellipse style="fill:#BBBABA;" cx="1025.1" cy="635.1" rx="59.5" ry="11.4"/>
<ellipse style="fill:#3F3D56;" cx="1024.1" cy="630.2" rx="6.9" ry="9.1"/>
<ellipse style="fill:#3F3D56;" cx="1024.1" cy="619.2" rx="6.9" ry="9.1"/>
<ellipse style="fill:#3F3D56;" cx="1024.1" cy="608.1" rx="6.9" ry="9.1"/>
<ellipse style="fill:#3F3D56;" cx="1024.1" cy="597" rx="6.9" ry="9.1"/>
<ellipse style="fill:#3F3D56;" cx="1024.1" cy="585.9" rx="6.9" ry="9.1"/>
<ellipse style="fill:#3F3D56;" cx="1024.1" cy="574.9" rx="6.9" ry="9.1"/>
<ellipse style="fill:#3F3D56;" cx="1024.1" cy="563.8" rx="6.9" ry="9.1"/>
<path style="fill:#BBBABA;" d="M1050,488c0.9-1.2,1.8-2.5,2.6-3.8l-18.2-3l19.7,0.1c3.8-8.3,4-17.8,0.6-26.3l-26.4,13.7l24.3-17.9
	c-9.2-15.9-29.5-21.3-45.3-12.1S986,468.2,995.2,484c0.8,1.4,1.7,2.7,2.6,3.9c-1.5,1.9-2.7,3.9-3.8,6l23.6,12.3l-25.2-8.4
	c-3.6,10.6-1.6,22.3,5.3,31.1c-11.3,14.4-8.8,35.2,5.6,46.6c14.4,11.3,35.2,8.8,46.6-5.6c9.5-12,9.5-29,0-41
	C1059.4,517,1059.4,500,1050,488L1050,488z"/>
<path style="opacity:0.1;enable-background:new    ;" d="M990.8,508.5c0,7.4,2.5,14.7,7.1,20.5c-11.3,14.4-8.8,35.2,5.6,46.6
	c14.4,11.3,35.2,8.8,46.6-5.6c9.5-12,9.5-29,0-41C1054.5,523.4,990.8,504.8,990.8,508.5z"/>
<ellipse style="fill:#BBBABA;" cx="93.1" cy="637.6" rx="40.9" ry="7.9"/>
<ellipse style="fill:#3F3D56;" cx="92.4" cy="634.2" rx="4.8" ry="6.2"/>
<ellipse style="fill:#3F3D56;" cx="92.4" cy="626.6" rx="4.8" ry="6.2"/>
<ellipse style="fill:#3F3D56;" cx="92.4" cy="619" rx="4.8" ry="6.2"/>
<ellipse style="fill:#3F3D56;" cx="92.4" cy="611.4" rx="4.8" ry="6.2"/>
<ellipse style="fill:#3F3D56;" cx="92.4" cy="603.7" rx="4.8" ry="6.2"/>
<ellipse style="fill:#3F3D56;" cx="92.4" cy="596.1" rx="4.8" ry="6.2"/>
<ellipse style="fill:#3F3D56;" cx="92.4" cy="588.5" rx="4.8" ry="6.2"/>
<path style="fill:#BBBABA;" d="M110.2,536.3c0.7-0.8,1.2-1.7,1.8-2.6l-12.5-2l13.5,0.1c2.6-5.7,2.8-12.3,0.4-18.1l-18.2,9.4
	l16.8-12.3c-6.3-10.9-20.3-14.7-31.2-8.4s-14.7,20.3-8.4,31.2c0.5,0.9,1.2,1.8,1.8,2.7c-1,1.3-1.9,2.7-2.6,4.2L88,549l-17.3-5.8
	c-0.8,2.4-1.2,4.8-1.2,7.3c0,5.1,1.7,10.1,4.9,14.1c-7.8,9.9-6.1,24.3,3.8,32.1s24.3,6.1,32.1-3.8c6.5-8.3,6.5-20,0-28.3
	C116.8,556.3,116.8,544.7,110.2,536.3L110.2,536.3z"/>
<path style="opacity:0.1;enable-background:new    ;" d="M69.5,550.5c0,5.1,1.7,10.1,4.9,14.1c-7.8,9.9-6.1,24.3,3.8,32.1
	s24.3,6.1,32.1-3.8c6.5-8.3,6.5-20,0-28.3C113.3,560.7,69.5,547.9,69.5,550.5z"/>
<ellipse style="fill:#BBBABA;" cx="608.1" cy="613.1" rx="29.9" ry="5.8"/>
<ellipse style="fill:#3F3D56;" cx="607.6" cy="610.6" rx="3.5" ry="4.6"/>
<ellipse style="fill:#3F3D56;" cx="607.6" cy="605" rx="3.5" ry="4.6"/>
<ellipse style="fill:#3F3D56;" cx="607.6" cy="599.5" rx="3.5" ry="4.6"/>
<ellipse style="fill:#3F3D56;" cx="607.6" cy="593.9" rx="3.5" ry="4.6"/>
<ellipse style="fill:#3F3D56;" cx="607.6" cy="588.3" rx="3.5" ry="4.6"/>
<ellipse style="fill:#3F3D56;" cx="607.6" cy="582.8" rx="3.5" ry="4.6"/>
<ellipse style="fill:#3F3D56;" cx="607.6" cy="577.2" rx="3.5" ry="4.6"/>
<path style="fill:#BBBABA;" d="M620.6,539.1c0.5-0.6,0.9-1.2,1.3-1.9l-9.2-1.5l9.9,0.1c1-2.2,1.5-4.6,1.5-7c0-2.1-0.4-4.3-1.2-6.2
	l-13.3,6.9l12.2-9c-4.6-8-14.9-10.6-22.8-6c-8,4.6-10.6,14.9-6,22.8c0.4,0.6,0.8,1.3,1.2,1.8c-0.7,0.9-1.4,1.9-1.9,3l11.9,6.2
	l-12.7-4.2c-1.8,5.3-0.8,11.2,2.7,15.7c-5.7,7.2-4.4,17.7,2.8,23.4s17.7,4.4,23.4-2.8c4.8-6.1,4.8-14.6,0-20.6
	C625.4,553.6,625.4,545.1,620.6,539.1L620.6,539.1z"/>
<path style="opacity:0.1;enable-background:new    ;" d="M590.8,549.4c0,3.7,1.3,7.4,3.6,10.3c-5.7,7.2-4.4,17.7,2.8,23.4
	s17.7,4.4,23.4-2.8c4.8-6.1,4.8-14.6,0-20.6C622.9,556.8,590.8,547.5,590.8,549.4z"/>
<circle style="opacity:0.1;fill:#BBBABA;enable-background:new    ;" cx="579.1" cy="403.3" r="20.9"/>
</svg>
