<?xml version="1.0" encoding="utf-8"?>
<!-- Generator: Adobe Illustrator 24.0.1, SVG Export Plug-In . SVG Version: 6.00 Build 0)  -->
<svg version="1.1" id="b00c7f6f-711d-4646-8fea-9e48198eb220"
	 xmlns="http://www.w3.org/2000/svg" xmlns:xlink="http://www.w3.org/1999/xlink" x="0px" y="0px" viewBox="0 0 1080 651.4"
	 style="enable-background:new 0 0 1080 651.4;" xml:space="preserve">
<rect x="43" y="32.5" style="fill:#999999;" width="994" height="549"/>
<path style="fill:#F2F2F2;" d="M285.5,346.6l-1.2-0.3c32-141.3,172.5-230,313.8-198c68,15.4,127.1,57.2,164.2,116.2
	c15.7,24.9,27.1,52.3,33.6,81.1l-1.2,0.3C767.6,226.5,662.9,143,540.2,143C419.1,143,312,228.7,285.5,346.6z"/>
<path style="fill:#3F3D56;" d="M1080,614H0V0h1080V614z M2,612h1076V2H2V612z"/>
<circle style="fill:#F2F2F2;" cx="74" cy="46" r="9"/>
<circle style="fill:#F2F2F2;" cx="101" cy="46" r="9"/>
<circle style="fill:#F2F2F2;" cx="128" cy="46" r="9"/>
<path style="fill:#F2F2F2;" d="M43,419.7v2c75.6,17.5,133.7,81.3,142.8,159.7h2C178.7,501.9,119.7,437.3,43,419.7z"/>
<path style="opacity:0.1;enable-background:new    ;" d="M149.3,581.5H43V468.3C98.3,480.6,140.5,525.5,149.3,581.5z"/>
<path style="opacity:0.1;enable-background:new    ;" d="M1037,472.7V579H923.8C936.1,523.7,981,481.5,1037,472.7z"/>
<path style="fill:#F2F2F2;" d="M911.8,183.1l-0.6-0.8L671.8,380.9l-0.8,0.6l165.9,200h2.6L673.8,381.8l237.1-196.6l126.1,152V334
	L911.8,183.1z"/>
<path style="fill:#3F3D56;" d="M436.5,366.1c0,5.1-0.1,10.3-0.6,15.5c-0.2,3.4-0.6,6.7-1.1,10.1c-0.2,2-0.5,3.9-0.9,5.8
	c-0.6,3.4-1.2,6.7-1.9,10.1c-0.1,0.5-0.2,1-0.4,1.5c-7.4,32.2-23.2,61.8-45.9,85.8c26.3,20.2,31.3,57.9,11.1,84.2
	c-20.2,26.3-57.9,31.3-84.2,11.1c-13-10-21.4-24.8-23.2-41.1c-22.8,4.9-46.3,5.5-69.3,1.6C119,534.2,50.4,438.5,67,337.2
	s112.4-170,213.7-153.3c69.5,11.4,126.5,61.1,147.4,128.3c0.2,0.5,0.3,1,0.5,1.5c1.7,5.5,3.1,11,4.2,16.7c0.7,3.3,1.3,6.7,1.8,10.1
	c0.7,5.1,1.3,10.3,1.6,15.5C436.4,359.3,436.5,362.7,436.5,366.1z"/>
<circle style="fill:#A0616A;" cx="734.5" cy="189.8" r="61.7"/>
<path style="fill:#A0616A;" d="M758.6,237c0,0-7.7,36.6-7.7,40.5s-36.6,21.2-36.6,21.2l-32.8-5.8L670,258.3c0,0,19.3-28.9,19.3-40.5
	L758.6,237z"/>
<path style="fill:#D0CDE1;" d="M833.8,323.8l-39,113.2l0,0L776,491.5c0,0-1.9,63.6-3.8,69.4s1.9,7.7,3.8,9.6
	c1.9,1.9-1.9,7.7-3.8,7.7c-0.4,0-1,1.2-1.6,3.2h-187l15-159.4l-0.9-7.4l-16.4-133.3l95.1-33.4l0,0c0,0.7-0.2,27.8,28.3,37.3
	c28.9,9.6,48.8-22.8,48.8-22.8L833.8,323.8z"/>
<path style="fill:#A0616A;" d="M441.5,592.7c0,0-52.1,32.8-46.3,54s65.5-36.6,65.5-38.6S441.5,592.7,441.5,592.7z"/>
<path style="fill:#2F2E41;" d="M788,140.1c0,0-19.6-42.4-57.1-32.6s-58.8,24.5-60.4,39.2s0.8,36.7,0.8,36.7s4.1-30.2,30.2-23.7
	s66.9,1.6,66.9,1.6l6.5,58.8c0,0,7.3-10.6,15.5-4.1S814.1,153.2,788,140.1z"/>
<path style="fill:#D0CDE1;" d="M870.5,499.2c0,0,0,44-16.2,82.3h-55.6l0.5-1.3v-9.6c0,0,5.8-7.7,5.8-9.6s-7.7-1.9-1.9-5.8
	c5.8-3.9,11.6-42.4,11.6-42.4s-1.9-7.7-3.9-9.6c-1.9-1.9,1.9-7.7,1.9-7.7l-3.8-5.8l-14-52.6l0,0l-11.1-41.8L805,324h28.9
	c0,0,25.1,21.2,23.1,61.7L870.5,499.2z"/>
<path style="fill:#D0CDE1;" d="M614,275.6l-32.8,5.8c0,0-19.3,19.3-27,42.4l-15.4,69.4l-25.1,50.1c0,0-28.9,28.9-50.1,94.5
	l-30.8,57.8l32.8,19.3c0,0,90.6-106,102.2-142.7l50.1-96.4L614,275.6z"/>
<circle style="fill:#3F3D56;" cx="415" cy="622" r="15"/>
<path style="fill:#F2F2F2;" d="M97.4,407.6v-93.9h331.2c-0.2-0.5-0.3-1-0.5-1.5H95.9v97h335.9c0.1-0.5,0.2-1,0.4-1.5L97.4,407.6z"/>
<rect x="112.2" y="350.6" style="opacity:0.1;enable-background:new    ;" width="40.4" height="40.4"/>
<path style="fill:#F2F2F2;" d="M111.4,329.6v62.1h62.1v-62.1H111.4z M172,390.2h-59v-59h59V390.2z"/>
<path style="fill:#FF6584;" d="M296,481h-36v-36h36V481z M262,479h32v-32h-32V479z"/>
<polygon style="fill:#F2F2F2;" points="217.2,469.5 204.3,457.7 205.7,456.3 216.8,466.5 242.2,428.4 243.8,429.6 "/>
<polygon style="fill:#F2F2F2;" points="230,454 230,479 198,479 198,447 223,447 223,445 196,445 196,481 232,481 232,454 "/>
<path style="fill:#F2F2F2;" d="M980.4,122C962,122,947,107.1,947,88.7s14.9-33.4,33.4-33.4c18.4,0,33.4,14.9,33.4,33.4l0,0
	C1013.7,107.1,998.8,122,980.4,122z M980.4,56.8c-17.6,0-31.8,14.2-31.8,31.8s14.2,31.8,31.8,31.8s31.8-14.2,31.8-31.8l0,0
	C1012.2,71.1,998,56.9,980.4,56.8z"/>
<polygon style="fill:#F2F2F2;" points="1001.9,69.8 1000.8,68.7 980.4,89.1 960,68.7 958.9,69.8 979.3,90.2 961.6,107.9 962.7,109 
	980.4,91.3 998.1,109 999.2,107.9 981.5,90.2 "/>
<rect x="214" y="344.7" style="fill:#F2F2F2;" width="192" height="2"/>
<rect x="214" y="360.7" style="fill:#F2F2F2;" width="192" height="2"/>
<rect x="214" y="376.7" style="fill:#F2F2F2;" width="192" height="2"/>
</svg>
