<?xml version="1.0" encoding="utf-8"?>
<!-- Generator: Adobe Illustrator 24.0.1, SVG Export Plug-In . SVG Version: 6.00 Build 0)  -->
<svg version="1.1" id="adda4e41-4675-4828-8905-d91a367a8d62"
	 xmlns="http://www.w3.org/2000/svg" xmlns:xlink="http://www.w3.org/1999/xlink" x="0px" y="0px" viewBox="0 0 485.7 668.6"
	 style="enable-background:new 0 0 485.7 668.6;" xml:space="preserve">
<path style="fill:#3F3D56;" d="M211.1,453.6c-15.3,0-28.7,15.9-36,39.8c-0.5,1.7-1,3.4-1.5,5.1c-3.1,12.2-4.7,24.8-4.6,37.4
	c0,45.3,18.9,82.2,42.1,82.2s42.1-36.9,42.1-82.2S234.4,453.6,211.1,453.6z M211.1,616.7c-22.5,0-40.8-36.3-40.8-80.9
	c-0.1-12.6,1.5-25.3,4.7-37.5c0.4-1.6,0.9-3.2,1.4-4.8c7.2-23.1,20.1-38.6,34.8-38.6c22.5,0,40.8,36.3,40.8,80.9
	C252,580.4,233.6,616.7,211.1,616.7L211.1,616.7z"/>
<path style="fill:#3F3D56;" d="M221.3,583.4c-8.1,0-14.4-20.9-14.4-47.5c0-26.7,6.3-47.5,14.4-47.5s14.4,20.9,14.4,47.5
	C235.6,562.5,229.3,583.4,221.3,583.4z M221.3,489.6c-7.1,0-13.1,21.2-13.1,46.2c0,25.1,6,46.2,13.1,46.2s13.1-21.2,13.1-46.2
	C234.3,510.7,228.3,489.6,221.3,489.6L221.3,489.6z"/>
<ellipse style="fill:#CFCCE0;" cx="222.9" cy="535.8" rx="5.5" ry="10.9"/>
<polygon style="fill:#3F3D56;" points="210.8,387.7 300.2,387.3 300.2,422.6 210.8,426.2 "/>
<polygon style="fill:#3F3D56;" points="134.5,507.1 133.2,507.1 137.1,435.3 218,435.3 218,436.6 138.3,436.6 "/>
<polygon style="fill:#3F3D56;" points="134.3,623.2 88.6,615.4 88.9,614.1 134.6,622 "/>
<rect x="170.7" y="613.4" transform="matrix(8.208139e-02 -0.9966 0.9966 8.208139e-02 -481.7722 759.4456)" style="fill:#3F3D56;" width="1.3" height="55.7"/>
<path style="fill:#3F3D56;" d="M272.3,507.2c-0.5,1.6-1,3.2-1.4,4.8l-1.4,0.2l-42.4,4.7l-97.2-9.8l101.2-5.2l40,5.2L272.3,507.2z"/>
<path style="fill:#2F2E41;" d="M250.1,273.6c0,0-14.1-5-23.2,15.1s-23.2,42.4-23.2,42.4l8.1,2c0,0,2-14.1,7.1-16.2l-2,18.2
	c0,0,60.6,21.2,87.8-2l-1-7.1c0,0,4,1,4,7.1l3-3c0,0-3-6.1-12.1-14.1c-6-5.3-8-15.4-8.7-21.7c-0.5-5.3-2.6-10.2-6-14.3
	C277.8,273.1,266.8,265.6,250.1,273.6z"/>
<path style="fill:#A0616A;" d="M172,292.7l-5.9-61.3c0,0-11.7-33.3,5.9-30.7s7.2,28.1,7.2,28.1l9.8,64h-17V292.7z"/>
<polygon style="fill:#A0616A;" points="126.3,571.4 119.8,593.6 132.2,604 141.3,575.9 "/>
<path style="fill:#A0616A;" d="M176.6,587.7l-6.5,23.5l22.8,14.4c0,0,0.7-26.8,3.9-32L176.6,587.7z"/>
<path style="fill:#2F2E41;" d="M204.6,462.4l-3.3,6.5c0,0-37.2-17-47,6.5S123,573.3,123,573.3l18.9,7.8l34.6-79l79-2l3.3-43.7
	L204.6,462.4z"/>
<path style="fill:#2F2E41;" d="M232,473.5c0,0-53.5-11.1-57.4,15.7c-3.9,26.8,2,77.7,2.6,79s-2.6,25.5-2.6,25.5l23.5,3.3
	c0,0,15-71.1,8.5-89.4l44.2-2.7c15.2-0.9,27.7-13,28.6-28.2c0.3-5.8-1.1-11.1-6.2-14.1c-15.7-9.1-44.4-9.1-44.4-9.1L232,473.5z"/>
<path style="fill:#2F2E41;" d="M128.3,592.9c0,0-4.6-9.8-11.1-5.2s-21.5,14.4-21.5,14.4s-23.2,8.2-2.6,13.7
	c18.3,4.9,22.8,3.9,22.8,3.9s15,2.6,17,1.3s3.3-22.2,3.3-22.2S127,596.8,128.3,592.9z"/>
<path style="fill:#2F2E41;" d="M179.2,613.1c0,0-6.5-9.1-11.1-5.2s-20.9,15-20.9,15s-27.4,7.8-3.3,15s50.9,5.9,51.6,3.3
	s-1.3-21.5-1.3-21.5S180.5,619,179.2,613.1z"/>
<circle style="fill:#A0616A;" cx="257.5" cy="314.9" r="23.5"/>
<path style="fill:#A0616A;" d="M240.5,325.3c0,0-1.3,26.8-7.8,28.7s-24.8,23.5-16.3,30s57.4,2,57.4,2l-4.6-33.9c0,0-10.4-7.2-2-19.6
	L240.5,325.3z"/>
<path style="fill:#CFCCE0;" d="M239.9,369.7l-4.6-21.5l-15-5.9L207.9,371c0,0-14,93-10.1,94.3c2.2,0.8,4.5,1.1,6.9,1
	c0,0,20.9-6.5,27.4-3.3s40.5,5.9,40.5,5.9s23.5-12.4,22.2-23.5s0-73.1,0-73.1l-2.9-27.7l-25.8,4L239.9,369.7z"/>
<polygon style="fill:#CFCCE0;" points="220.9,345.6 220.3,341.6 202,319.5 191.6,282.3 166.1,292 184.4,337.1 210.5,370.4 "/>
<path style="fill:#2F2E41;" d="M226.6,317.7c0,0,8.1-11.1,15.1-13.1s8.1-12.1,8.1-12.1s18.2,20.2,29.3,21.2s1-24.2,1-24.2l-20.2-5
	l-19.2,2l-15.1,10.1L226.6,317.7z"/>
<polygon style="fill:#3F3D56;" points="302.2,468.6 301.6,441.8 240.8,441.8 238.9,513.6 237.6,513.6 239.6,440.5 302.8,440.5 
	302.8,441.2 303.5,468.6 "/>
<polygon style="fill:#3F3D56;" points="300.9,432 299.6,432 299.6,382.2 320.6,388.3 320.3,389.6 300.9,384 "/>
<path style="fill:#3F3D56;" d="M307.1,467.3c-15.3,0-28.7,15.9-36,39.8c-0.5,1.7-1,3.4-1.5,5.1c-3.1,12.2-4.7,24.8-4.6,37.4
	c0,45.3,18.9,82.2,42.1,82.2s42.1-36.9,42.1-82.2S330.3,467.3,307.1,467.3z M307.1,630.4c-22.5,0-40.8-36.3-40.8-80.9
	c-0.1-12.6,1.5-25.3,4.7-37.5c0.4-1.6,0.9-3.2,1.4-4.8c7.2-23.1,20.1-38.6,34.8-38.6c22.5,0,40.8,36.3,40.8,80.9
	S329.6,630.4,307.1,630.4z"/>
<path style="fill:#3F3D56;" d="M317.2,597.1c-8.1,0-14.4-20.9-14.4-47.5s6.3-47.5,14.4-47.5s14.4,20.9,14.4,47.5
	S325.3,597.1,317.2,597.1z M317.2,503.3c-7.1,0-13.1,21.2-13.1,46.2s6,46.2,13.1,46.2s13.1-21.2,13.1-46.2S324.3,503.3,317.2,503.3
	L317.2,503.3z"/>
<ellipse style="fill:#CFCCE0;" cx="318.8" cy="549.5" rx="5.5" ry="10.9"/>
<polygon style="fill:#3F3D56;" points="310,381.1 323.7,386.4 321.1,393.5 310,389 "/>
<polygon style="fill:#3F3D56;" points="255.9,437.3 255.9,447.7 294.7,447.7 294.7,438 "/>
<polygon style="fill:#3F3D56;" points="156,432 156,442.5 194.9,442.5 194.9,432.7 "/>
<path style="fill:#3F3D56;" d="M227.1,406.7h-0.3V398c0-2.8-2.3-5-5-5l0,0h-18.4c-2.8,0-5,2.3-5,5l0,0v47.7c0,2.8,2.3,5,5,5l0,0
	h18.4c2.8,0,5-2.3,5-5l0,0v-32.8h0.3V406.7z"/>
<circle style="fill:#D0CDE1;" cx="212.7" cy="407.8" r="3.1"/>
<path style="fill:#A0616A;" d="M290.8,437.9l-61.6-1.2c0,0-34.4,7.9-29.8-9.3s28.7-3.9,28.7-3.9l64.7-2.4L290.8,437.9z"/>
<path style="fill:#CFCCE0;" d="M284.6,349.1l5.9-4.6c0,0,9.8-5.2,11.7,13.1s16.3,79,2,79.6s-50.9,1.3-50.9,1.3l3.9-20.2l30-2
	L284.6,349.1z"/>
<polygon style="opacity:0.15;enable-background:new    ;" points="286.5,377.2 284.6,414.4 255.9,420.3 282,409.8 "/>
<path style="fill:#3F3D56;" d="M169.1,218v-78.7h230v58.2H189.6L169.1,218z M171.1,141.3v71.9l17.7-17.7h208.3v-54.2L171.1,141.3z"
	/>
<rect x="220.9" y="154" style="fill:#6C63FF;" width="128.3" height="10.4"/>
<rect x="220.9" y="169.6" style="fill:#6C63FF;" width="128.3" height="10.4"/>
</svg>
