<?xml version="1.0" encoding="utf-8"?>
<!-- Generator: Adobe Illustrator 24.0.1, SVG Export Plug-In . SVG Version: 6.00 Build 0)  -->
<svg version="1.1" id="a8897f4c-2937-4134-8b3a-fee1040aeff6"
	 xmlns="http://www.w3.org/2000/svg" xmlns:xlink="http://www.w3.org/1999/xlink" x="0px" y="0px" viewBox="0 0 1066.1 824.2"
	 style="enable-background:new 0 0 1066.1 824.2;" xml:space="preserve">
<path style="fill:#2F2E41;" d="M475.7,417.7c-20.8-35-61.9-36.7-61.9-36.7s-40-5.1-65.7,48.3c-23.9,49.8-56.9,97.9-5.4,109.4
	l9.3-28.9l5.8,31.2c7.3,0.6,14.7,0.6,22,0.4c55.2-1.8,107.9,0.6,106.2-19.3C484,495.7,495.6,451.5,475.7,417.7z"/>
<path style="fill:#E2C7B5;" d="M390.5,491c7.1,15.8,11.6,34.7,14.3,55.6l57.5-3.5c-13.3-18.6-17.5-40.1-12.6-64.7L390.5,491z"/>
<path style="opacity:0.2;enable-background:new    ;" d="M390.5,491c7.1,15.8,11.6,34.7,14.3,55.6l57.5-3.5
	c-13.3-18.6-17.5-40.1-12.6-64.7L390.5,491z"/>
<path style="fill:#7C6253;" d="M124.2,792.2c0,0-29.7,16-14.7,29.5c15.1,13.6,35-17.9,35-17.9L124.2,792.2z"/>
<polygon style="fill:#2F2E41;" points="487.4,745.8 487,767.5 486,814.5 486,814.5 485.7,828.1 295.6,828.1 303.4,785.3 
	303.4,785.2 310.3,746.9 313.3,729.7 313.3,729.7 469.5,708.2 "/>
<path style="fill:#3F3D56;" d="M487.4,745.8l-0.4,21.7c-55.2-1.4-140.8-14.7-176.7-20.6l3.1-17.2l156-21.5L487.4,745.8z"/>
<circle style="fill:#B89D82;" cx="418.4" cy="461.5" r="44.8"/>
<path style="fill:#6C63FF;" d="M504.4,770c0,0,5.4,48.4-27,44.8l-5.4-48.4l-28.7-28.7l-80.8-1.8l-59.2,55.6c0,0-1.8-57.5,5.4-62.8
	c7.2-5.4,23.3-17.9,23.3-17.9v-8.9l-48.4-98.7c0,0,28.7-59.2,52-61l30.5-1.8c0,0,10.7-5.4,10.7-7.2s-1.8-16.1,7.2-12.6
	c0,0,0.8-18.4,10.3-12.9c0,0,29.8,23.3,59.9,1c0,0,14.1-2.7,12.3,4.7c-1.8,7.2,0,12.6,3.5,12.6s19.8,5.4,19.8,8.9
	c0,0.8,1.1,8.2,3,19.3l0,0c6.6,40.8,22,131.3,22,131.3S531.3,709,504.4,770z"/>
<path style="fill:#6C63FF;" d="M296.3,594.2l-12.6,8.9L169,750.3l-61,48.4c0,0,34-5.4,27,23.3l209.8-120.2L296.3,594.2z"/>
<path style="fill:#3F3D56;" d="M493.1,554.4L493.1,554.4c-2.4,14-80.1,11-90.9,11c-10.7,0-19.8-1.8-30.5-8.9
	c-10.7-7.1-5.4-16.1-5.4-16.1s9.2-6.9,9.2-8.8s-1.8-16.1,7.2-12.6c0,0,0.8-18.4,10.3-12.9c0,0,31.3,25,61.6,2.7
	c0,0,14.1-2.7,12.3,4.7c-1.8,7.2,0,12.6,3.5,12.6s19.8,5.4,19.8,8.9C490.1,535.8,491.2,543.3,493.1,554.4z"/>
<path style="fill:#957C67;" d="M483.9,487.5c0,0-14.3-30.5-28.7-16.1c-14.4,14.4,16.1,35.9,16.1,35.9L483.9,487.5z"/>
<path style="fill:#6C63FF;" d="M483.9,480.3c0,0-22.2,28-28.9,30.2c0,0,20.1,79.2,45.2,100.8l14.3,73.6c0,0,61-25.1,46.6-66.4
	c-0.1-0.4-0.3-0.8-0.4-1.3c-12-34.3-28.5-66.9-49.1-96.9L483.9,480.3z"/>
<polygon style="opacity:0.2;enable-background:new    ;" points="472,563.3 516.1,684.8 500,611.3 "/>
<polygon style="fill:#2F2E41;" points="466.5,414.3 426,393 369.9,401.8 358.3,453 387.3,451.9 395.2,433 395.2,451.6 408.6,451 
	416.2,421.1 421.2,453 468.5,451.9 "/>
<path style="fill:#AA7536;" d="M849.6,690.4l23,82c0,0-4.8,72.7,17.4,58.5c22.6-14.5,14.3-75.8,14.3-75.8L891,681.5L849.6,690.4z"/>
<path style="fill:#D0CDE1;" d="M862,460.1l19.1,19.1v90.5c0,0,11.2,16.8,8.9,21.2s-4.4,4.4-2.3,7.9c2.3,3.4,4.4,5.6,2.3,7.9
	c-2.3,2.3-2.3,7.9,0,10c2.3,2.3,6.8,5.6,3.4,8.9c-3.4,3.4-7.9,1.1-3.4,13.4c4.5,12.3,12.3,15.7,10,20.1c-2.3,4.4-2.3,15.7-2.3,15.7
	l-48,6.8l-10-126.2L862,460.1z"/>
<polygon style="fill:#3F3D56;" points="900,673.6 844.1,675.9 846.4,699.3 895.5,690.4 "/>
<polygon style="fill:#925F2D;" points="746.3,343.3 739.6,410.4 807.8,420.4 812.8,381.8 817.8,343.3 "/>
<polygon style="opacity:0.1;enable-background:new    ;" points="746.3,342.9 739.6,410 807.8,420 812.8,381.4 817.8,342.9 "/>
<path style="fill:#AA7536;" d="M598.1,662.4l38,81.6c0,0,6.8,38,16.8,39.1S673,744,673,744l-13.4-21.2l-15.7-60.4L598.1,662.4
	L598.1,662.4z"/>
<path style="fill:#2F2E41;" d="M858.4,828.9h-215c1.7-27,2.8-43.5,2.8-43.5l2.8-4.5l13.8-21.9l9.9-15.5l3.5-5.4l1.3-2l13.6-2.4
	l139.7-25.6c2.3,10.3,5.5,20.5,9.7,30.2c1,2.1,2,4.4,3.1,6.5c3.5,6.9,7.8,13.3,12.9,18.1c1.1,1.1,2,4,2.5,8.5
	C860.2,782.5,859.8,802.7,858.4,828.9z"/>
<circle style="fill:#AA7536;" cx="783.7" cy="311.5" r="53.7"/>
<path style="fill:#D0CDE1;" d="M664.1,421l-7.9-4.4c0,0-34.7,23.4-45.9,76c-11.2,52.5-19.1,65.9-19.1,65.9s-11.2,2.3-3.4,10
	c7.9,7.9,7.9,6.8,1.1,11.2s-11.2-4.4-6.8,4.4c4.4,8.9,10,6.8,5.6,12.3s-12.3,5.6-7.9,10c4.4,4.4-4.4,14.5,1.1,19.1
	c5.5,4.4,7.9,5.6,7.9,13.4c0,4.7,0.7,9,2.3,13.4h58.2c0,0-11.2-21.2-7.9-25.7c3.4-4.4,4.4-8.9,2.3-11.2c-2.3-2.3-8.9,2.3-2.3-3.4
	c6.8-5.6,8.9-2.3,6.8-8.9c-2.3-6.8-6.8-3.4-2.3-6.8c4.4-3.4,7.9-2.3,5.6-5.6c-2.3-3.4-6.8-3.4-2.3-5.6c4.4-2.3,7.9,0,6.8-5.6
	c-1.1-5.6-2.3-3.4,0-5.6c2.3-2.3,25.7-78.2,25.7-80.5C681.9,491,664.1,421,664.1,421z"/>
<polygon style="fill:#3F3D56;" points="652.9,647.9 582.4,652.4 600.4,669.1 649.5,670.2 "/>
<path style="fill:#3F3D56;" d="M673.1,731.8l-14.5,26.8c0,0,43.6,5.6,59.2,11.2c15.5,5.5,55.9,13.4,55.9,13.4l10-39.1L673.1,731.8z"
	/>
<polygon style="fill:#3F3D56;" points="800.5,744.1 812.8,780.9 862,770.9 856.4,736.2 "/>
<path style="fill:#D0CDE1;" d="M820.5,383c0,0-3.4-2.3-11.2,2.3c-7.9,4.4-33.6,6.8-45.9-6.8c-12.3-13.4-21.2-24.6-24.6-22.3
	c-3.4,2.3-5.6,28-5.6,28l-11.2,8.9l-65.9,23.4l5.6,151l10,34.7c0,0-7.9,26.8,2.3,42.5c10,15.7-5.6,21.2-5.6,21.2s-3.4,4.4-1.1,15.7
	c2.3,11.2-2.3,52.5-2.3,52.5s95,42.5,194.5,5.6l-11.2-42.5l-5.6-95c0,0,5.6-15.7,4.4-22.3c-1.1-6.8,33.6-100.7,33.6-100.7
	s-5.6-47-34.7-57c-29.1-10-33.3-20.1-33.3-20.1S826.2,387.5,820.5,383z"/>
<path style="fill:#2F2E41;" d="M729.7,318.3c0,0-5.5-8.3-3.4-17.4c1.3-5.1,1.8-10.3,1.6-15.7c0,0,4.5-14.5,9-22.7
	s2.4-11.6,16.5-14.1c14.1-2.7,8.3-21,45.6-1.1c2.5,3.5,7.1,5.4,11.3,4.2c7.6-1.6,10.6,9.2,10.6,9.2s5.1-3,7.1,1.3
	c1.8,4.2,15.7-2.5,15.7,26.4s-15.5,54.9-15.5,54.9s1.1-48.7-24.4-53.7c-25.6-4.9-53-19.3-59.6-0.8
	C737.5,307.3,729.7,318.3,729.7,318.3z"/>
<ellipse style="fill:#925F2D;" cx="828.4" cy="323.2" rx="5.1" ry="6.8"/>
</svg>
