<?xml version="1.0" encoding="utf-8"?>
<!-- Generator: Adobe Illustrator 24.0.1, SVG Export Plug-In . SVG Version: 6.00 Build 0)  -->
<svg version="1.1" id="bc93702e-9e3d-488b-8c6f-4910573f82d1"
	 xmlns="http://www.w3.org/2000/svg" xmlns:xlink="http://www.w3.org/1999/xlink" x="0px" y="0px" viewBox="0 0 882.5 556.1"
	 style="enable-background:new 0 0 882.5 556.1;" xml:space="preserve">
<linearGradient id="SVGID_1_" gradientUnits="userSpaceOnUse" x1="209.35" y1="341.1" x2="209.35" y2="103.3" gradientTransform="matrix(1 0 0 1 0 -76)">
	<stop  offset="0" style="stop-color:#808080;stop-opacity:0.25"/>
	<stop  offset="0.54" style="stop-color:#808080;stop-opacity:0.12"/>
	<stop  offset="1" style="stop-color:#808080;stop-opacity:0.1"/>
</linearGradient>
<rect y="27.3" style="fill:url(#SVGID_1_);" width="418.7" height="237.8"/>
<rect x="4.5" y="61.9" style="fill:#FFFFFF;" width="408.7" height="197.6"/>
<linearGradient id="SVGID_2_" gradientUnits="userSpaceOnUse" x1="103.3" y1="304.3" x2="103.3" y2="154.7" gradientTransform="matrix(1 0 0 1 0 -76)">
	<stop  offset="0" style="stop-color:#808080;stop-opacity:0.25"/>
	<stop  offset="0.54" style="stop-color:#808080;stop-opacity:0.12"/>
	<stop  offset="1" style="stop-color:#808080;stop-opacity:0.1"/>
</linearGradient>
<rect x="32.4" y="78.7" style="fill:url(#SVGID_2_);" width="141.8" height="149.6"/>
<rect x="36.8" y="82" style="fill:#E0E0E0;" width="134" height="142.9"/>
<rect x="4.5" y="31.8" style="opacity:0.2;fill:#6C63FF;enable-background:new    ;" width="408.7" height="30.1"/>
<rect x="225.6" y="123.9" style="fill:#E0E0E0;" width="155.2" height="10"/>
<rect x="225.6" y="166.3" style="fill:#F5F5F5;" width="155.2" height="10.1"/>
<rect x="224.4" y="145.1" style="opacity:0.2;fill:#6C63FF;enable-background:new    ;" width="91.6" height="10.1"/>
<rect x="224.4" y="187.5" style="opacity:0.2;fill:#69F0AE;enable-background:new    ;" width="62.5" height="10.1"/>
<rect x="298.1" y="187.5" style="fill:#69F0AE;" width="62.5" height="10.1"/>
<linearGradient id="SVGID_3_" gradientUnits="userSpaceOnUse" x1="654.35" y1="341.1" x2="654.35" y2="103.3" gradientTransform="matrix(1 0 0 1 0 -76)">
	<stop  offset="0" style="stop-color:#808080;stop-opacity:0.25"/>
	<stop  offset="0.54" style="stop-color:#808080;stop-opacity:0.12"/>
	<stop  offset="1" style="stop-color:#808080;stop-opacity:0.1"/>
</linearGradient>
<rect x="445" y="27.3" style="fill:url(#SVGID_3_);" width="418.7" height="237.8"/>
<rect x="449.5" y="61.9" style="fill:#FFFFFF;" width="408.7" height="197.6"/>
<linearGradient id="SVGID_4_" gradientUnits="userSpaceOnUse" x1="548.3" y1="304.3" x2="548.3" y2="154.7" gradientTransform="matrix(1 0 0 1 0 -76)">
	<stop  offset="0" style="stop-color:#808080;stop-opacity:0.25"/>
	<stop  offset="0.54" style="stop-color:#808080;stop-opacity:0.12"/>
	<stop  offset="1" style="stop-color:#808080;stop-opacity:0.1"/>
</linearGradient>
<rect x="477.4" y="78.7" style="fill:url(#SVGID_4_);" width="141.8" height="149.6"/>
<rect x="481.9" y="82" style="opacity:0.2;fill:#6C63FF;enable-background:new    ;" width="134" height="142.9"/>
<path style="fill:#FFFFFF;" d="M586.2,138.5c-1-8.5-2.5-17-5.8-24.9s-8.5-15.2-15.7-19.8c-2.6-1.7-5.6-2.8-8.7-3
	c-5.7-0.2-11,3.6-13.9,8.5c-1,1.7-1.9,3.5-2.6,5.3c-5.6,1-9.8,5.6-10.2,11.2c-15.9,6.8-23.3,25.1-16.5,41c3.8,8.9,11.5,15.6,20.9,18
	v5.3c-13.8,3.6-23.4,16-23.5,30.3V225H573v-14.5c0-14.2-9.7-26.7-23.5-30.3v-5.3c13.8-3.6,23.4-16,23.5-30.3c0-0.1,0-0.1,0-0.2
	l3.5,7.8c3.3,7.5,6.8,15.5,5.5,23.5C588.4,164.7,587.8,151.1,586.2,138.5z"/>
<rect x="449.5" y="31.8" style="opacity:0.2;fill:#6C63FF;enable-background:new    ;" width="408.7" height="30.1"/>
<rect x="670.6" y="123.9" style="fill:#E0E0E0;" width="155.2" height="10"/>
<rect x="670.6" y="166.3" style="fill:#F5F5F5;" width="155.2" height="10.1"/>
<rect x="669.5" y="145.1" style="opacity:0.2;fill:#6C63FF;enable-background:new    ;" width="91.6" height="10.1"/>
<rect x="669.5" y="187.5" style="opacity:0.2;fill:#69F0AE;enable-background:new    ;" width="62.5" height="10.1"/>
<rect x="743.1" y="187.5" style="fill:#69F0AE;" width="62.5" height="10.1"/>
<linearGradient id="SVGID_5_" gradientUnits="userSpaceOnUse" x1="654.35" y1="632.1" x2="654.35" y2="394.3" gradientTransform="matrix(1 0 0 1 0 -76)">
	<stop  offset="0" style="stop-color:#808080;stop-opacity:0.25"/>
	<stop  offset="0.54" style="stop-color:#808080;stop-opacity:0.12"/>
	<stop  offset="1" style="stop-color:#808080;stop-opacity:0.1"/>
</linearGradient>
<rect x="445" y="318.3" style="fill:url(#SVGID_5_);" width="418.7" height="237.8"/>
<rect x="449.5" y="352.9" style="fill:#FFFFFF;" width="408.7" height="197.6"/>
<linearGradient id="SVGID_6_" gradientUnits="userSpaceOnUse" x1="548.3" y1="595.3" x2="548.3" y2="445.7" gradientTransform="matrix(1 0 0 1 0 -76)">
	<stop  offset="0" style="stop-color:#808080;stop-opacity:0.25"/>
	<stop  offset="0.54" style="stop-color:#808080;stop-opacity:0.12"/>
	<stop  offset="1" style="stop-color:#808080;stop-opacity:0.1"/>
</linearGradient>
<rect x="477.4" y="369.7" style="fill:url(#SVGID_6_);" width="141.8" height="149.6"/>
<rect x="481.9" y="373" style="opacity:0.2;fill:#6C63FF;enable-background:new    ;" width="134" height="142.9"/>
<rect x="449.5" y="322.8" style="opacity:0.2;fill:#6C63FF;enable-background:new    ;" width="408.7" height="30.1"/>
<rect x="670.6" y="414.9" style="fill:#E0E0E0;" width="155.2" height="10"/>
<rect x="670.6" y="457.3" style="fill:#F5F5F5;" width="155.2" height="10"/>
<rect x="669.5" y="436.1" style="opacity:0.2;fill:#6C63FF;enable-background:new    ;" width="91.6" height="10"/>
<rect x="669.5" y="478.5" style="opacity:0.2;fill:#69F0AE;enable-background:new    ;" width="62.5" height="10"/>
<rect x="743.1" y="478.5" style="fill:#69F0AE;" width="62.5" height="10"/>
<linearGradient id="SVGID_7_" gradientUnits="userSpaceOnUse" x1="209.35" y1="632.1" x2="209.35" y2="394.3" gradientTransform="matrix(1 0 0 1 0 -76)">
	<stop  offset="0" style="stop-color:#808080;stop-opacity:0.25"/>
	<stop  offset="0.54" style="stop-color:#808080;stop-opacity:0.12"/>
	<stop  offset="1" style="stop-color:#808080;stop-opacity:0.1"/>
</linearGradient>
<rect y="318.3" style="fill:url(#SVGID_7_);" width="418.7" height="237.8"/>
<rect x="4.5" y="352.9" style="fill:#FFFFFF;" width="408.7" height="197.6"/>
<linearGradient id="SVGID_8_" gradientUnits="userSpaceOnUse" x1="104.3" y1="597.3" x2="104.3" y2="447.7" gradientTransform="matrix(1 0 0 1 0 -76)">
	<stop  offset="0" style="stop-color:#808080;stop-opacity:0.25"/>
	<stop  offset="0.54" style="stop-color:#808080;stop-opacity:0.12"/>
	<stop  offset="1" style="stop-color:#808080;stop-opacity:0.1"/>
</linearGradient>
<rect x="33.4" y="371.7" style="fill:url(#SVGID_8_);" width="141.8" height="149.6"/>
<rect x="36.8" y="373" style="opacity:0.2;fill:#6C63FF;enable-background:new    ;" width="134" height="142.9"/>
<rect x="4.5" y="322.8" style="opacity:0.2;fill:#6C63FF;enable-background:new    ;" width="408.7" height="30.1"/>
<rect x="225.6" y="414.9" style="fill:#E0E0E0;" width="155.2" height="10"/>
<rect x="225.6" y="457.3" style="fill:#F5F5F5;" width="155.2" height="10"/>
<rect x="224.4" y="436.1" style="opacity:0.2;fill:#6C63FF;enable-background:new    ;" width="91.6" height="10"/>
<rect x="224.4" y="478.5" style="opacity:0.2;fill:#69F0AE;enable-background:new    ;" width="62.5" height="10"/>
<rect x="298.1" y="478.5" style="fill:#69F0AE;" width="62.5" height="10"/>
<path style="fill:#FFFFFF;" d="M111.5,472.6v-5.1c17.1-4.4,27.4-21.9,23-39s-21.9-27.4-39-23s-27.4,21.9-23,39
	c2.9,11.3,11.7,20.1,23,23v5.1c-13.5,3.7-23,15.9-23,29.9v14h62v-14C134.5,488.5,125,476.3,111.5,472.6z"/>
<circle style="fill:#FFFFFF;" cx="126.3" cy="404.5" r="22.8"/>
<path style="fill:#FFFFFF;" d="M111.5,181.6v-5.1c17.1-4.4,27.4-21.9,23-39s-21.9-27.4-39-23s-27.4,21.9-23,39
	c2.9,11.3,11.7,20.1,23,23v5.1c-13.5,3.7-23,15.9-23,29.9v14h62v-14C134.5,197.5,125,185.3,111.5,181.6z"/>
<path style="fill:#FFFFFF;" d="M554.5,472.7v-5.1c17.1-4.4,27.4-21.9,23-39s-21.9-27.4-39-23s-27.4,21.9-23,39
	c2.9,11.3,11.7,20.1,23,23v5.1c-13.5,3.7-23,15.9-23,29.9v14h62v-14C577.5,488.6,568,476.4,554.5,472.7z"/>
<circle style="fill:#FFFFFF;" cx="546.5" cy="419.9" r="41.5"/>
<linearGradient id="SVGID_9_" gradientUnits="userSpaceOnUse" x1="392.5" y1="168.5" x2="392.5" y2="76.5" gradientTransform="matrix(1 0 0 1 0 -76)">
	<stop  offset="0" style="stop-color:#808080;stop-opacity:0.25"/>
	<stop  offset="0.54" style="stop-color:#808080;stop-opacity:0.12"/>
	<stop  offset="1" style="stop-color:#808080;stop-opacity:0.1"/>
</linearGradient>
<circle style="fill:url(#SVGID_9_);" cx="392.5" cy="46.5" r="46"/>
<linearGradient id="SVGID_10_" gradientUnits="userSpaceOnUse" x1="836.5" y1="168.5" x2="836.5" y2="76.5" gradientTransform="matrix(1 0 0 1 0 -76)">
	<stop  offset="0" style="stop-color:#808080;stop-opacity:0.25"/>
	<stop  offset="0.54" style="stop-color:#808080;stop-opacity:0.12"/>
	<stop  offset="1" style="stop-color:#808080;stop-opacity:0.1"/>
</linearGradient>
<circle style="fill:url(#SVGID_10_);" cx="836.5" cy="46.5" r="46"/>
<linearGradient id="SVGID_11_" gradientUnits="userSpaceOnUse" x1="392.5" y1="459.5" x2="392.5" y2="367.5" gradientTransform="matrix(1 0 0 1 0 -76)">
	<stop  offset="0" style="stop-color:#808080;stop-opacity:0.25"/>
	<stop  offset="0.54" style="stop-color:#808080;stop-opacity:0.12"/>
	<stop  offset="1" style="stop-color:#808080;stop-opacity:0.1"/>
</linearGradient>
<circle style="fill:url(#SVGID_11_);" cx="392.5" cy="337.5" r="46"/>
<linearGradient id="SVGID_12_" gradientUnits="userSpaceOnUse" x1="836.5" y1="459.5" x2="836.5" y2="367.5" gradientTransform="matrix(1 0 0 1 0 -76)">
	<stop  offset="0" style="stop-color:#808080;stop-opacity:0.25"/>
	<stop  offset="0.54" style="stop-color:#808080;stop-opacity:0.12"/>
	<stop  offset="1" style="stop-color:#808080;stop-opacity:0.1"/>
</linearGradient>
<circle style="fill:url(#SVGID_12_);" cx="836.5" cy="337.5" r="46"/>
<circle style="fill:#FFFFFF;" cx="392.5" cy="46.5" r="42"/>
<circle style="fill:#FFFFFF;" cx="392.5" cy="337.5" r="42"/>
<circle style="fill:#FFFFFF;" cx="836.5" cy="337.5" r="42"/>
<circle style="fill:#FFFFFF;" cx="836.5" cy="46.5" r="42"/>
<linearGradient id="SVGID_13_" gradientUnits="userSpaceOnUse" x1="1047.5619" y1="818.9116" x2="1047.5619" y2="751.7498" gradientTransform="matrix(0.9944 -0.1057 0.1057 0.9944 -281.3068 -634.2668)">
	<stop  offset="0" style="stop-color:#000000;stop-opacity:0.12"/>
	<stop  offset="0.55" style="stop-color:#000000;stop-opacity:9.000000e-02"/>
	<stop  offset="1" style="stop-color:#000000;stop-opacity:2.000000e-02"/>
</linearGradient>
<polygon style="fill:url(#SVGID_13_);" points="878.5,9.2 863.8,0 835.5,45.2 816.4,33.4 806.8,48.6 834.6,65.5 834.6,65.5 
	841.6,69.9 "/>
<polygon style="fill:#69F0AE;" points="877.5,9 864.2,0.9 836.2,47 816.6,35.1 808.5,48.4 834.7,64.4 834.7,64.4 841.5,68.4 "/>
<linearGradient id="SVGID_14_" gradientUnits="userSpaceOnUse" x1="1017.1204" y1="1105.2977" x2="1017.1204" y2="1038.136" gradientTransform="matrix(0.9944 -0.1057 0.1057 0.9944 -281.3068 -634.2668)">
	<stop  offset="0" style="stop-color:#000000;stop-opacity:0.12"/>
	<stop  offset="0.55" style="stop-color:#000000;stop-opacity:9.000000e-02"/>
	<stop  offset="1" style="stop-color:#000000;stop-opacity:2.000000e-02"/>
</linearGradient>
<polygon style="fill:url(#SVGID_14_);" points="878.5,297.2 863.8,288 835.5,333.2 816.4,321.4 806.8,336.6 834.6,353.5 
	834.6,353.5 841.6,357.9 "/>
<polygon style="fill:#69F0AE;" points="877.5,297 864.2,288.9 836.2,335 816.6,323.1 808.5,336.4 834.7,352.4 834.7,352.4 
	841.5,356.4 "/>
<linearGradient id="SVGID_15_" gradientUnits="userSpaceOnUse" x1="573.6197" y1="1058.1556" x2="573.6197" y2="990.9939" gradientTransform="matrix(0.9944 -0.1057 0.1057 0.9944 -281.3068 -634.2668)">
	<stop  offset="0" style="stop-color:#000000;stop-opacity:0.12"/>
	<stop  offset="0.55" style="stop-color:#000000;stop-opacity:9.000000e-02"/>
	<stop  offset="1" style="stop-color:#000000;stop-opacity:2.000000e-02"/>
</linearGradient>
<polygon style="fill:url(#SVGID_15_);" points="432.5,297.2 417.8,288 389.5,333.2 370.4,321.4 360.8,336.6 388.6,353.5 
	388.6,353.5 395.6,357.9 "/>
<polygon style="fill:#69F0AE;" points="431.5,297 418.2,288.9 390.2,335 370.6,323.1 362.5,336.4 388.7,352.4 388.7,352.4 
	395.5,356.4 "/>
</svg>
