<?xml version="1.0" encoding="utf-8"?>
<!-- Generator: Adobe Illustrator 24.0.1, SVG Export Plug-In . SVG Version: 6.00 Build 0)  -->
<svg version="1.1" id="f921693e-33a8-40f4-b606-3710578972cc"
	 xmlns="http://www.w3.org/2000/svg" xmlns:xlink="http://www.w3.org/1999/xlink" x="0px" y="0px" viewBox="0 0 859.4 767.8"
	 style="enable-background:new 0 0 859.4 767.8;" xml:space="preserve">
<path style="fill:#3F3D56;" d="M431.1,129.7L208.7,213c0,0,0,282.3,222.4,436.3C653.5,495.3,653.5,213,653.5,213L431.1,129.7z"/>
<path style="opacity:4.000000e-02;fill:#6C63FF;enable-background:new    ;" d="M432.4,129.7l-3.8,2.3v514.5
	c1.2,0.9,2.6,1.8,3.8,2.6c222.4-154,222.4-436.3,222.4-436.3L432.4,129.7z"/>
<g style="opacity:0.7;">
	
		<linearGradient id="SVGID_1_" gradientUnits="userSpaceOnUse" x1="359.8" y1="739.3256" x2="492.1" y2="739.3256" gradientTransform="matrix(1 0 0 -1 0 1111.2756)">
		<stop  offset="0" style="stop-color:#808080;stop-opacity:0.25"/>
		<stop  offset="0.5351" style="stop-color:#808080;stop-opacity:0.12"/>
		<stop  offset="1" style="stop-color:#808080;stop-opacity:0.1"/>
	</linearGradient>
	<polygon style="fill:url(#SVGID_1_);" points="377.3,353.6 419.2,392 471.2,317 492.1,334.4 419.2,426.9 359.8,360.5 	"/>
</g>
<polygon style="fill:#3AD29F;" points="387.2,355.9 421.1,387 469.4,316.2 486.4,330.3 421.1,415.3 373,361.5 "/>
<path style="opacity:0.5;fill:#4D8AF0;enable-background:new    ;" d="M211.7,106.9c-1.4-0.6-2.1-2.2-1.6-3.6c0-0.1,0.1-0.2,0.1-0.3
	l0,0c0.1-0.8-0.6-1.6-1.4-1.6c-0.5,0-1,0.2-1.3,0.6l0,0c-0.1,0.1-0.2,0.2-0.2,0.3c-0.6,1.4-2.2,2.1-3.6,1.6c-0.1,0-0.2-0.1-0.3-0.1
	l0,0c-0.8-0.1-1.6,0.6-1.6,1.4c0,0.5,0.2,1,0.6,1.3l0,0c0.1,0.1,0.2,0.2,0.3,0.2c1.4,0.6,2.1,2.2,1.6,3.6c0,0.1-0.1,0.2-0.1,0.3l0,0
	c-0.1,0.8,0.6,1.6,1.4,1.6c0.5,0,1-0.2,1.3-0.6l0,0c0.1-0.1,0.2-0.2,0.2-0.3c0.6-1.4,2.2-2.1,3.6-1.6c0.1,0,0.2,0.1,0.3,0.1l0,0
	c0.8,0.1,1.6-0.6,1.6-1.4c0-0.5-0.2-1-0.6-1.3l0,0C211.8,107,211.7,106.9,211.7,106.9z"/>
<path style="opacity:0.5;fill:#4D8AF0;enable-background:new    ;" d="M91.3,374.9c-1.4-0.6-2.1-2.2-1.6-3.6c0-0.1,0.1-0.2,0.1-0.3
	l0,0c0.1-0.8-0.6-1.6-1.4-1.6c-0.5,0-1,0.2-1.3,0.6l0,0c-0.1,0.1-0.2,0.2-0.2,0.3c-0.6,1.4-2.2,2.1-3.6,1.6c-0.1,0-0.2-0.1-0.3-0.1
	l0,0c-0.8-0.1-1.6,0.6-1.6,1.4c0,0.5,0.2,1,0.6,1.3l0,0c0.1,0.1,0.2,0.2,0.3,0.2c1.4,0.6,2.1,2.2,1.6,3.6c0,0.1-0.1,0.2-0.1,0.3l0,0
	c-0.1,0.8,0.6,1.6,1.4,1.6c0.5,0,1-0.2,1.3-0.6l0,0c0.1-0.1,0.2-0.2,0.2-0.3c0.6-1.4,2.2-2.1,3.6-1.6c0.1,0,0.2,0.1,0.3,0.1l0,0
	c0.8,0.1,1.6-0.6,1.6-1.4c0-0.5-0.2-1-0.6-1.3l0,0C91.4,375,91.3,374.9,91.3,374.9z"/>
<circle style="opacity:0.5;fill:#F55F44;enable-background:new    ;" cx="692.5" cy="276.8" r="4.9"/>
<circle style="opacity:0.5;fill:#F55F44;enable-background:new    ;" cx="175.5" cy="630.6" r="4.9"/>
<circle style="opacity:0.5;fill:#F55F44;enable-background:new    ;" cx="776.7" cy="467.3" r="4.9"/>
<path style="opacity:0.5;fill:#4D8AF0;enable-background:new    ;" d="M656.2,130.8c-1.4-0.6-2.1-2.2-1.6-3.6c0-0.1,0.1-0.2,0.1-0.3
	l0,0c0.1-0.8-0.6-1.6-1.4-1.6c-0.5,0-1,0.2-1.3,0.6l0,0c-0.1,0.1-0.2,0.2-0.2,0.3c-0.6,1.4-2.2,2.1-3.6,1.6c-0.1,0-0.2-0.1-0.3-0.1
	l0,0c-0.8-0.1-1.6,0.6-1.6,1.4c0,0.5,0.2,1,0.6,1.3l0,0c0.1,0.1,0.2,0.2,0.3,0.2c1.4,0.6,2.1,2.2,1.6,3.6c0,0.1-0.1,0.2-0.1,0.3l0,0
	c-0.1,0.8,0.6,1.6,1.4,1.6c0.5,0,1-0.2,1.3-0.6l0,0c0.1-0.1,0.2-0.2,0.2-0.3c0.6-1.4,2.2-2.1,3.6-1.6c0.1,0,0.2,0.1,0.3,0.1l0,0
	c0.8,0.1,1.6-0.6,1.6-1.4c0-0.5-0.2-1-0.6-1.3l0,0C656.3,130.9,656.3,130.8,656.2,130.8z"/>
<path style="opacity:0.5;fill:#4D8AF0;enable-background:new    ;" d="M738.6,648.7c-1.4-0.6-2.1-2.2-1.6-3.6c0-0.1,0.1-0.2,0.1-0.3
	l0,0c0.1-0.8-0.6-1.6-1.4-1.6c-0.5,0-1,0.2-1.3,0.6l0,0c-0.1,0.1-0.2,0.2-0.2,0.3c-0.6,1.4-2.2,2.1-3.6,1.6c-0.1,0-0.2-0.1-0.3-0.1
	l0,0c-0.8-0.1-1.6,0.6-1.6,1.4c0,0.5,0.2,1,0.6,1.3l0,0c0.1,0.1,0.2,0.2,0.3,0.2c1.4,0.6,2.1,2.2,1.6,3.6c0,0.1-0.1,0.2-0.1,0.3l0,0
	c-0.1,0.8,0.6,1.6,1.4,1.6c0.5,0,1-0.2,1.3-0.6l0,0c0.1-0.1,0.2-0.2,0.2-0.3c0.6-1.4,2.2-2.1,3.6-1.6c0.1,0,0.2,0.1,0.3,0.1l0,0
	c0.8,0.1,1.6-0.6,1.6-1.4c0-0.5-0.2-1-0.6-1.3l0,0C738.8,648.8,738.7,648.7,738.6,648.7z"/>
<path style="opacity:0.5;fill:#4D8AF0;enable-background:new    ;" d="M85.5,218.2c-1.4-0.6-2.1-2.2-1.6-3.6c0-0.1,0.1-0.2,0.1-0.3
	l0,0c0.1-0.8-0.6-1.6-1.4-1.6c-0.5,0-1,0.2-1.3,0.6l0,0c-0.1,0.1-0.2,0.2-0.2,0.3c-0.6,1.4-2.2,2.1-3.6,1.6c-0.1,0-0.2-0.1-0.3-0.1
	l0,0c-0.8-0.1-1.6,0.6-1.6,1.4c0,0.5,0.2,1,0.6,1.3l0,0c0.1,0.1,0.2,0.2,0.3,0.2c1.4,0.6,2.1,2.2,1.6,3.6c0,0.1-0.1,0.2-0.1,0.3l0,0
	c-0.1,0.8,0.6,1.6,1.4,1.6c0.5,0,1-0.2,1.3-0.6l0,0c0.1-0.1,0.2-0.2,0.2-0.3c0.6-1.4,2.2-2.1,3.6-1.6c0.1,0,0.2,0.1,0.3,0.1l0,0
	c0.8,0.1,1.6-0.6,1.6-1.4c0-0.5-0.2-1-0.6-1.3l0,0C85.6,218.3,85.6,218.2,85.5,218.2z"/>
<circle style="opacity:0.5;fill:#47E6B1;enable-background:new    ;" cx="140.8" cy="301.5" r="4.9"/>
<circle style="opacity:0.5;fill:#47E6B1;enable-background:new    ;" cx="779.1" cy="341.1" r="4.9"/>
<g style="opacity:0.5;">
	<rect x="556.5" y="67.3" style="fill:#47E6B1;" width="2.5" height="14"/>
	<rect x="550.7" y="73.1" style="fill:#47E6B1;" width="14" height="2.5"/>
</g>
<g style="opacity:0.5;">
	<rect x="565.5" y="616.5" style="fill:#47E6B1;" width="2.5" height="14"/>
	<rect x="559.8" y="622.3" style="fill:#47E6B1;" width="14" height="2.5"/>
</g>
<g style="opacity:0.5;">
	<rect x="97.1" y="646.2" style="fill:#47E6B1;" width="2.5" height="14"/>
	<rect x="91.3" y="652" style="fill:#47E6B1;" width="14" height="2.5"/>
</g>
<g style="opacity:0.5;">
	<rect x="660.4" y="393.9" style="fill:#47E6B1;" width="2.5" height="14"/>
	<rect x="654.6" y="399.7" style="fill:#47E6B1;" width="14" height="2.5"/>
</g>
<polygon style="opacity:0.5;fill:#47E6B1;enable-background:new    ;" points="731.5,168.7 736.7,173.6 744.3,162.6 747,164.8 
	736.7,178.1 729.2,169.6 "/>
</svg>
