<?xml version="1.0" encoding="utf-8"?>
<!-- Generator: Adobe Illustrator 24.0.1, SVG Export Plug-In . SVG Version: 6.00 Build 0)  -->
<svg version="1.1" id="eb7145bf-7e09-429c-a529-19108004bd12"
	 xmlns="http://www.w3.org/2000/svg" xmlns:xlink="http://www.w3.org/1999/xlink" x="0px" y="0px" viewBox="0 0 905.4 787.7"
	 style="enable-background:new 0 0 905.4 787.7;" xml:space="preserve">
<path style="fill:#FFBEC7;" d="M274.9,188.3c0,0-58-10.2,0,68.3V188.3z"/>
<linearGradient id="SVGID_1_" gradientUnits="userSpaceOnUse" x1="637.6887" y1="417.3071" x2="637.6887" y2="-130.2441" gradientTransform="matrix(1 0 0 1 -147.3 327.83)">
	<stop  offset="0" style="stop-color:#808080;stop-opacity:0.25"/>
	<stop  offset="0.54" style="stop-color:#808080;stop-opacity:0.12"/>
	<stop  offset="1" style="stop-color:#808080;stop-opacity:0.1"/>
</linearGradient>
<path style="fill:url(#SVGID_1_);" d="M673.1,585.8c0,0-8.4-9.5-31.6-3.8c-11.3-10.8-25.5-26.5-26-37.9c-4.7,1.5-9.3,3.3-13.9,5.2
	c-19.6-21.9-44.8-56.8-43.7-90.3c1.8-54.7-35.8-149.3-35.8-149.3s3.1-38.6-2.7-70.5c-3.9-21.6-12-40.1-27.8-41.5
	c-2.4-0.3-4.9,0-7.2,0.8c-29.2,10-11.1,103.4-11.1,103.4L448,380.1l-148.4,79c0,0,89.9,118,133.5,122.4c0,0,32.2,33.7,55.3,63.3
	c-8.2,11-12.5,18.3-12.5,18.3l22.4,31.9c-9.2,12.4-22.2,36.6,6.4,47.9c39.3,15.6,125.7-55.5,125.7-55.5S705.4,637.9,673.1,585.8z"/>
<path style="fill:#7C6253;" d="M273,187.8c0,0-59.3-10.4,0,69.4V187.8z"/>
<linearGradient id="SVGID_2_" gradientUnits="userSpaceOnUse" x1="406.7742" y1="-17.7513" x2="406.7742" y2="-65.7817" gradientTransform="matrix(1 0 0 1 -147.3 327.83)">
	<stop  offset="0" style="stop-color:#808080;stop-opacity:0.25"/>
	<stop  offset="0.54" style="stop-color:#808080;stop-opacity:0.12"/>
	<stop  offset="1" style="stop-color:#808080;stop-opacity:0.1"/>
</linearGradient>
<path style="fill:url(#SVGID_2_);" d="M259.4,262.1c0,0-21.7,0-21.2,26.8c0.1,9.2,6,17.4,14.8,20.3c4.6,1.5,9.6,1.2,14-1
	c12.1-5.9,17.2-20.5,11.3-32.6c-1-2.2-2.4-4.2-4-5.9C270.3,265.5,265.1,262.8,259.4,262.1z"/>
<linearGradient id="SVGID_3_" gradientUnits="userSpaceOnUse" x1="410.3617" y1="33.4242" x2="410.3617" y2="-12.83" gradientTransform="matrix(1 0 0 1 -147.3 327.83)">
	<stop  offset="0" style="stop-color:#808080;stop-opacity:0.25"/>
	<stop  offset="0.54" style="stop-color:#808080;stop-opacity:0.12"/>
	<stop  offset="1" style="stop-color:#808080;stop-opacity:0.1"/>
</linearGradient>
<path style="fill:url(#SVGID_3_);" d="M269.9,316.5c-1.9-0.9-4-1.5-6.1-1.5c0,0-21,5.2-17.5,30.4c0,0,1.8,18.2,20.1,15.6
	c12.6-1.8,14-18.3,13.8-28.4C280,325.7,276.1,319.5,269.9,316.5z"/>
<linearGradient id="SVGID_4_" gradientUnits="userSpaceOnUse" x1="409.8013" y1="113.97" x2="409.8013" y2="54.0699" gradientTransform="matrix(1 0 0 1 -147.3 327.83)">
	<stop  offset="0" style="stop-color:#808080;stop-opacity:0.25"/>
	<stop  offset="0.54" style="stop-color:#808080;stop-opacity:0.12"/>
	<stop  offset="1" style="stop-color:#808080;stop-opacity:0.1"/>
</linearGradient>
<path style="fill:url(#SVGID_4_);" d="M270.8,383.3c-1.6-0.9-3.4-1.4-5.3-1.5c-2.3,1.4-4.4,3-6.5,4.8c-3.4,2.9-6.4,6.1-9,9.8
	c-7.9,11.4-10.5,28.2,19,45.4v-22.6c3.7-3.4,6.7-7.4,9.1-11.8C282.8,398.7,279.5,388,270.8,383.3z"/>
<path style="fill:#DFE5EE;" d="M473.4,655.5c0,0,53.8-89.6,136.5-116.9l-4.3,48.7L537,655.5H473.4z"/>
<path style="opacity:5.000000e-02;enable-background:new    ;" d="M473.4,655.5c0,0,53.8-89.6,136.5-116.9l-4.3,48.7L537,655.5
	H473.4z"/>
<path style="fill:#B4B9BF;" d="M501.5,679.4c0,0-38.4,39.3,0,54.6s122.9-54.6,122.9-54.6s73.4-48.7,41.8-99.9
	C666.2,579.6,630.4,538.6,501.5,679.4z"/>
<path style="fill:#957C67;" d="M618.4,565.9c0,0-111.8,129.7-110.1,110.9c0.5-5.5-5.8-16.3-15-29c-22.3-30.9-61.8-72.5-61.8-72.5
	C388.9,571,300.9,455,300.9,455L446,377.3l24.8-76.8c0,0-17.8-91.8,10.8-101.6c2.3-0.8,4.7-1,7.1-0.8c1,0.1,2.1,0.3,3.1,0.5
	c13.4,3.4,20.5,20.3,24,40c0,0.1,0,0.2,0.1,0.3c5.7,31.4,2.7,69.3,2.7,69.3s36.7,93,35,146.8c-1.1,36,28.3,73.5,47.9,94.4
	C611.2,559.7,618.4,565.9,618.4,565.9z"/>
<path style="opacity:5.000000e-02;enable-background:new    ;" d="M464,496.8c0,0,1.7-81.1-12.8-101.6s-131.5,64.9-131.5,64.9
	S440.9,474.6,464,496.8z"/>
<path style="opacity:5.000000e-02;enable-background:new    ;" d="M501.5,525.8c0,0,52.7-31.2,52-81.3"/>
<path style="opacity:5.000000e-02;enable-background:new    ;" d="M473.4,555.7c0,0-14.5,20.5-41.8,19.6"/>
<path style="opacity:5.000000e-02;enable-background:new    ;" d="M618.4,565.9c0,0-111.8,129.7-110.1,110.9c0.5-5.5-5.8-16.3-15-29
	c61.9-21.2,95.5-74.2,108.1-98.5C611.2,559.7,618.4,565.9,618.4,565.9z"/>
<path style="fill:#DFE5EE;" d="M648.8,589.5c0,0.2,0,0.5-0.1,0.7c-1.7,8.6-3,17.3-4.4,26.1c-0.4,2.8-1.1,5.5-2,8.2
	c-2.5,7.1-6.1,13.7-10.8,19.5c-34,43.1-120.6,65.3-120.6,65.3l-0.3-0.5l-37.2-53.3C571.6,636.7,610,538.6,610,538.6
	c0.7,16.4,30.1,41.9,37.5,48.1C648.3,587.4,648.8,588.4,648.8,589.5L648.8,589.5z"/>
<path style="opacity:0.5;fill:#EFF4F8;enable-background:new    ;" d="M515.9,238.6c-24.8-3.2-26.8-24.4-24.8-39.7
	c0.3-0.1,0.5-0.2,0.8-0.2C505.2,202,512.3,218.9,515.9,238.6z"/>
<path style="opacity:5.000000e-02;enable-background:new    ;" d="M648.8,589.5c0,0.2,0,0.5-0.1,0.7c-1.7,8.6-3,17.3-4.4,26.1
	c-0.4,2.8-1.1,5.5-2,8.2l-2.1,5.8l-5.1,8.5l-3.6,5.1c-34,43.1-120.6,65.3-120.6,65.3l-0.3-0.5c2.7-1.1,61.1-25.2,84.4-46.9
	c22.1-20.5,49.4-67.5,53.3-74.3C648.6,588.2,648.8,588.9,648.8,589.5z"/>
<linearGradient id="SVGID_5_" gradientUnits="userSpaceOnUse" x1="520.65" y1="141.17" x2="520.65" y2="-274.43" gradientTransform="matrix(1 0 0 1 -147.3 327.83)">
	<stop  offset="0" style="stop-color:#808080;stop-opacity:0.25"/>
	<stop  offset="0.54" style="stop-color:#808080;stop-opacity:0.12"/>
	<stop  offset="1" style="stop-color:#808080;stop-opacity:0.1"/>
</linearGradient>
<path style="fill:url(#SVGID_5_);" d="M460.4,53.4H286.3c-9.5,0-17.2,7.7-17.2,17.2l0,0v381.2c0,9.5,7.7,17.2,17.2,17.2l0,0h174.1
	c9.5,0,17.2-7.7,17.2-17.2l0,0V70.6C477.6,61.1,469.9,53.4,460.4,53.4z"/>
<path style="fill:#535461;" d="M281.6,56.6H465c6.1,0,11,4.9,11,11v388.8c0,6.1-4.9,11-11,11H281.6c-6.1,0-11-4.9-11-11V67.6
	C270.6,61.5,275.6,56.6,281.6,56.6z"/>
<rect x="285.8" y="94.8" style="fill:#F1F1F4;" width="175.1" height="334.4"/>
<circle style="fill:#FFFFFF;" cx="352.6" cy="75.7" r="1.6"/>
<path style="fill:#FFFFFF;" d="M361.6,74.1h33c0.6,0,1,0.4,1,1v1.2c0,0.6-0.4,1-1,1h-33c-0.6,0-1-0.4-1-1v-1.2
	C360.6,74.5,361,74.1,361.6,74.1z"/>
<circle style="fill:#FFFFFF;" cx="372.5" cy="445.1" r="11.1"/>
<path style="fill:#7C6253;" d="M261.7,261.2c0,0-21.2,0-20.8,26.4c0.1,9,5.9,17,14.5,19.9c4.5,1.5,9.4,1.1,13.7-1
	c11.9-5.9,16.8-20.3,10.9-32.1C276.4,267.2,269.6,262.3,261.7,261.2z"/>
<path style="opacity:0.5;fill:#EFF4F8;enable-background:new    ;" d="M261.7,274.8c0,0-19.6,13.7-2.6,25.6
	C259.1,300.5,257.4,276.6,261.7,274.8z"/>
<path style="fill:#7C6253;" d="M266,313.3c0,0-20.5,5.1-17.1,29.9c0,0,1.7,17.9,19.6,15.4c12.3-1.8,13.7-18,13.5-28
	c-0.1-6.7-4-12.8-10-15.8C270.1,313.8,268,313.3,266,313.3z"/>
<path style="opacity:0.5;fill:#EFF4F8;enable-background:new    ;" d="M265.1,324.4c0,0-19.6,7.7,0,29
	C265.1,353.4,255.7,332.9,265.1,324.4z"/>
<path style="fill:#7C6253;" d="M271.1,415.7v22.2c-28.8-16.8-26.3-33.3-18.6-44.6c2.5-3.6,5.5-6.8,8.8-9.6c2-1.7,4.1-3.3,6.3-4.7
	c1.8,0.1,3.6,0.6,5.2,1.5c8.5,4.6,11.7,15.1,7.2,23.7C277.7,408.5,274.7,412.4,271.1,415.7z"/>
<path style="opacity:0.5;fill:#EFF4F8;enable-background:new    ;" d="M256.6,404.6c0,0-2.2-5.3-4.1-11.3c2.5-3.6,5.5-6.8,8.8-9.6
	C267,393,256.6,404.6,256.6,404.6z"/>
<path style="opacity:5.000000e-02;enable-background:new    ;" d="M515.6,308.6c0,0-22.2,24.8-29,27.3"/>
<g id="Layer_2_1_">
	<g id="Layer_1-2">
		
			<linearGradient id="SVGID_6_" gradientUnits="userSpaceOnUse" x1="341.7" y1="528.5256" x2="397.36" y2="528.5256" gradientTransform="matrix(1 0 0 -1 0 787.2756)">
			<stop  offset="0" style="stop-color:#808080;stop-opacity:0.25"/>
			<stop  offset="0.54" style="stop-color:#808080;stop-opacity:0.12"/>
			<stop  offset="1" style="stop-color:#808080;stop-opacity:0.1"/>
		</linearGradient>
		<path style="fill:url(#SVGID_6_);" d="M341.7,283.1v-26.3l27.8-22.4l27.8,22.4v26.3h-14.5v-17.8L369.6,255l-13.3,10.3v17.8H341.7z
			"/>
	</g>
</g>
<g id="Layer_2_2_">
	<g id="Layer_1-2_1_">
		<path style="fill:#010101;" d="M343.7,283.1v-26.3l27.8-22.4l27.8,22.4v26.3h-14.5v-17.8L371.6,255l-13.3,10.3v17.8H343.7z"/>
	</g>
</g>
</svg>
