<?xml version="1.0" encoding="utf-8"?>
<!-- Generator: Adobe Illustrator 24.0.1, SVG Export Plug-In . SVG Version: 6.00 Build 0)  -->
<svg version="1.1" id="a1bb6ffe-8d83-4899-8fa0-fcb3165ea164"
	 xmlns="http://www.w3.org/2000/svg" xmlns:xlink="http://www.w3.org/1999/xlink" x="0px" y="0px" viewBox="0 0 884.6 628.6"
	 style="enable-background:new 0 0 884.6 628.6;" xml:space="preserve">
<ellipse style="fill:#E6E6E6;" cx="207" cy="510" rx="48.1" ry="5.8"/>
<rect x="284.6" y="113.1" style="fill:#E6E6E6;" width="441.2" height="282.6"/>
<rect x="297.2" y="148.6" style="fill:#FFFFFF;" width="415.9" height="230.4"/>
<rect x="284.4" y="112.9" style="fill:#6C63FF;" width="441.2" height="18.7"/>
<circle style="fill:#FFFFFF;" cx="298.4" cy="122.5" r="3.5"/>
<circle style="fill:#FFFFFF;" cx="311.5" cy="122.5" r="3.5"/>
<ellipse style="fill:#FFFFFF;" cx="324.7" cy="122.5" rx="3.5" ry="3.5"/>
<path style="fill:#7F77FF;" d="M533.6,206.6c-0.1,0.3-0.1,0.5-0.1,0.8L533.6,206.6z"/>
<path style="fill:#7F77FF;" d="M480.4,230.9c0-0.6-0.1-0.8-0.2-0.8C480.2,230.6,480.3,231,480.4,230.9z"/>
<path style="fill:#7F77FF;" d="M479.3,243.1c0,0.3-0.1,0.5-0.1,0.8C479.2,243.6,479.2,243.4,479.3,243.1z"/>
<path style="fill:#7F77FF;" d="M533.5,207.3l-0.3,2.1C533.5,209.5,533.4,208.4,533.5,207.3z"/>
<path style="fill:#7F77FF;" d="M551.8,188.4h0.6c0.2-0.1,0.4-0.3,0.5-0.4L551.8,188.4z"/>
<path style="fill:#7F77FF;" d="M576,189.5c0.1-0.3,0.3-0.5,0.6-0.6c-0.2-0.3-0.3-0.4-0.6-0.6C575.7,188.2,576.1,189.1,576,189.5z"/>
<path style="fill:#7F77FF;" d="M601.4,172.2c0.1,0,0.1,0,0.2-0.1L601.4,172.2z"/>
<path style="fill:#7F77FF;" d="M600.9,172.3l0.5-0.1C601.2,172.3,601,172.3,600.9,172.3z"/>
<path style="fill:#7F77FF;" d="M532.4,190.5c-0.1,0-0.3,0.1-0.3,0.1C532.2,190.7,532.3,190.7,532.4,190.5z"/>
<path style="fill:#7F77FF;" d="M632.2,173.2l0.1,0.4c0.1,0.1,0.3,0.1,0.5,0.1L632.2,173.2z"/>
<path style="fill:#7F77FF;" d="M477.4,258L477.4,258C477.4,258,477.4,258,477.4,258c0,0.1-0.1,0.1-0.2,0.1c-0.1,0-0.1,0-0.1,0
	C477.2,258,477.3,258,477.4,258L477.4,258z"/>
<path style="fill:#7F77FF;" d="M406.8,355.1c-2.5-0.8,4-1,0.3-1.9C407.4,353.5,403.7,354.5,406.8,355.1z"/>
<path style="fill:#7F77FF;" d="M426.5,269.4c-0.1,0.2-0.2,0.4-0.4,0.6C426.3,269.5,426.4,269.4,426.5,269.4z"/>
<path style="fill:#7F77FF;" d="M463.1,259.8c-0.3,0-0.7-0.1-1-0.1L463.1,259.8z"/>
<path style="fill:#7F77FF;" d="M413.5,272.5c-0.3-0.1-0.7-0.1-1,0c0.1,0.1,0.1,0.1,0.3,0.1C412.9,272.5,413.1,272.5,413.5,272.5z"/>
<path style="fill:#7F77FF;" d="M413.5,272.5c0.1,0,0.3,0.1,0.4,0.1C413.7,272.5,413.6,272.5,413.5,272.5z"/>
<path style="fill:#7F77FF;" d="M391.9,272.5c0.1,0.1,0.3,0.1,0.4,0.2c0.2,0,0.4-0.1,0.7-0.1L391.9,272.5z"/>
<path style="fill:#7F77FF;" d="M410.1,273.2C410.1,273.2,410.1,273.2,410.1,273.2C410.1,273.2,410.1,273.2,410.1,273.2z"/>
<path style="fill:#7F77FF;" d="M628.6,353.8c-0.1,0-0.3,0-0.4-0.1C628.3,353.8,628.5,353.8,628.6,353.8z"/>
<path style="fill:#7F77FF;" d="M461.2,260.4c0.3-0.1,0.4-0.1,0.6-0.2C462.4,260.3,461.7,260.3,461.2,260.4z"/>
<path style="fill:#7F77FF;" d="M633.9,256.3c0.1-0.1,0.1-0.3,0.1-0.5C634,255.9,633.9,256.1,633.9,256.3z"/>
<path style="fill:#6C63FF;" d="M635.1,323.1c0.1-0.1,0.2-0.3,0.3-0.4l0.1,0.3c0.1-0.6,0-1.3-0.1-1.9c0.1-0.8,0.2-1.7,0.3-2.5
	c0.6-0.4,0.4-3.6,0.4-5.1c-0.9,0.1-0.8-1.9-1.5-0.1c0.1-0.1,0.1,0.4,0.1,1.4c0,0.2,0.1,0.4,0.1,0.6c0,0-0.1-0.1-0.1-0.1
	c0,1,0.1,2.4,0.1,3.8c-0.6-1.3-0.7-2.8-0.3-4.2c-0.6-0.8-1.2-1.7-1.4-2.2c1.2-2.1,1.9-6.2,2.6-6.8c-0.5-4.7-0.3-11.2-2-14.2
	c-0.2-1.3,0.4-1.5,0.8-2.1c0.2,0.8,0.1,1.7,0.4,2.1c-0.4-2.7-0.2-8-1.3-8.7c0.5-3.4,1.1,1.9,0.9-2.8l0.3,0.6
	c1.8-9-2.8-14.8-0.7-24.7c-0.1,0.4-0.1,0.6-0.3,0.7c1-11.7-1-24,0.7-35.5c0.3-3.3-0.4-3.7-1-5.6l1-0.7l-1.1-3.4
	c-0.8-4.8,2.3-8.4,0.8-14.5l-0.6,0.8c0.1-2.2-0.4-7,0.4-6.6c-0.4-0.4-0.5-1-0.3-1.6l0.5-0.1l-0.8-5.4c0.4-4.2,2,0.6,2.1-5.4
	c-0.2-2.2-1.5-6.5-1.8-5.6c0,0.9-0.3,2.3-0.8,2.4l-0.3-2.1c-0.1,0-0.2-0.1-0.3-0.1v-0.3h-0.9c-0.4-0.1-0.8-0.1-1.2,0h-22.5l0.3-0.3
	l-0.8,0.3h-3.2c0.1-0.2,0.4-0.3,1-0.4c-2.3-0.6-2.1,0.4-4-0.3c-0.2-0.1-0.1-0.2,0.1-0.3l-2.2,0.4c0.4-0.3-0.4-0.9,1-0.7
	c-4-0.8-6.5,1-8,0l0.3-0.1c-4.2,0.3-2.4,0.7-3,1.3h-2.6l-0.5-0.4l-0.7-0.6c-0.3-0.2-0.5-0.4-0.8-0.6c-0.2,0.3-0.4,0.6-0.6,1
	c-0.6,0-2-0.1-1.9-0.5c-1.2,0.3-0.9,0.4-0.6,0.5c0.3,0.1,0.6,0.2,0.2,0.5c-0.7-0.2-1.5-0.3-2.2-0.3c-0.1,1.4,0,3.1,0,4.4
	c0,1.3-0.2,2.2-0.8,2.5c0.7,1,0.6-2.7,1.1,0.3c-1.7,0.8,0.3,3.5-0.4,6c-0.8-0.7-0.4-3.2-1.2-0.6c0.3,0.3,0.4,0.6,0.5,0.9
	c0.1,0.3,0.1,0.7,0,1c-0.1,0.6-0.3,1.2-0.5,1.7c-0.4-0.1-0.8-0.1-1.2-0.1c0.4,0.6-0.4,0.7-1.7,0.7c-0.8,0-1.6,0-2.5,0
	c-1,0-1.9,0.1-2.8,0.1c0.3-0.4-6.8-0.6-10.1-1l0.1-0.2c-0.6,1.2-4.1,1-6.6,1.2c0.1-0.7,0.6-1,1.9-1.3h-2.4c-0.6,0.4-1.3,0.6-2.8,0.7
	l0.6-0.9c-1.6,0-3.1,0.3-4.9,0.4c-0.8,0.1-1.7,0.1-2.6,0.2c-0.4,0-0.9,0-1.4,0c-0.3,0-0.5,0-0.7-0.1c-0.3,0-0.6-0.1-0.8-0.1
	c-0.1,0.2,0.2,0.4,0.4,0.7c0.3,0.3,0.4,0.5,0.6,0.8c0.1,0.1,0.1,0.4,0.1,0.5h-2.2c0-0.3,0.1-0.4,0.6-0.6c-0.6,0.2-1.3,0.3-2,0.1
	c0.5-0.3,1.1-0.5,1.7-0.7c-2.4-0.3-1,0.6-2.6,0.5c-0.3-0.6-1.6-0.4-1.7-0.9c0.4-0.1,1.8,0.3,2.4,0c-1.2-0.1-2.7-0.2-4.1-0.4
	c-0.1,0.6-0.3,1.2-0.5,1.7c0.3,0,0.8,0.6,0.9,2.2c0,2.1-0.2,2.4-0.4,2.5c-0.1,0.1-0.3,0.1-0.4,0.3c-0.1,0.1-0.1,0.3-0.2,0.4
	c-0.1,0.2-0.1,0.3-0.1,0.5c0.4,0.8,0,2.8,0.9,2.8c0,0.9-0.4,1.1-0.7,1.5c0.4,1.6,0.1,7.6,1.1,5.8l0.1-0.4c0,0.1,0,0.2,0.1,0.3
	c0.3,1.6,0.4,3.3,0.3,4.9c-0.1,1.3-0.2,2.7-0.3,3.8c-0.9-0.1-1.8-0.1-2.6-0.2c-0.4,0-0.8,0-1.2,0h-0.8c-0.3,0-0.5,0-0.8,0.1v-0.3
	c-3.1,0.3-7,0.2-9.3,0.9c-1,0-2.2-0.6-1.8-1c-2.4,0.3-2.7,0.6-6.2,0.1c2.4-0.5-0.8-0.5,2.5-0.4c-3.1-0.3-3.8-0.8-7.2,0.1
	c1.2-0.8-2.4-1-3.8-0.8l2.2,0.6c-1.5,0.1-3.1,0.1-4.6,0l0.8-1c-3.2-0.6-6.1-0.1-8.8,0.3c-1.3,0.3-2.6,0.4-3.9,0.4h-0.4h-0.6
	c-0.4,0-1-0.1-1.4-0.1c-1-0.1-2.1-0.3-3.1-0.6c-1.2,0.4,0.4,0.5,1.7,0.6c1.4,0.1,2.7,0.3,1.7,0.7c-2.1-0.1-4.2-0.4-6.2-0.8
	c-0.4,1.3-0.7,2.8-0.8,4.2c-0.1,0.8-0.1,1.5-0.1,2.2c0,0.3,0,0.6,0,0.9c0,0.1,0,0.3,0,0.4c0,0.1,0,0.1,0.1,0.3
	c0.1,0.5,0.3,1.1,0.5,1.6c0.6,1.3,0.8,2.7,0.6,4.1c0.4-0.6,1.3-1,1.7,2.1c-0.1,1.7-0.6,2.7-1.1,2.8c-0.3,0.1-0.5-0.2-0.6-0.6
	c-0.1-0.1-0.1-0.3-0.1-0.4c0-0.7,0.1-1,0.2-1c-0.1-1-0.3-2.2-0.7-1l0.4,0.4c-0.1,0.5-0.2,1.1-0.3,1.6c-0.2,1.7-0.3,3.7-0.7,2.9
	c0.3,1.9,0.5,1.3,0.7,0c-0.4,3.4,0.1,5.5-0.3,9.2c0.2-0.6,0.6-1.2,0.6-0.6c-0.4,5.7,0.7,2.5,0.9,6.4c-0.6,2.2-1.3-0.8-0.9,3.1
	c-0.4,2.4-1,0.5-1.3-0.4c0.3,1.6,0.3,3.3,0,4.9c0,0.1,0,0.2-0.1,0.3c0,0.1,0,0.1-0.1,0.3v0.1c0,0.1,0,0,0,0.1l-0.1,0.1
	c-0.1,0.1-0.1,0.1-0.2,0.2c-0.1,0.1-0.2,0.1-0.3,0.2c-0.1-0.1-0.1-0.2-0.3-0.3c0.1,0.1,0.1,0.2,0.1,0.3c0.1,0.1,0.1,0.1,0.3,0.1
	c0.2,0.1,0.3,0.1,0.5,0.2c-0.1,0.2-0.1,0.4-0.4,0.1l-0.1-0.1c0.2,0.3,0.4,0.6,0.8,0.9c0.3,0.3,0.7,0.7,0.3,1c-0.5-0.1-1-0.1-1.6-0.1
	c-0.1,0-0.3,0-0.4,0c-0.2,0-0.4-0.1-0.6-0.1c-0.3,0-0.6-0.2-0.8-0.4c0.6,0.1,1,0.1,1.3,0.1c0.2,0,0.3,0,0.3-0.1c0.1-0.1,0-0.2,0-0.4
	c-0.1-0.3-0.1-0.6,0.1-0.7h-0.1c-0.1,0-0.1,0-0.2,0c-0.3,0-0.5-0.1-0.8-0.1c-0.2-0.1,0.1-0.2,0.4-0.3c-0.3-0.1-0.6-0.1-0.9-0.1
	c-0.5-0.1-1-0.1-1.6,0c-1.2,0.3-0.9,1.3-4.1,1.2c0.6-0.6-1.1-1-1.8-1c1.9,0,0.9,0.9-0.8,1.3c-2.9-0.4-3.2,0.3-4.7,0.3l1.7,0.2
	c-0.6,0.6-2.1,0.5-4.1,0.6c-0.1-0.1,0.1-0.2,0.3-0.3c-2.1,0.3-4.6-1.2-7.4-0.6h-0.1c-1.5-0.4-0.1-1-1.4-1.3
	c-3.5,0.7-3.8-0.8-7.6-0.2c1.1,0.8,1.3,0.6-1.3,1.3l6.2-0.5l-4,1.1c1.9,0,3.9-0.4,5-0.3c-1.9,0.6-1.7,0.4-0.8,1
	c-2.6-1.2-5,0.6-7.9-0.1l0.1-1.9c-1.9-0.3-3.8-0.3-5.6,0l-0.7,0.1l-0.4,0.1h-0.1H435h-0.3c-0.8,0.1-1.5,0.1-2.4,0.2
	c-1.6,0.1-3.2,0.2-5.1,0.2c0,0.8,0,1.7-0.1,2.6l0.3-2.4h0.3c0,0.1-0.1,0.1-0.1,0.1c0.3,1.2,0.4,2.4,0.3,3.5c0,0.1,0,0.2,0,0.3l0,0
	c0,0.6,0,1.2-0.1,1.8c0,0.4,0,0.7,0,1.1c0,0.2,0,0.3,0,0.5v0.3v0.2c-0.6-0.2-0.8,1-1.2,1.8c0.1,0,0.2,0.3,0.2,0.6
	c0.1,0.2,0.1,0.4,0.1,0.6c0.1,0.6,0.4,1.3,0.9,1.7c-0.1,0.1-0.2,0.2-0.3,0.3c-0.4-0.1-0.8-0.3-1.2-0.5c-0.4-0.1-0.8-0.1-1.2,0.1
	c-0.1,0.1-0.2,0.1-0.3,0.1c-0.1,0.1-0.1,0.1-0.2,0.1c-0.1,0-0.2,0.1-0.3,0.1c-0.3,0.1-0.6,0.2-1,0.3c-1.5,0.6-3.1,0.9-4.8,0.8
	c1.3-0.6-0.7-1.1,2.3-1.6c-1.5,0-2.8-0.1-2.8,0.3c-0.2-0.1-0.3-0.1-0.5-0.1c-0.8,0-1.9,0.3-3,0.4c-0.5,0.1-1.1,0.1-1.6,0
	c-0.1,0-0.3-0.1-0.3-0.1c-0.1,0-0.1,0.1-0.2,0.1c-0.6,0.6-1.5,0.8-2.3,0.8c-0.1-0.1-0.1-0.1-0.1-0.2l0,0c-0.3,0.3-2.4,0.4-1.1,1
	c-2-0.8-4.6-0.9-7.3-0.9c-3.5,0.1-7.2,0.3-9.4-0.6c-1.6,0.1-3.4,0.2-5.1,0.3c-0.9,0-1.7,0.1-2.6,0.1c-0.4,0-0.8,0-1.2,0.1
	c-0.4,0-0.8,0-1.3,0c0.1-0.1,0.1-0.2,0.2-0.2c0.1-0.1,0.3-0.1,0.5,0c-0.1,0-0.2,0-0.3-0.1c-0.1,0-0.3,0-0.4,0c-0.3,0-0.5,0-0.7,0
	c-0.4,0-0.8,0-1.2,0.1c-0.4,0.1-0.9,0.2-1.3,0.4c-0.6,0.5-1.4,0.8-2.2,0.8c0,0.7,0,1.3-0.1,2.1c-0.3,0.6-0.4,0.6-0.5,0.5
	c-0.1-0.4-0.2-0.8-0.2-1.2c-0.1-1-0.1-2.1-0.3-1.3c-1-0.4-1,1.9-0.8,4.6c0.1,1.5,0.2,2.2,0.2,3.1c0.1,0.9-0.1,1.7-0.4,2.6l-0.1-0.8
	c-0.7,2.4,0.8,5.8,0.6,9.7c0,0-0.2-0.2-0.3,0c1,2.6,1.4,7.7,1.7,11.4c-0.8-1.2-0.4-1.7-1.2-1c0.1,1.7,1.3-0.5,1.5,2.8
	c-0.4,1.1-0.8,3.5-1.7,3.8l-0.1-3.1c-1.1,1.6,0.1,4-0.1,5.7l-0.5-0.2c0.1,4.8,1.4,4.9,1.3,10.1l0.4-0.5c1.2,2.8-0.7,2.4,0.3,5.2
	l-1.2,0.8c0.3,1.9,1.2,6.5,1.4,9.9c-0.9-1.9-1.4-5.8-1.9-8.3c0,1.9,0.1,6.3,0.7,7.2c-0.1-0.8-0.4-1.7-0.3-2.4c1,2.2,1.5,5.3,1.4,9
	c-0.8-0.2-1.2,0.8-1.3,2.2c0,0.1,0,0.2,0,0.3c0,0.1,0,0.3,0,0.4c0,0.3,0,0.6-0.1,0.9c0,0.6,0,1.3-0.1,2c0,1.4-0.1,2.8-0.1,4.2
	c2.9,0.1,5.5,0.3,7,1l0.5-0.1l0.3-0.1l0.6-0.1c0.4-0.1,0.8-0.1,1.2-0.1c0.8-0.1,1.6-0.1,2.4-0.1c1.7,0,3.3,0.1,5,0.1
	c3.4,0.2,6.9,0.4,10.7,0.4c-2.7-1.9,2.2-0.1,1.7-2c1.7-0.1,2.4-0.1,2.6,0l-0.3-0.1c0.1,0,0.2,0.1,0.3,0.1l0,0l5.4,1.2
	c1.3,0.6-1.7,0.4-1.5,0.8c3.9,0.1,1.6,0.8,4.2,1.3c-0.5-0.7,1.3-1,3.6-0.7l-3.1-0.9c5.4-1,4.7,1.6,10.1,0.6l-1.7,0.6
	c2.8-0.4,10.3,0,13.1-1.5c0.5,0.2,1.2,0.8-0.1,0.9c6.7,0.3,14.9-1.7,20.1-0.7l-0.5,0.4c1.2-0.1,2.2-0.9,3.7-0.4
	c-0.1,0.2-0.5,0.4,0.1,0.5c0.6-0.1,3.3-0.8,5-0.6l-1.4,0.5c4.1,0.4,7-0.2,10-0.8c1.8-0.4,3.7-0.6,5.5-0.8c0,1.4,5.1,1.9,7.7,2.1
	l-0.1,0.2c3.1,0.1,6.1-0.1,9.2-0.4c2.3-0.3,4.6-0.6,7-0.8l0,0c0.1,0,0.3-0.1,0.4-0.1c0.6-0.1,1.1-0.1,1.7-0.2c0.2,0,0.4-0.1,0.5-0.1
	c0.4,0,0.8-0.1,1.2-0.1c2,0.6,4,0.8,6.1,0.9c4.9,0.3,11.1,0.1,15.8,0.6c-1.1-0.3,0.2-1.1,1.4-1.2c1.5,0.3,4.2-0.8,4.3,0.1
	c0,0.1,0,0.1,0,0.2h-0.6l0,0l0,0c1.2,1.2,4.6,0.9,7.3,1l0.4-1.7c6.9,2.4,18.1-0.9,21.9,1.3c1.7-0.4,3.7-0.4,5.4-0.8l-0.1,0.9
	c4.2,0.3,8.5,0.3,12.7,0.1l-1.2,0.6c3.2,0.1,4.1-2.6,7-2.6l0.9,1.3c5.6,0,11.3,1.2,16.9-0.1c-0.1,0.2-0.3,0.6-1.2,0.6
	c2.6,0,9.7,0.8,9.4-0.8c0.6,0.9,5.9-0.1,8.8-0.6l-0.4,0.9c1.3-0.6,1.9-0.9,2.8-1.2c0.4-0.1,0.9-0.3,1.3-0.3c0.3-0.1,0.6-0.1,1-0.1
	c0.4-0.1,1-0.1,1.6-0.1c1.1,0.1,1.3,0.6,0,0.5c1,0.1,1.9,0.1,2.8-0.1c0.8-0.3,1.6-0.4,2.4-0.4c0-0.6,0-1.3,0.1-1.9
	c0.2,0.7,0.4,1.5,0.6,2.3c0.1-1.3,0-2.7-0.2-4c-0.1-0.8-0.4-1.4-0.7-2.5c0-0.1-0.1-0.3-0.1-0.5c0-0.1,0-0.3-0.1-0.5
	c0-0.3,0-0.6,0-0.9c0-0.6,0.1-1.2,0.2-1.9c0.2-1.2,0.5-2.2,1-2.4c-0.5-0.4-1.2-2-0.9-3.7c0.3-0.3,0.5,0.4,0.6,0.7
	c0.6-4.9-1-7.2-0.1-10.6c0.3-0.1,0.4-0.3,0.5-0.6c0,3.5-0.1,6.5-0.1,6.7c0.8-0.1,1-3.1,2.1-0.6C636,330.4,634.7,326.1,635.1,323.1z
	 M635.8,316.6c0.1,1-0.1,1.4-0.3,1.5c0-0.5-0.1-1.1-0.1-1.8c0,0-0.1-0.1-0.1-0.1C635.5,316.3,635.7,316.4,635.8,316.6z M599.9,173
	c0.1,0.1,0.2,0.1,0.3,0.1h-1.3C599.1,173.2,599.5,173.1,599.9,173L599.9,173z"/>
<path style="fill:#7F77FF;" d="M477.8,258.3c-0.1,0.1-0.1,0.1-0.1,0.1S477.7,258.3,477.8,258.3z"/>
<path style="fill:#7F77FF;" d="M634.6,314.7c0-0.1-0.1-0.3-0.1-0.4c-0.1,0.2-0.1,0.4-0.2,0.6l0.3,0.4L634.6,314.7z"/>
<path style="fill:#7F77FF;" d="M533.6,206.6c0-0.1,0.1-0.2,0.1-0.3c-0.1,0.1-0.1,0.1-0.1,0.1V206.6z"/>
<path style="fill:#7F77FF;" d="M577.4,172.2c0.3,0,0.6,0.4,0.5,3.4l0.2-3.7l1.4,0.1c-1.1-0.3-2.9-0.8-0.4-0.9
	c-0.9-0.1-1.5-0.2-2.1-0.3C576.9,172.6,577.1,172.2,577.4,172.2z"/>
<path style="fill:#7F77FF;" d="M577.5,187.5c-0.1-0.7-0.2-0.7-0.3-0.6s-0.3,0.3-0.4,0.2C577.1,187.9,577.1,188.3,577.5,187.5z"/>
<path style="fill:#7F77FF;" d="M516.4,214.2l0.2-0.8C515,213.5,516.6,213.7,516.4,214.2z"/>
<polygon style="fill:#7F77FF;" points="487.5,212.7 487.6,212.7 487.9,212.7 488.9,212.6 489.6,212.5 488.3,212.7 487.5,212.7 
	486.4,212.8 487.2,212.7 "/>
<path style="fill:#7F77FF;" d="M395.8,271.7l0.5,1C397.4,272.6,397.6,271.4,395.8,271.7z"/>
<path style="fill:#7F77FF;" d="M375.1,322.3c-0.6,1.2-0.7,2.5-0.3,3.7C374.9,324.6,375.3,323.1,375.1,322.3z"/>
<polygon style="fill:#7F77FF;" points="543.8,355.6 546.3,355.4 545.1,355.3 "/>
<path style="fill:#FFFFFF;" d="M479.3,243.1c0,0.3-0.1,0.5-0.1,0.8C479.2,243.6,479.2,243.4,479.3,243.1z"/>
<path style="fill:#FFFFFF;" d="M461.2,260.4c0.3-0.1,0.4-0.1,0.6-0.2C462.4,260.3,461.7,260.3,461.2,260.4z"/>
<path style="fill:#FFFFFF;" d="M462.1,259.7l1,0.1C462.8,259.8,462.4,259.8,462.1,259.7z"/>
<path style="fill:#FFFFFF;" d="M477.2,258c-0.1,0-0.1,0-0.1,0c0.1,0,0.2,0,0.3-0.1l0,0l0,0l0,0C477.4,258,477.2,258,477.2,258z"/>
<path style="fill:#FFFFFF;" d="M477.8,258.3c-0.1,0.1-0.1,0.1-0.1,0.1S477.7,258.3,477.8,258.3z"/>
<path style="fill:#3F3D56;" d="M426.5,269.4c-0.1,0.2-0.2,0.4-0.4,0.6C426.3,269.5,426.4,269.4,426.5,269.4z"/>
<path style="fill:#3F3D56;" d="M410.1,273.2C410.1,273.2,410.1,273.2,410.1,273.2C410.1,273.2,410.1,273.2,410.1,273.2z"/>
<path style="fill:#A0616A;" d="M200.1,232.9c0,0-8.7,17.5-22.2,21.4c-13.5,3.9,32.6,0,32.6,0s-2.4-12.7,0.8-14.3
	C214.3,238.4,200.1,232.9,200.1,232.9z"/>
<path style="fill:#2F2E41;" d="M186,202.8c-0.4-4.2,1.8-7.8,5.1-8.2c0.1,0,0.1,0,0.1,0c-0.4-0.1-0.8-0.1-1.2,0
	c-3.3,0.4-5.5,4-5.1,8.2c0.4,4.1,3.5,7.1,6.7,6.8C188.8,209.3,186.4,206.5,186,202.8z"/>
<path style="fill:#2F2E41;" d="M189,208.5c-4-1.3-6.3-4.9-5.3-8.1c0-0.1,0-0.1,0.1-0.1c-0.3,0.3-0.4,0.7-0.5,1.1
	c-1,3.1,1.3,6.7,5.3,8.1c3.9,1.3,7.9-0.1,9-3.1C195.9,208.7,192.4,209.6,189,208.5z"/>
<path style="fill:#A0616A;" d="M161.7,285l1.2,33.6l18.3,42.9c0,0-4.7,22.2,4.7,21.4s0.8-22.2,0.8-22.2l-8.7-45.2l-1.6-37.3
	L161.7,285z"/>
<circle style="fill:#A0616A;" cx="212.8" cy="227.3" r="17.5"/>
<path style="fill:#CFCCE0;" d="M227.1,257.5l-17.2-6.9c0,0-3.5,0.5-12.9,1.3c-9.5,0.8-13.7,0-13.7,0s-20.4,7-19.6,11
	c0.8,4,9.5,66.7,13.5,63.5c4-3.2,6.3-4,6.3-4l43.6-4V257.5z"/>
<path style="fill:#CFCCE0;" d="M166.8,261.5h-2.6c0,0-2.9,1.6-2.9,6.3s-2.4,19-2.4,19h12.7L166.8,261.5z"/>
<path style="fill:#2F2E41;" d="M190.2,269l-9.6-15.5c-0.4-0.7-1.3-1.1-2.1-1l-2.5,0.3c-1.2,0.1-2.1,1.2-1.9,2.4c0,0.1,0,0.2,0.1,0.3
	l4.9,18.3c0,0,7.8,32.2,0.3,49.5l-0.3,7.7c0,0-7.1,23.8-5.6,42.1s2.4,34.2,2.4,34.2s-4,11.9-2.4,15.9c0.4,1.2,0.4,2.9,0,4.8
	c-2.2,11.5-2.8,23.3-2.5,35l0.1,3.8c0,0-5.6,4.7-0.8,5.6c4.8,0.8,19.9,2.4,19.9,2.4s3.2-5.6,1.6-6.3l4.7-26.2c0,0,7.9-11.1,7.1-18.3
	c0,0,2.4-11.9,0-17.5l0.8-34.9l3.2,42.1l-4.7,52.4c0,0-6.3,4.7-2.4,6.3c4,1.6,28.6,9.5,28.6,5.6s-1.6-5.6-1.6-5.6l10.3-107.2
	l-5.6-44.5c0,0-37.3-3.2-34.2-45.2c0,0,9.1-19,18.1-22.6c0.3-0.1,0.4-0.4,0.3-0.6c-0.1-0.1-0.2-0.3-0.3-0.3l-3.7-1
	c-0.1,0-0.2,0-0.3,0C210.7,251.4,196.9,256.3,190.2,269z"/>
<path style="fill:#2F2E41;" d="M208.4,471.4l-0.1,1.2c-0.8,7.2-3.2,14.3-6.9,20.6c-1.8,3.1-3.1,6.5-2.4,9.2c1.6,6.3,0.8,8.7,0.8,8.7
	h12.7v-2.4l7.1,1.9c1.6,0.4,3.3,0.4,4.8-0.1c1.6-0.6,3.2-1.8,3.2-4.2c0-2-1.5-3.8-3.3-5.3c-3.7-3.1-6.4-7.2-7.8-11.9l-0.1-0.3
	l4.7-17.5L208.4,471.4z"/>
<path style="fill:#2F2E41;" d="M175.5,471.9l-0.1,1.2c-0.8,7.2-3.2,14.3-6.9,20.6c-1.8,3.1-3.1,6.5-2.4,9.2c1.6,6.3,0.8,8.7,0.8,8.7
	h12.7v-2.4l7.1,1.9c1.6,0.4,3.3,0.4,4.8-0.1c1.6-0.6,3.2-1.8,3.2-4.2c0-2-1.5-3.8-3.3-5.3c-3.7-3.1-6.4-7.2-7.8-11.9l-0.1-0.3
	l4.7-17.5L175.5,471.9L175.5,471.9z"/>
<path style="fill:#2F2E41;" d="M216.3,230.3c0,0,12.5-7.2,17.4-7.7c0,0,1.4-3.2-0.1-6.2c0,0-0.8-9.8-12.9-9.4c0,0-14.5-7.8-19.3-4.6
	s-15.7,18.5-11.1,27.7c0,0-5.3,2.6-5.5,1.2s-4.2,2.4,1,5.7c0,0-7.2,7.3-0.2,11.9c0,0-0.3-6.5,3.8-8.5c4.1-2,0.5,0.1,0.5,0.1
	s-7,8.8,3.5,12.2c0,0-3.9-4.4,0-8.3c0,0-1.2,9,6,9.9c0,0-3.7-5.3-1.8-7.2c0,0,0.8,6.6,4.9,7.4l3.1,0.6l1-5.3c0,0-2.9,6.8,3.9,7.2
	c0,0-3.3-10.3,1.1-16.3C215.9,234.6,216.3,230.3,216.3,230.3z"/>
<ellipse transform="matrix(0.6038 -0.7972 0.7972 0.6038 -86.7341 234.1707)" style="fill:#2F2E41;" cx="192.2" cy="204.3" rx="7.6" ry="6"/>
<path style="fill:#6C63FF;" d="M198.6,203.9c-1.6,0.6-2.9,1.7-4,3c-0.9,1.2-1.5,2.5-1.7,4c1.6-0.6,2.9-1.7,4-3
	C197.8,206.8,198.4,205.3,198.6,203.9z"/>
<path style="fill:#CFCCE0;" d="M259.3,355.2l-1-1.3l7.3-5.5c1.8-1.3,2.7-3.5,2.4-5.7l-3.7-29.3c-0.5-4.4,1.3-8.6,4.8-11.2l8-6
	c3.1-2.4,7.6-1.7,10,1.4l1.9,2.4l-1.3,1l-1.9-2.4c-1.8-2.4-5.2-2.9-7.6-1.1l-8,6c-3,2.2-4.6,6-4.1,9.7l3.7,29.3
	c0.3,2.8-0.8,5.6-3.1,7.2L259.3,355.2z"/>
<polygon style="fill:#CFCCE0;" points="261.9,357.6 267.9,349.8 265.9,347.1 256.9,351 217.9,377.9 224.7,387.2 "/>
<path style="fill:#E6E6E6;" d="M282.5,301.4l7.6-5.6c2.1-1.5,5-1.2,6.5,1l35,46.7c1.5,2.1,1.2,5-1,6.5l-7.6,5.6
	c-2.1,1.5-5,1.2-6.5-1l-35-46.7C280,305.9,280.4,303,282.5,301.4z"/>
<path style="opacity:0.2;enable-background:new    ;" d="M331.5,343.4l-1.1-1.4l-0.2-0.3c1.5,2.1,1.2,5-1,6.5l0,0l-7.6,5.6
	c-2.1,1.5-5,1.2-6.5-1l0.2,0.3l1.1,1.4c1.5,2.1,4.5,2.5,6.5,1l7.6-5.6C332.6,348.4,333.1,345.4,331.5,343.4z"/>
<path style="fill:#7F77FF;" d="M309.2,312.6c-0.1-0.1-0.1-0.1-0.1-0.1C309.1,312.6,309.1,312.6,309.2,312.6z"/>
<path style="fill:#7F77FF;" d="M308,310.7c0-0.1,0-0.1-0.1-0.1L308,310.7z"/>
<path style="fill:#7F77FF;" d="M316.5,322.6c-0.1,0,0.1,0.2,0.1,0.3L316.5,322.6z"/>
<path style="fill:#7F77FF;" d="M320.2,327.3L320.2,327.3c0.1,0.1,0.1,0.1,0.2,0.1L320.2,327.3z"/>
<path style="fill:#7F77FF;" d="M322.5,330.8c0.1,0,0.2,0.1,0.3,0.1c0.1,0,0.1-0.1,0.1-0.1C322.8,330.6,322.6,330.8,322.5,330.8z"/>
<path style="fill:#7F77FF;" d="M329.8,340.8L329.8,340.8c0,0.1,0,0.1,0.1,0.1L329.8,340.8z"/>
<path style="fill:#7F77FF;" d="M305.7,307.3L305.7,307.3C305.8,307.3,305.7,307.3,305.7,307.3z"/>
<path style="fill:#7F77FF;" d="M284.5,314.2c-0.1-0.4,0.6,0.4,0.3-0.2C284.8,314,284.3,313.7,284.5,314.2z"/>
<path style="fill:#7F77FF;" d="M300,299.9c0,0.1,0,0.1,0,0.1C300.1,300,300.1,300,300,299.9z"/>
<path style="fill:#7F77FF;" d="M297.1,297.8c-0.1,0.1-0.2,0.1-0.3,0.3h0.1C296.9,297.9,297,297.8,297.1,297.8z"/>
<path style="fill:#7F77FF;" d="M294.2,300.5L294.2,300.5l0.1-0.1L294.2,300.5z"/>
<path style="fill:#6C63FF;" d="M330,341c-0.1,0.1-0.3,0.3-0.4,0.3l0.2-0.3c0,0,0,0-0.1-0.1c0,0,0,0,0.1-0.1l-2.5-3.3h0.1l-0.1-0.1
	l-0.3-0.4c0.1,0,0.1,0,0.2,0.1c-0.1-0.4-0.3-0.2-0.4-0.6c0-0.1,0-0.1,0.1,0l-0.3-0.3c0.1,0,0.1-0.2,0.2,0.1
	c-0.3-0.6-0.8-0.8-0.8-1.1l0.1,0.1c-0.4-0.5-0.4-0.3-0.5-0.3l-0.3-0.4l0.1-0.4l-0.2,0.1c-0.1-0.1-0.1-0.3-0.1-0.3
	c-0.3-0.2,0,0.1-0.3,0c-0.1-0.5-0.8-1-0.6-1.3c-0.2-0.1,0.2,0.4-0.2,0.1c0.2-0.3-0.4-0.4-0.5-0.9c0.2,0,0.4,0.4,0.3-0.1
	c-0.4-0.1-0.4-0.7-0.7-1c-0.2,0.1-0.6-0.6-1-1c-0.3-0.5-0.5-1-0.8-1.5h0.1c-0.3,0.1-0.6-0.4-0.8-0.8c0.1-0.1,0.2-0.1,0.4,0.1
	l-0.3-0.3c-0.1-0.1-0.3-0.2-0.4-0.3h0.2c-0.4-0.4-0.8-0.8-1.2-1.3c-0.1,0.1-0.1,0.3-0.3,0.4l-0.2-0.3c0.1,0,0.1,0,0.2,0.1
	c-0.1-0.1-0.2-0.1-0.3-0.3l0.3,0.1c-0.1-0.3-0.2-0.1-0.3-0.3c0.1-0.1-0.1-0.2,0.1-0.3c0.1,0.1,0.1,0.2,0.2,0.3
	c-0.1-0.2-0.3-0.4-0.3-0.7c-0.1,0.1-0.1,0.1-0.3-0.1c-0.3-0.4,0-0.3-0.1-0.5c-0.1-0.1-0.3-0.4-0.4-0.3c-0.1-0.1-0.1-0.2-0.1-0.3
	c-0.3-0.2-0.8-1-0.8-0.6v0.1h-0.1c-0.7-0.6-1-1.5-1.7-2.2l0.1-0.1c-0.3-0.4-0.7-0.8-1.1-1.2c-0.1-0.1-0.1-0.4,0-0.4
	c-0.3-0.3-0.5-0.5-0.6-0.8c0.3,0.3,0-0.2,0.3,0.3c-0.3-0.4-0.3-0.6-0.8-1c0.3,0.1-0.1-0.4-0.3-0.6l0.1,0.4c-0.2-0.2-0.3-0.4-0.4-0.6
	h0.3c-0.4-1-1.5-1.3-1.7-2.2c-0.3-0.1,0.3,0.5,0,0.4c-0.2-0.4-0.3-0.8-0.4-1.2c-0.3-0.6-0.6-0.3-1-1c0,0.1-0.1,0.3-0.5-0.1
	c-0.3-0.4-0.1-0.7,0.1-0.4c0.1,0.1,0.1,0.1,0.1,0.2c0.1,0.1,0.3,0.3,0.2,0.1h-0.1c-0.1-0.3-0.5-0.8-0.3-0.7
	c-0.3-0.3-0.2-0.1-0.1,0.2c-0.3-0.6-0.6-0.8-1-1.3c0,0.1,0,0.3-0.1,0.1c-0.5-0.8-0.4-0.3-0.8-0.8c-0.1-0.4,0.3-0.1-0.2-0.5
	c-0.2-0.4,0.1-0.2,0.3-0.1c-0.3-0.4-0.6-0.8-0.8-1.2l0.3,0.2c-0.1-0.1-0.3-0.3-0.3-0.4v0.3c-0.1-0.2-0.2-0.3-0.1-0.3
	c-0.2-0.1-0.1,0.3-0.4,0.1c-0.1-0.3-0.5-0.6-0.4-0.8c0.4,0.6,0.1-0.2,0.5,0.3c-0.1-0.1-0.2-0.3-0.3-0.4c0-0.1,0.1,0,0.1,0
	c-0.3-0.7-0.4-0.1-0.8-0.8c0.1,0,0.1-0.3,0-0.4c0.2,0.3-0.1,0.3-0.3,0.1c-0.3-0.4-0.4-0.4-0.5-0.6l0.1,0.3c-0.1,0-0.3-0.2-0.5-0.4
	c0.1-0.1,0.3,0.2,0.2,0.1c-0.4-0.2-0.4-0.8-0.8-1.2c-0.1-0.3,0.1-0.1,0.1-0.4c-0.4-0.4-0.3-0.6-0.8-1c0,0.3,0.1,0.3-0.3,0l0.7,0.8
	l-0.6-0.4c0.2,0.3,0.4,0.4,0.6,0.6c-0.3-0.2-0.3-0.2-0.3,0c-0.1-0.4-0.6-0.6-0.8-1.1l0.3-0.2c-0.3-0.7-1-1-1.5-1.8l0.1,0.3
	c-0.2,0-0.4-0.4-0.6-0.7c0.1-0.1,0.1-0.3,0-0.4c-0.1,0.1-0.4-0.6-0.6-0.5l-0.1-0.4c-0.4-0.6-0.9-0.6-1.4-1.3c0.1,0,0.1-0.1,0.1-0.1
	s0.1-0.1,0.3,0.2c-0.3-0.3-0.4-0.6-0.4-0.5c0-0.1-0.1-0.1-0.1-0.1l-0.1-0.1c0,0-0.1,0-0.1,0.1l-0.3,0.3c-0.1,0.2-0.3,0.4-0.5,0.5
	c-0.1,0.2-0.1,0.3-0.3,0.6c-0.1,0-0.1-0.1-0.1-0.1c0,0.1-0.3,0.4,0,0.3c-0.8,0.3-1.5,1.5-2.3,1.7c-0.4,0.4-0.8,0.8-1.2,1.2
	c0-0.1-0.1-0.1,0.1-0.1c-0.6,0.4-0.1,0.6-0.8,1c-0.4,0.1,0.3-0.3,0-0.3c-0.3-0.3-0.7,0.6-1.2,0.8l0.1-0.1c-0.4,0.1-0.6,0.7-1.2,1.1
	c0,0,0-0.1-0.1-0.1c-0.4,0.5-0.8,1-1.3,1.4c0.1-0.3,0.2-0.3,0-0.3c-0.2,0.2,0.2,0.2-0.2,0.5c-0.2,0.1-0.6,0.2-0.7,0.1l0.4-0.3
	c-0.3,0-0.6,0.4-0.8,0.5v-0.1c-0.6,0.5-0.5,0.7-1.3,1.2h0.1c-0.3,0.4-0.4,0.1-0.7,0.5l-0.3-0.1c-0.4,0.4-0.8,0.8-1.3,1.1
	c0.3-0.4,0.6-0.7,1-1c-0.4,0.2-0.7,0.4-1,0.7c0.1-0.1,0.2-0.2,0.3-0.3c-0.3,0.4-0.7,0.8-1.2,1c-0.1-0.3-0.6,0-1.2,0.3l-0.3,0.1
	l-0.1,0.1c-0.1,0-0.1,0.1-0.1,0.1c0.1,0.1,0.2,0.3,0.3,0.4c0.1,0.2,0.3,0.4,0.3,0.7c0.1,0.1,0.3,0.3,0.4,0.4
	c0.1,0.1,0.2,0.2,0.3,0.3c0.2,0.2,0.3,0.4,0.4,0.7c0.3,0.4,0.6,1,1,1.5c0-0.6,0.3,0.3,0.5,0c0.2,0.2,0.3,0.3,0.3,0.4v-0.1v0.1l0,0
	l0.4,0.9c0.1,0.3-0.3-0.2-0.3-0.1c0.4,0.5,0,0.3,0.2,0.7c0.1-0.1,0.3,0.1,0.4,0.4l-0.2-0.5c0.7,0.6,0.2,0.8,1,1.5l-0.3-0.1
	c0.3,0.3,1,1.4,1.6,1.6c0,0.1,0,0.3-0.1,0.1c0.6,1,1.8,1.8,2.2,2.6h-0.1c0.1,0.1,0.4,0.2,0.4,0.4c-0.1,0-0.1,0-0.1,0.1
	c0.3,0.2,0.4,0.4,0.6,0.6l-0.3-0.1c0.6,1,1.2,1.2,1.9,1.9c-0.3,0.2,0.2,0.9,0.4,1.3h-0.1c0.7,0.9,1.5,1.7,2.3,2.5
	c0.2,0.8,1.4,2.1,2,3.1c-0.1-0.2,0.2-0.1,0.3,0.1c0.1,0.3,0.6,0.5,0.4,0.6l-0.1-0.1c-0.1,0.3,0.3,0.8,0.6,1.1l0.3-0.1
	c0.3,1.2,2,2.4,2,3.1c0.3,0.2,0.4,0.4,0.7,0.6l-0.1,0.1c0.4,0.6,0.8,1.2,1.3,1.7l-0.2-0.1c0.3,0.4,0.8,0.3,1.2,0.6l-0.1,0.3
	c0.6,0.8,1,1.7,1.7,2.3c-0.1,0-0.1,0.1-0.2-0.1c0.3,0.4,0.9,1.5,1.1,1.2c-0.2,0.1,0.6,0.8,1,1.2l-0.2,0.1c0.4,0.1,0.7,0.3,0.9,0.6
	c0.1,0.1-0.1,0.2-0.1,0c0.2,0.4,0.4,0.2,0.6,0.7l-0.2-0.1c0.1,0.3,0.3,0.4,0.6,0.4c0.3,0.2,0.5,0.8,0.4,1c0.3,0.1,0.4,0.2,0.5,0.4
	c0,0.1-0.1,0-0.2,0c0.4,0.7,0.9,0.8,1.1,1.4c-0.1,0.1-0.1,0.1,0,0.1c-0.4-0.5-0.7-1-0.6-0.9c-0.1,0.1,0.2,0.5-0.3,0.3
	c0.5,0.3,0.9,0.7,1.3,1.2v0.1h-0.1c0.1,0.1,0.1,0.2,0.2,0.3c0.1,0.1,0.1,0.3,0.2,0.4c-0.1,0.1,0.3,0.5,0.4,0.8
	c0.1-0.1,0.3,0.2,0.3-0.2c0,0.1-0.1,0-0.1-0.2l-0.1-0.1l0,0l-0.4-0.5c0.3,0.1,0.4,0.3,0.5,0.5c0.2,0.1,0.4,0.1,0.4,0.1
	c0,0.4,0.3,1.1,0.3,1.2c0.3,0.3,0.6,0.6,0.9,1c0.1,0.1,0.3,0.3,0.4,0.4c0.1,0.1,0.3,0.3,0.5,0.4c0.1,0.1,0.1,0.2,0.2,0.3
	c0,0.1,0.1,0.1,0.1,0.1c-0.1,0-0.1,0.1-0.1,0.1l-0.1-0.1c-0.1-0.1-0.1-0.1-0.2-0.1c0.1,0.1,0.2,0.4,0.4,0.2l0.6-0.3
	c0.1-0.1,0.3-0.1,0.4-0.2c0.1-0.1,0.1-0.1,0.1-0.2c0.6-0.1-0.3,0.3,0.5,0l-0.1,0.1c1.7-0.3,2.1-1.5,3.8-2c-0.1,0.1-0.2,0.1-0.2,0
	c1.9-0.8,3.3-2.4,5.1-3.4c0.4-0.3,0.4-0.4,0.6-0.8l0.2,0.1l0.3-0.6c0.4-0.7,1.3-0.6,1.9-1.7h-0.2c0.3-0.3,0.7-1,0.8-0.8
	c0-0.1,0.1-0.2,0.1-0.3l0.1,0.1c0.1-0.3,0.3-0.6,0.4-0.8c0.5-0.5,0.3,0.3,0.9-0.4C329.8,341.6,330.1,340.9,330,341z M326.5,336.4
	C326.5,336.4,326.5,336.5,326.5,336.4l-0.1-0.1C326.4,336.3,326.4,336.3,326.5,336.4z M310.9,349.4L310.9,349.4L310.9,349.4
	c-0.2-0.1-0.2-0.2-0.2-0.3C310.8,349.2,310.9,349.2,310.9,349.4L310.9,349.4z"/>
<path style="fill:#7F77FF;" d="M311.2,349.5L311.2,349.5C311.3,349.5,311.2,349.4,311.2,349.5L311.2,349.5L311.2,349.5z"/>
<path style="fill:#7F77FF;" d="M316.7,323C316.8,323,316.8,323,316.7,323C316.8,323,316.8,323,316.7,323L316.7,323z"/>
<path style="fill:#7F77FF;" d="M324.9,333.6c-0.3-0.8,0,0.3-0.5-0.5l0.4,0.6C324.7,333.5,324.7,333.3,324.9,333.6z"/>
<path style="fill:#7F77FF;" d="M323.3,331.3c-0.2-0.1-0.3-0.2-0.1,0.1C323.4,331.6,323.2,331.3,323.3,331.3z"/>
<path style="fill:#7F77FF;" d="M314,319.1l0.1-0.1C313.9,318.8,314.1,319,314,319.1z"/>
<polygon style="fill:#7F77FF;" points="311.6,315.3 311.2,314.9 311.4,315.2 "/>
<path style="fill:#7F77FF;" d="M294.5,300l0.2,0.1C294.8,299.9,294.7,299.8,294.5,300z"/>
<path style="fill:#7F77FF;" d="M285.4,307.1c0.2-0.1,0.4-0.2,0.6-0.3C285.8,306.9,285.5,307,285.4,307.1z"/>
<polygon style="fill:#7F77FF;" points="298.3,332.8 298.6,333.1 298.5,332.9 "/>
<path style="fill:#A0616A;" d="M216.5,282.6l1.2,33.6l18.3,42.9c0,0-4.7,22.2,4.7,21.4s0.8-22.2,0.8-22.2l-8.7-45.2l-1.6-37.3
	L216.5,282.6z"/>
<polygon style="fill:#CFCCE0;" points="223.1,259.1 223.6,256.1 227.1,257.5 238.2,274.9 215.2,286.9 "/>
</svg>
